# Blender 5.2.2 LTS
# www.blender.org
mtllib 3d-model.mtl
o 3d-model
v -1.431130 12.676978 -7.369734
v -1.099087 12.958080 -6.836286
v -1.099087 12.676978 -6.836286
v -3.312471 12.942490 -5.499629
v -3.658511 12.676979 -5.983311
v -3.326468 12.958081 -5.449863
v -1.149921 12.942489 -6.845698
v -1.445128 12.692570 -7.319967
v -3.607678 12.692571 -5.973898
v -3.326468 12.676979 -5.449863
v -1.543270 12.676979 -6.277390
v -1.211228 12.958081 -5.743942
v -1.211228 12.676979 -5.743942
v -3.424611 12.942490 -4.407284
v -3.770651 12.676979 -4.890967
v -3.438609 12.958081 -4.357519
v -1.262061 12.942490 -5.753354
v -1.557268 12.692571 -6.227623
v -3.719818 12.692571 -4.881554
v -3.438609 12.676979 -4.357519
v -1.536086 12.676979 -5.259317
v -1.204044 12.958081 -4.725869
v -1.204044 12.676979 -4.725869
v -3.417427 12.942490 -3.389213
v -3.763467 12.676979 -3.872895
v -3.431425 12.958081 -3.339446
v -1.254877 12.942490 -4.735281
v -1.550084 12.692571 -5.209551
v -3.712634 12.692571 -3.863482
v -3.431425 12.676979 -3.339446
v -1.437656 12.676979 -4.298042
v -1.105614 12.958081 -3.764594
v -1.105614 12.676979 -3.764594
v -3.318996 12.942490 -2.427938
v -3.665037 12.676979 -2.911619
v -3.332994 12.958081 -2.378171
v -1.156446 12.942490 -3.774007
v -1.451654 12.692571 -4.248277
v -3.614204 12.692571 -2.902207
v -3.332994 12.676979 -2.378171
v -1.414095 12.676979 -3.290164
v -1.082052 12.958081 -2.756716
v -1.082052 12.676979 -2.756716
v -3.295435 12.942490 -1.420059
v -3.641476 12.676979 -1.903742
v -3.309434 12.958081 -1.370294
v -1.132886 12.942490 -2.766129
v -1.428092 12.692571 -3.240398
v -3.590642 12.692571 -1.894329
v -3.309434 12.676979 -1.370294
v -1.376495 12.676979 -2.291025
v -1.044453 12.958081 -1.757576
v -1.044453 12.676979 -1.757576
v -3.257837 12.942490 -0.420920
v -3.603876 12.676979 -0.904603
v -3.271834 12.958081 -0.371154
v -1.095286 12.942490 -1.766989
v -1.390493 12.692571 -2.241259
v -3.553043 12.692571 -0.895190
v -3.271834 12.676979 -0.371154
v -1.285083 12.676979 -1.325380
v -0.953040 12.958081 -0.791932
v -0.953040 12.676979 -0.791932
v -3.166423 12.942490 0.544724
v -3.512464 12.676979 0.061042
v -3.180421 12.958081 0.594490
v -1.003874 12.942490 -0.801345
v -1.299080 12.692571 -1.275615
v -3.461630 12.692571 0.070455
v -3.180421 12.676979 0.594490
v -1.280240 12.676979 -0.305852
v -0.948197 12.958081 0.227596
v -0.948197 12.676979 0.227596
v -3.161580 12.942490 1.564253
v -3.507620 12.676979 1.080570
v -3.175578 12.958081 1.614019
v -0.999030 12.942490 0.218183
v -1.294237 12.692571 -0.256086
v -3.456787 12.692571 1.089983
v -3.175578 12.676979 1.614019
v -1.263697 12.676979 0.706394
v -0.931655 12.958081 1.239843
v -0.931655 12.676979 1.239843
v -3.114622 12.942490 2.557568
v -3.096205 12.958081 2.587157
v -0.982488 12.942490 1.230430
v -1.277695 12.692571 0.756161
v -3.409829 12.692571 2.083297
v -3.428247 12.676979 2.053708
v -3.096205 12.676979 2.587157
v -1.233117 12.661387 1.709903
v -0.901074 12.942490 2.243351
v -0.901074 12.661387 2.243351
v -3.032569 12.926897 3.529037
v -3.014151 12.942490 3.558626
v -0.951908 12.926897 2.233939
v -1.247114 12.676979 1.759670
v -3.327776 12.676979 3.054767
v -3.346193 12.661387 3.025178
v -3.014151 12.661387 3.558626
v -1.078533 12.676979 2.636227
v -0.746491 12.958081 3.169676
v -0.746491 12.676979 3.169676
v -2.791417 12.942490 4.401476
v -2.772999 12.958081 4.431066
v -0.797325 12.942490 3.160262
v -1.092531 12.692571 2.685993
v -3.086624 12.692571 3.927207
v -3.105042 12.676979 3.897617
v -2.772999 12.676979 4.431066
v -0.785908 12.676979 3.476627
v -0.453866 12.958081 4.010075
v -0.453866 12.676979 4.010075
v -2.545586 12.942490 5.271003
v -2.527168 12.958081 5.300592
v -0.504699 12.942490 4.000663
v -0.799906 12.692571 3.526393
v -2.859210 12.676979 4.767144
v -2.840793 12.692571 4.796733
v -2.527168 12.676979 5.300592
v -0.383319 12.676979 4.248580
v -0.051276 12.958081 4.782028
v -0.051276 12.676979 4.782028
v -2.185110 12.942490 6.069169
v -2.166692 12.958081 6.098758
v -0.102109 12.942490 4.772615
v -0.397316 12.692571 4.298346
v -2.498734 12.676979 5.565310
v -2.480316 12.692571 5.594900
v -2.166692 12.676979 6.098758
v 0.220485 12.676979 4.895288
v 0.552528 12.958081 5.428736
v 0.552528 12.676979 5.428736
v -1.571947 12.942491 6.710053
v -1.553530 12.958082 6.739643
v 0.501695 12.942490 5.419324
v 0.206488 12.692571 4.945055
v -1.885572 12.676979 6.206193
v -1.867154 12.692571 6.235783
v -1.553530 12.676980 6.739643
v 1.002105 12.676979 5.431317
v 1.334147 12.958081 5.964765
v 1.334147 12.676979 5.964765
v -0.773950 12.942491 7.235887
v -0.755532 12.958082 7.265476
v 1.283314 12.942490 5.955352
v 0.988107 12.692571 5.481082
v -1.087575 12.676980 6.732028
v -1.069157 12.692572 6.761617
v -0.755532 12.676980 7.265476
v 2.172111 12.676979 5.725594
v 2.504154 12.958081 6.259042
v 2.504154 12.676979 6.259042
v 0.290771 12.942491 7.595699
v -0.055269 12.676980 7.112017
v 0.276773 12.958082 7.645465
v 2.453321 12.942490 6.249630
v 2.158114 12.692571 5.775360
v -0.004436 12.692572 7.121430
v 0.276773 12.676980 7.645465
v 1.212677 12.676979 1.826518
v 0.767041 12.676979 1.110575
v 1.482985 12.676979 0.664939
v 1.928621 12.676979 1.380883
v 1.928621 12.803751 1.380883
v 1.212677 12.803751 1.826518
v 1.482985 12.803751 0.664939
v 0.767041 12.803751 1.110575
v 0.719547 12.803751 1.099523
v 1.201625 12.803751 1.874012
v 1.976115 12.803751 1.391935
v 1.494037 12.803751 0.617445
v 1.201625 12.676979 1.874012
v 1.976115 12.676979 1.391935
v 1.494037 12.676979 0.617445
v 0.719547 12.676979 1.099523
v 4.508809 12.676979 3.865030
v 4.063172 12.676979 3.149087
v 4.779117 12.676979 2.703451
v 5.224752 12.676979 3.419395
v 5.224752 12.803751 3.419395
v 4.508809 12.803751 3.865030
v 4.779117 12.803751 2.703451
v 4.063172 12.803751 3.149087
v 4.015678 12.803751 3.138035
v 4.497756 12.803751 3.912524
v 5.272246 12.803751 3.430447
v 4.790169 12.803751 2.655957
v 4.497756 12.676979 3.912524
v 5.272246 12.676979 3.430447
v 4.790169 12.676979 2.655957
v 4.015678 12.676979 3.138035
v 2.673838 12.676979 0.917026
v 2.228202 12.676979 0.201082
v 2.944146 12.676979 -0.244554
v 3.389781 12.676979 0.471390
v 3.389781 12.803751 0.471390
v 2.673838 12.803751 0.917026
v 2.944146 12.803751 -0.244554
v 2.228202 12.803751 0.201082
v 2.180708 12.803751 0.190030
v 2.662785 12.803751 0.964520
v 3.437276 12.803751 0.482443
v 2.955198 12.803751 -0.292048
v 2.662785 12.676979 0.964520
v 3.437276 12.676979 0.482443
v 2.955198 12.676979 -0.292048
v 2.180708 12.676979 0.190030
v 5.969970 12.676979 2.955538
v 5.524334 12.676979 2.239594
v 6.240278 12.676979 1.793958
v 6.685914 12.676979 2.509902
v 6.685914 12.803751 2.509902
v 5.969970 12.803751 2.955538
v 6.240278 12.803751 1.793958
v 5.524334 12.803751 2.239594
v 5.476839 12.803751 2.228541
v 5.958918 12.803751 3.003031
v 6.733407 12.803751 2.520954
v 6.251330 12.803751 1.746464
v 5.958918 12.676979 3.003031
v 6.733407 12.676979 2.520954
v 6.251330 12.676979 1.746464
v 5.476839 12.676979 2.228541
v 4.134999 12.676979 0.007534
v 3.689363 12.676979 -0.708410
v 4.405307 12.676979 -1.154046
v 4.850943 12.676979 -0.438102
v 4.850943 12.803751 -0.438102
v 4.134999 12.803751 0.007534
v 4.405307 12.803751 -1.154046
v 3.689363 12.803751 -0.708410
v 3.641869 12.803751 -0.719462
v 4.123947 12.803751 0.055027
v 4.898437 12.803751 -0.427050
v 4.416359 12.803751 -1.201540
v 4.123947 12.676979 0.055027
v 4.898437 12.676979 -0.427050
v 4.416359 12.676979 -1.201540
v 3.641869 12.676979 -0.719462
v 2.300027 12.676979 -2.940471
v 1.854392 12.676979 -3.656415
v 2.570336 12.676979 -4.102050
v 3.015971 12.676979 -3.386106
v 3.015971 12.803751 -3.386106
v 2.300027 12.803751 -2.940471
v 2.570336 12.803751 -4.102050
v 1.854392 12.803751 -3.656415
v 1.806898 12.803751 -3.667466
v 2.288975 12.803751 -2.892977
v 3.063465 12.803751 -3.375055
v 2.581388 12.803751 -4.149544
v 2.288975 12.676979 -2.892977
v 3.063465 12.676979 -3.375055
v 2.581388 12.676979 -4.149544
v 1.806898 12.676979 -3.667466
v 1.926217 12.676978 -6.797966
v 1.480582 12.676978 -7.513911
v 2.196525 12.676978 -7.959547
v 2.642161 12.676978 -7.243602
v 2.642161 12.803750 -7.243602
v 1.926217 12.803750 -6.797966
v 2.196525 12.803750 -7.959547
v 1.480582 12.803750 -7.513911
v 1.433088 12.803750 -7.524963
v 1.915165 12.803750 -6.750473
v 2.689656 12.803750 -7.232550
v 2.207577 12.803750 -8.007041
v 1.915165 12.676978 -6.750473
v 2.689656 12.676978 -7.232550
v 2.207577 12.676978 -8.007041
v 1.433088 12.676978 -7.524963
v 3.761189 12.676979 -3.849963
v 3.315553 12.676979 -4.565907
v 4.031497 12.676979 -5.011543
v 4.477133 12.676979 -4.295599
v 4.477133 12.803751 -4.295599
v 3.761189 12.803751 -3.849963
v 4.031497 12.803751 -5.011543
v 3.315553 12.803751 -4.565907
v 3.268059 12.803751 -4.576960
v 3.750137 12.803751 -3.802469
v 4.524626 12.803751 -4.284547
v 4.042549 12.803751 -5.059038
v 3.750137 12.676979 -3.802469
v 4.524626 12.676979 -4.284547
v 4.042549 12.676979 -5.059038
v 3.268059 12.676979 -4.576960
v 5.596160 12.676979 -0.901959
v 5.150524 12.676979 -1.617903
v 5.866467 12.676979 -2.063539
v 6.312104 12.676979 -1.347595
v 6.312104 12.803751 -1.347595
v 5.596160 12.803751 -0.901959
v 5.866467 12.803751 -2.063539
v 5.150524 12.803751 -1.617903
v 5.103030 12.803751 -1.628955
v 5.585108 12.803751 -0.854465
v 6.359598 12.803751 -1.336542
v 5.877520 12.803751 -2.111033
v 5.585108 12.676979 -0.854465
v 6.359598 12.676979 -1.336542
v 5.877520 12.676979 -2.111033
v 5.103030 12.676979 -1.628955
v 7.431130 12.676979 2.046045
v 6.985494 12.676979 1.330101
v 7.701438 12.676979 0.884466
v 8.147074 12.676979 1.600409
v 8.147074 12.803751 1.600409
v 7.431130 12.803751 2.046045
v 7.701438 12.803751 0.884466
v 6.985494 12.803751 1.330101
v 6.938000 12.803751 1.319049
v 7.420078 12.803751 2.093539
v 8.194568 12.803751 1.611461
v 7.712491 12.803751 0.836972
v 7.420078 12.676979 2.093539
v 8.194568 12.676979 1.611461
v 7.712491 12.676979 0.836972
v 6.938000 12.676979 1.319049
v 5.866467 12.676979 -2.063539
v 5.150524 12.676979 -1.617903
v 5.596159 12.676979 -0.901959
v 6.312103 12.676979 -1.347595
v 4.031496 12.676979 -5.011543
v 3.315553 12.676979 -4.565907
v 3.761189 12.676979 -3.849963
v 4.477132 12.676979 -4.295599
v 2.196526 12.676978 -7.959547
v 1.480582 12.676978 -7.513912
v 1.926217 12.676978 -6.797967
v 2.642161 12.676978 -7.243603
v 2.224748 12.676978 -7.914205
v 2.570336 12.676979 -4.102050
v 1.854392 12.676979 -3.656415
v 2.300028 12.676979 -2.940471
v 3.015972 12.676979 -3.386106
v 4.405307 12.676979 -1.154046
v 3.689363 12.676979 -0.708410
v 4.134999 12.676979 0.007534
v 4.850943 12.676979 -0.438102
v 2.944146 12.676979 -0.244554
v 2.228202 12.676979 0.201082
v 2.673838 12.676979 0.917026
v 3.389781 12.676979 0.471390
v 1.482985 12.676979 0.664939
v 0.768613 12.676979 1.109596
v 0.768681 12.676979 1.113210
v 1.212677 12.676979 1.826518
v 1.928621 12.676979 1.380883
v 0.767041 12.676979 1.110575
v -4.453185 12.676979 -5.354554
v -7.410549 12.676979 -3.513757
v -6.880311 12.676979 -2.661897
v -3.922948 12.676979 -4.502692
v 0.134623 12.676979 -6.060151
v -0.890499 12.676979 -5.422068
v -0.890499 13.586428 -5.422068
v 0.134623 13.586428 -6.060151
v -0.837979 13.503752 -5.393544
v 0.084398 13.503752 -5.967673
v 0.084398 13.586428 -5.967673
v -0.837979 13.586428 -5.393544
v 2.240658 13.503752 4.821672
v 1.293251 13.503752 5.411382
v 1.293251 13.586428 5.411382
v 2.240658 13.586428 4.821672
v -3.922948 13.503752 -4.502692
v -4.453185 13.503752 -5.354554
v -4.453185 12.814775 -5.354554
v -3.014963 13.503753 6.849209
v -2.238187 13.503753 6.365709
v -2.238187 13.975012 6.365709
v -3.014963 13.975012 6.849209
v -2.950596 13.503752 5.221176
v -3.727372 13.503752 5.704677
v -3.727372 13.975011 5.704677
v -2.950596 13.975011 5.221176
v -5.061128 12.676979 1.830466
v -5.837903 12.676979 2.313966
v -5.837903 13.407574 2.313966
v -5.061128 13.407574 1.830466
v -3.512479 13.919892 5.754683
v -3.000602 13.919892 5.436069
v -3.000602 13.975011 5.436069
v -3.512479 13.975011 5.754683
v -2.964956 13.975012 6.634316
v -2.964956 13.919893 6.634316
v -2.453079 13.919892 6.315702
v -2.453079 13.975011 6.315702
v -0.689840 12.676979 3.104242
v -0.689840 13.586428 3.104242
v -0.732014 13.586428 2.784021
v -0.732014 12.676979 2.784021
v -0.614892 12.676979 3.418411
v -0.614892 13.586428 3.418411
v -0.507967 12.676979 3.723184
v -0.507967 13.586428 3.723184
v -0.370203 12.676979 4.015315
v -0.370203 13.586428 4.015315
v -0.203069 12.676979 4.291695
v -0.203069 13.586428 4.291695
v -0.008343 12.676979 4.549379
v -0.008343 13.586428 4.549379
v 0.211902 12.676979 4.785625
v 0.211902 13.586428 4.785625
v 0.455319 12.676979 4.997917
v 0.455319 13.586428 4.997917
v 0.719318 12.676979 5.183992
v 0.719318 13.586428 5.183992
v 1.001086 12.676979 5.341873
v 1.001086 13.586428 5.341873
v 1.297624 12.676979 5.469875
v 1.297624 13.586428 5.469875
v -0.740963 12.676979 2.461160
v -0.740963 13.586428 2.461160
v 1.520645 13.503752 4.500342
v 1.784609 13.503752 4.648984
v 1.784609 13.586428 4.648984
v 1.520645 13.586428 4.500342
v -0.324344 13.586428 3.990720
v -0.324344 13.503752 3.990720
v -0.459816 13.503752 3.703446
v -0.459816 13.586428 3.703446
v 1.274481 13.503752 4.323778
v 1.274481 13.586428 4.323778
v 1.049059 13.503752 4.121399
v 1.049059 13.586428 4.121399
v -0.638666 13.586428 3.094794
v -0.638666 13.503752 3.094794
v -0.680138 13.503752 2.779897
v -0.680138 13.586428 2.779897
v 2.063221 13.503752 4.767926
v 2.063221 13.586428 4.767926
v -0.564964 13.503752 3.403739
v -0.564964 13.586428 3.403739
v 0.239662 13.503752 2.217456
v 0.239662 13.586428 2.217456
v 0.031501 13.586428 4.515905
v 0.031501 13.503752 4.515905
v -0.159987 13.503752 4.262505
v -0.159987 13.586428 4.262505
v 1.024148 13.503752 5.295221
v 0.747064 13.503752 5.139966
v 0.747064 13.586428 5.139966
v 1.024148 13.586428 5.295221
v 0.248084 13.586428 4.748222
v 0.248084 13.503752 4.748222
v 0.847073 13.503752 3.895627
v 0.847073 13.586428 3.895627
v 0.670937 13.586428 3.649156
v 0.670937 13.503752 3.649156
v 0.522756 13.586428 3.384933
v 0.522756 13.503752 3.384933
v 0.487455 13.503752 4.956984
v 0.487455 13.586428 4.956984
v 0.404298 13.586428 3.106115
v 0.404298 13.503752 3.106115
v 0.316982 13.586428 2.816033
v 0.316982 13.503752 2.816033
v -0.689007 13.586428 2.459947
v -0.689007 13.503752 2.459947
v 0.261848 13.586428 2.518153
v 0.261848 13.503752 2.518153
v 2.365494 13.586428 4.805184
v 2.081010 13.586428 4.719012
v 1.807630 13.586428 4.602304
v 1.548623 13.586428 4.456454
v 1.307083 13.586428 4.283206
v 1.085895 13.586428 4.084628
v 0.887702 13.586428 3.863096
v 0.714874 13.586428 3.621254
v 0.569475 13.586428 3.361994
v 0.453243 13.586428 3.088411
v 0.367566 13.586428 2.803777
v 0.313468 13.586428 2.511493
v 0.291596 13.586428 2.215049
v 2.365494 12.676979 4.805184
v 2.081010 12.676979 4.719012
v 1.807630 12.676979 4.602304
v 1.548623 12.676979 4.456454
v 1.307083 12.676979 4.283206
v 1.085895 12.676979 4.084628
v 0.887702 12.676979 3.863096
v 0.714874 12.676979 3.621254
v 0.569475 12.676979 3.361994
v 0.453243 12.676979 3.088411
v 0.367566 12.676979 2.803777
v 0.313468 12.676979 2.511493
v 0.291596 12.676979 2.215049
v -7.273841 -0.000000 -4.985475
v -7.273841 3.698942 -4.985476
v -7.320395 3.698942 -5.266691
v -7.320395 -0.000000 -5.266690
v -7.292580 3.698942 -5.550373
v -7.292580 -0.000000 -5.550372
v -7.192291 3.698942 -5.817190
v -7.192291 -0.000000 -5.817190
v -7.026360 3.698942 -6.048959
v -7.026360 -0.000000 -6.048958
v -6.806098 -0.000000 -6.229884
v -6.806098 3.698942 -6.229885
v -6.546515 3.698942 -6.347637
v -6.546515 -0.000000 -6.347636
v -6.265299 -0.000000 -6.394191
v -6.265299 3.698942 -6.394192
v -5.981616 -0.000000 -6.366375
v -5.981616 3.698942 -6.366376
v -5.714799 -0.000000 -6.266086
v -5.714799 3.698942 -6.266086
v -5.483032 -0.000000 -6.100156
v -5.483032 3.698942 -6.100156
v -5.320776 3.698942 -5.902625
v -5.320776 -0.000000 -5.902624
v -6.825721 -0.000000 -4.193684
v -6.825721 3.698943 -4.193685
v -7.156088 3.698943 -4.725892
v -7.156088 -0.000000 -4.725892
v -5.010304 13.503752 1.912117
v -5.787080 13.503752 2.395617
v -2.302554 13.503753 7.993741
v -1.525778 13.503753 7.510242
v -9.494177 12.676979 -2.216814
v -7.410549 12.814775 -3.513757
v -9.494177 12.814775 -2.216814
v 2.209364 12.676978 -9.501624
v 2.209364 12.814774 -9.501624
v 9.494176 12.676979 2.201914
v 9.494176 12.814775 2.201914
v -2.209365 12.814775 9.486727
v -2.209365 12.676980 9.486727
v -4.038470 13.418318 -4.529576
v -4.038470 13.503752 -4.529576
v -4.480069 13.503752 -5.239032
v -4.480069 13.418318 -5.239032
v -7.295026 13.418318 -3.486875
v -7.295026 13.503752 -3.486875
v 0.662651 12.676980 7.699054
v 0.662651 12.814775 7.699054
v 3.699563 12.676979 5.808743
v 3.699563 12.814775 5.808743
v -5.010304 12.676979 1.912117
v -1.525778 12.676980 7.510242
v 3.437519 12.676979 5.971851
v -2.302554 12.676980 7.993741
v -5.787080 12.676979 2.395617
v 3.437519 12.814775 5.971851
v -9.869631 12.814775 -2.304185
v -2.296735 12.814775 9.862183
v 0.806693 12.814775 7.930468
v 2.306007 12.814774 -9.862185
v 9.869631 12.814775 2.289285
v 4.387079 12.814775 5.701874
v 4.360866 12.814775 5.659759
v 3.817391 12.814775 5.998042
v -7.070012 13.503752 -1.396943
v -7.846787 13.503752 -0.913443
v -7.019189 13.407574 -1.315292
v -7.019189 12.676979 -1.315292
v -7.070012 12.676979 -1.396943
v -7.846787 12.676979 -0.913443
v -7.795965 12.676979 -0.831791
v -7.795965 13.407574 -0.831791
v -3.014963 13.458457 6.849209
v -3.038899 13.503753 6.810755
v -3.038899 13.458457 6.810755
v -2.923962 13.503752 5.263965
v -2.923962 13.453350 5.263965
v -2.950596 13.453350 5.221176
v -2.264821 13.503753 6.322919
v -2.264821 13.453351 6.322919
v -2.326490 13.458457 7.955287
v -2.326490 12.722276 7.955287
v -5.763144 12.722275 2.434071
v -5.763144 13.458456 2.434071
v -5.248327 13.458456 3.261160
v -3.703436 13.503752 5.743131
v -3.703436 13.929716 5.743131
v -3.038899 13.929717 6.810755
v -1.552412 12.727382 7.467453
v -4.983670 12.727381 1.954906
v -4.983670 13.453350 1.954906
v -1.552412 13.453351 7.467453
v -2.264821 13.924610 6.322919
v -2.923962 13.924609 5.263965
v -7.088902 3.698942 -5.041664
v -7.127215 3.698942 -5.273099
v -7.149720 3.698943 -4.729855
v -6.818697 3.698943 -4.198044
v -7.004146 3.698942 -4.854820
v -6.991993 3.698942 -4.828032
v -6.986712 3.698942 -4.816387
v -6.763974 3.698943 -4.457565
v -4.974341 3.698942 -5.346055
v -6.763535 3.698943 -4.457839
v -5.237503 3.698942 -5.405119
v -5.476904 3.698942 -5.790787
v -5.482498 3.698942 -5.801961
v -5.484871 3.698942 -5.800485
v -5.615098 3.698942 -5.959026
v -5.805839 3.698942 -6.095583
v -6.025425 3.698942 -6.178120
v -6.258891 3.698942 -6.201012
v -6.490325 3.698942 -6.162698
v -6.703959 3.698942 -6.065790
v -6.885230 3.698942 -5.916891
v -7.021787 3.698942 -5.726151
v -7.104324 3.698942 -5.506565
v 3.267313 2.933491 7.763393
v 2.980116 2.933491 7.893671
v 2.980116 3.018925 7.893671
v 3.267313 3.018925 7.763393
v 3.511006 2.933491 7.563221
v 3.511006 3.018925 7.563221
v 3.694586 3.018925 7.306799
v 3.694586 2.933491 7.306799
v 3.805544 3.018925 7.011599
v 3.805544 2.933491 7.011599
v 3.836318 3.018925 6.697740
v 3.836318 2.933491 6.697740
v 2.668987 2.933491 7.945178
v 2.355128 2.933491 7.914404
v 2.355128 3.018925 7.914404
v 2.668987 3.018925 7.945178
v 1.656435 3.018925 7.440817
v 1.532311 3.018925 7.420382
v 1.746344 3.018925 7.680948
v 1.803505 3.018925 7.619864
v 2.020524 3.018925 7.877243
v 2.059929 3.018925 7.803445
v 2.336166 3.018925 7.995885
v 2.671761 3.018925 8.028790
v 3.004436 3.018925 7.973716
v 3.311522 3.018925 7.834415
v 3.572090 3.018925 7.620382
v 3.768384 3.018925 7.346203
v 3.887026 3.018925 7.030560
v 3.864857 3.018925 6.362290
v 3.919931 3.018925 6.694966
v 3.784811 3.018925 6.386610
v 3.725557 3.018925 6.055205
v 3.689092 3.018925 6.175599
v -7.410549 13.503752 -3.513757
v 1.194768 12.814775 7.688913
v 1.168554 12.814775 7.646799
v -9.869631 3.698943 -2.304184
v -9.860359 -0.000000 -2.289287
v 3.913080 0.826586 5.003585
v 8.932662 0.826585 1.879171
v 8.932662 1.028201 1.879171
v 3.913080 1.028202 5.003585
v 8.932662 3.698943 1.879171
v 3.913080 3.698943 5.003585
v 4.332501 1.028202 5.677414
v 4.360866 1.028202 5.659760
v 4.387079 1.028202 5.701875
v 9.869631 1.028201 2.289286
v 2.306007 1.028201 -9.862184
v 1.814673 1.028201 -9.556354
v -2.296735 0.826586 9.862184
v 2.306007 -0.000001 -9.862184
v 1.194768 0.826586 7.688914
v 1.563087 0.826586 7.459655
v 1.564069 0.826586 7.459044
v 3.746226 0.826586 6.100770
v 3.751898 0.826586 6.097239
v 4.387079 0.826586 5.701875
v 9.869631 0.826585 2.289286
v 4.358715 0.826586 5.719530
v -1.510433 -0.000001 -7.493138
v -3.954643 -0.000000 -5.975899
v -1.454390 -0.000001 -7.527926
v 9.378297 3.698943 2.595115
v 9.869631 3.698943 2.289286
v 9.869631 8.994130 2.289286
v 4.387079 3.698943 5.701874
v 9.869631 9.556335 2.289286
v 4.360866 0.826586 5.659760
v 4.358715 1.028202 5.719530
v 4.360866 3.698943 5.659760
v 4.332501 3.698943 5.677414
v 3.725684 2.824617 6.055125
v 3.725557 2.824617 6.055205
v 1.095219 12.687140 7.692446
v 1.532311 0.826586 7.420382
v 1.004776 0.826586 7.748742
v 3.725684 0.826586 6.055125
v 4.332501 0.826586 5.677414
v 3.311522 0.826586 7.834415
v 3.554098 0.826586 7.644332
v 3.554098 3.018925 7.644332
v 3.287944 3.018925 7.852891
v 3.287944 0.826586 7.852891
v 3.004436 0.826586 7.973716
v 2.976880 3.018925 7.985460
v 2.976880 0.826586 7.985460
v 2.671761 0.826586 8.028790
v 2.642104 3.018925 8.033001
v 2.642104 0.826586 8.033001
v 2.336166 0.826586 7.995885
v 2.306431 3.018925 7.992278
v 2.306431 0.826586 7.992278
v 2.020524 0.826586 7.877243
v 1.992736 3.018925 7.866062
v 1.992736 0.826586 7.866062
v 1.746344 0.826586 7.680948
v 1.722396 3.018925 7.662956
v 1.722396 0.826586 7.662956
v 3.726419 2.824617 6.056305
v 3.726419 0.826586 6.056305
v 3.725557 0.826586 6.055205
v 3.744032 0.826586 6.078783
v 3.744032 3.018925 6.078783
v 3.876600 3.018925 6.389847
v 3.876600 0.826586 6.389847
v 3.864857 0.826586 6.362290
v 3.924142 3.018925 6.724622
v 3.924142 0.826586 6.724622
v 3.919931 0.826586 6.694966
v 3.883418 3.018925 7.060295
v 3.883418 0.826586 7.060295
v 3.887026 0.826586 7.030560
v 3.757203 3.018925 7.373991
v 3.757203 0.826586 7.373991
v 3.768384 0.826586 7.346203
v 3.572090 0.826586 7.620382
v 3.689092 2.933491 6.175599
v 1.656435 2.933491 7.440817
v 1.803505 2.933491 7.619864
v 2.059929 2.933491 7.803445
v 3.784811 2.933491 6.386610
v -6.763974 -0.000000 -4.457565
v -6.818697 -0.000000 -4.198044
v -5.147090 -0.000000 -5.238528
v -5.237503 -0.000000 -5.405118
v -5.476904 -0.000000 -5.790786
v -5.482498 -0.000000 -5.801960
v -4.974341 -0.000000 -5.346054
v -5.476904 3.638312 -5.790787
v -5.237503 3.638312 -5.405119
v -6.763974 3.638313 -4.457565
v -6.825070 3.698943 -4.194089
v 7.412509 6.993168 -1.658246
v 2.306007 3.698942 -9.862184
v 6.668326 6.993168 -2.853825
v 6.668326 8.842381 -2.853825
v 7.412509 8.842381 -1.658246
v 9.655781 9.549022 1.945720
v 9.655781 8.986816 1.945720
v 1.814299 3.698942 -9.556955
v 1.814673 1.110878 -9.556354
v 1.814299 1.110878 -9.556955
v 1.904413 0.885163 -9.411786
v -1.364275 0.885163 -7.382755
v -1.364275 3.698942 -7.382755
v 1.904413 1.028201 -9.411786
v 1.904413 1.110878 -9.411786
v 1.904413 3.698942 -9.411786
v 1.814299 0.885163 -9.556955
v 1.814299 1.028201 -9.556955
v -1.454390 0.885163 -7.527926
v -6.986712 3.638312 -4.816387
v -5.615098 3.638312 -5.959026
v -5.805839 3.638312 -6.095583
v -6.025425 3.638312 -6.178120
v -6.258891 3.638312 -6.201012
v -6.490325 3.638312 -6.162698
v -6.703959 3.638312 -6.065790
v -6.885230 3.638312 -5.916891
v -7.021787 3.638312 -5.726151
v -7.104324 3.638312 -5.506565
v -7.127215 3.638312 -5.273099
v -7.088902 3.638312 -5.041664
v -1.454390 3.698942 -7.527926
v -1.510433 7.117034 -7.493138
v -4.973621 7.117034 -5.343371
v -4.973621 12.130096 -5.343372
v -1.510433 12.130095 -7.493139
v -5.146452 4.294425 -5.236087
v -5.146452 3.618389 -5.236087
v -6.818697 5.236738 -4.198044
v -4.973621 5.236738 -5.343371
v 2.306007 1.110878 -9.862184
v -5.146452 -0.000000 -5.236087
v -4.973621 -0.000000 -5.343371
v -1.454390 4.402536 -7.527926
v -7.549670 2.162515 -3.744295
v -9.001380 2.162515 -2.843149
v -9.001380 0.010154 -2.843149
v -9.869631 -0.000000 -2.304184
v -7.549670 0.010154 -3.744294
v 3.726136 0.826586 6.056480
vn 0.8490 -0.0000 -0.5284
vn -0.2158 0.9128 -0.3467
vn -0.8490 -0.0000 0.5284
vn 0.5284 -0.0000 0.8490
vn -0.2158 0.9128 -0.3466
vn -0.8489 -0.0000 0.5285
vn -0.0000 -1.0000 -0.0000
vn -0.5284 -0.0000 -0.8490
vn -0.0000 1.0000 -0.0000
vn -0.9834 -0.0000 0.1816
vn -0.9969 -0.0000 0.0792
vn -0.9594 -0.0000 0.2819
vn -0.9253 -0.0000 0.3793
vn -0.8813 -0.0000 0.4726
vn -0.8279 -0.0000 0.5609
vn -0.7657 -0.0000 0.6433
vn -0.6953 -0.0000 0.7187
vn -0.6175 -0.0000 0.7866
vn -0.5332 -0.0000 0.8460
vn -0.4432 -0.0000 0.8964
vn -0.3963 -0.0000 0.9181
vn -0.9997 -0.0000 0.0233
vn -0.9998 -0.0000 0.0190
vn -0.5376 -0.0000 0.8432
vn 0.8813 -0.0000 -0.4726
vn 0.9253 -0.0000 -0.3793
vn -0.6264 -0.0000 0.7795
vn -0.7077 -0.0000 0.7065
vn 0.9834 -0.0000 -0.1816
vn 0.9969 -0.0000 -0.0792
vn -0.3418 -0.0000 0.9398
vn -0.2899 -0.0000 0.9571
vn 0.9594 -0.0000 -0.2819
vn 0.7657 -0.0000 -0.6433
vn 0.8279 -0.0000 -0.5609
vn 0.4432 -0.0000 -0.8964
vn 0.5332 -0.0000 -0.8460
vn 0.6953 -0.0000 -0.7187
vn 0.3963 -0.0000 -0.9181
vn -0.7806 -0.0000 0.6250
vn -0.8442 -0.0000 0.5361
vn -0.8976 -0.0000 0.4407
vn 0.6175 -0.0000 -0.7866
vn -0.9404 -0.0000 0.3401
vn -0.9719 -0.0000 0.2355
vn 0.9997 -0.0000 -0.0233
vn 0.9998 -0.0000 -0.0190
vn -0.9918 -0.0000 0.1280
vn -0.9973 -0.0000 0.0736
vn 0.2899 -0.0000 -0.9571
vn 0.3418 -0.0000 -0.9398
vn 0.5376 -0.0000 -0.8432
vn 0.6264 -0.0000 -0.7795
vn 0.7077 -0.0000 -0.7065
vn 0.7806 -0.0000 -0.6250
vn 0.8442 -0.0000 -0.5361
vn 0.8976 -0.0000 -0.4407
vn 0.9404 -0.0000 -0.3401
vn 0.9719 -0.0000 -0.2355
vn 0.9918 -0.0000 -0.1280
vn 0.9973 -0.0000 -0.0736
vn -0.9568 -0.0000 0.2907
vn -0.9995 -0.0000 0.0332
vn -0.9740 -0.0000 -0.2266
vn -0.8821 -0.0000 -0.4710
vn -0.7302 -0.0000 -0.6833
vn -0.6347 -0.0000 -0.7727
vn -0.2907 -0.0000 -0.9568
vn -0.4131 -0.0000 -0.9107
vn -0.0332 -0.0000 -0.9995
vn 0.2267 -0.0000 -0.9740
vn 0.4710 -0.0000 -0.8821
vn 0.6833 -0.0000 -0.7302
vn 0.7727 -0.0000 -0.6347
vn -0.8496 -0.0000 0.5274
vn -0.9107 -0.0000 0.4131
vn 0.8490 -0.0000 -0.5285
vn -0.8131 -0.0000 -0.5821
vn -0.9361 -0.0000 -0.3518
vn -0.9952 -0.0000 -0.0976
vn 0.0976 -0.0000 -0.9952
vn -0.1633 -0.0000 -0.9866
vn 0.0305 -0.9983 0.0489
vn 0.5284 -0.0001 0.8490
vn 0.5285 -0.0000 0.8490
vn 0.6168 -0.0000 0.7871
vn 0.7143 -0.0000 0.6999
vn 0.5088 -0.0000 0.8609
vn 0.7143 0.0001 0.6998
vn 0.3921 -0.0000 0.9199
vn 0.2686 0.0002 0.9633
vn 0.2686 -0.0000 0.9632
vn 0.1406 -0.0000 0.9901
vn 0.0102 -0.0000 0.9999
vn -0.1204 -0.0000 0.9927
vn -0.2490 -0.0000 0.9685
vn -0.3733 -0.0000 0.9277
vn -0.4912 -0.0000 0.8711
vn -0.6007 -0.0000 0.7995
vn 0.7871 -0.0000 -0.6168
vn -0.0000 -1.0000 0.0001
vn -0.0000 1.0000 0.0002
vn -0.8490 -0.0000 0.5285
vn 0.8609 -0.0000 -0.5088
vn 0.9632 -0.0000 -0.2686
vn 0.9199 -0.0000 -0.3920
vn 0.9199 -0.0000 -0.3921
vn 0.9999 -0.0000 -0.0102
vn 0.9901 -0.0000 -0.1406
vn 0.9685 -0.0000 0.2490
vn 0.9927 -0.0000 0.1205
vn 0.9927 -0.0000 0.1204
vn 0.8711 -0.0000 0.4912
vn 0.9277 -0.0000 0.3733
vn 0.7995 -0.0000 0.6006
vn 0.7995 -0.0000 0.6007
vn 0.8942 -0.0000 -0.4476
vn 0.8496 -0.0000 -0.5274
vn 0.5274 -0.0000 0.8496
vn -0.8497 -0.0000 0.5273
vn -0.5274 -0.0000 -0.8496
vn -0.8495 -0.0000 0.5277
vn -0.7727 -0.0000 0.6347
vn -0.6833 -0.0000 0.7302
vn -0.4710 -0.0000 0.8821
vn -0.2267 -0.0000 0.9740
vn 0.0332 -0.0000 0.9995
vn 0.2907 -0.0000 0.9568
vn 0.4131 -0.0000 0.9107
vn 0.7302 -0.0000 0.6833
vn 0.6347 -0.0000 0.7727
vn 0.8821 -0.0000 0.4710
vn 0.9740 -0.0000 0.2267
vn 0.9995 -0.0000 -0.0332
vn 0.9568 -0.0000 -0.2907
vn 0.9107 -0.0000 -0.4131
vn -0.5273 -0.0000 -0.8497
vn 0.5821 -0.0000 -0.8131
vn 0.3518 -0.0000 -0.9361
vn -0.9866 -0.0000 0.1633
vn -0.0000 1.0000 -0.0001
vn 0.2044 0.9219 0.3292
vn 0.8407 -0.1448 -0.5218
vt 0.000000 0.000000
vt -15.089100 2.812000
vt -16.450800 2.812000
vt -16.450800 -2.855700
vt -15.089100 -2.855700
vt -15.089100 2.732300
vt -16.450800 2.732300
vt -15.089100 2.597400
vt -16.450800 2.597400
vt -15.089100 2.370500
vt -16.450800 2.370500
vt -15.089100 2.493200
vt -16.450800 2.493200
vt -15.089100 2.603500
vt -16.450800 2.603500
vt -15.089100 2.579000
vt -16.450800 2.579000
vt -15.089100 2.536100
vt -16.450800 2.536100
vt 0.066100 0.048200
vt 0.053400 0.071800
vt 0.032800 0.059000
vt 0.045400 0.035500
vt 0.532900 0.735600
vt 0.555200 0.750100
vt 0.553100 0.753600
vt 0.530800 0.739000
vt 0.250100 0.555700
vt 0.252000 0.552300
vt 0.273300 0.566200
vt 0.271300 0.569600
vt -0.106500 0.318400
vt -0.086600 0.331400
vt -0.088400 0.334800
vt -0.108300 0.321800
vt 0.177300 0.503600
vt 0.175400 0.507000
vt 0.154500 0.493400
vt 0.156400 0.490000
vt -0.000000 1.673200
vt 1.673200 0.000000
vt 1.673200 1.673200
vt -0.041200 0.361000
vt -0.012300 0.379800
vt -0.025700 0.404200
vt -0.054400 0.385300
vt 0.438300 0.705100
vt 0.466600 0.723700
vt 0.465300 0.725900
vt 0.437000 0.707400
vt 0.041800 0.445400
vt 0.068900 0.463100
vt 0.067600 0.465300
vt 0.040600 0.447600
vt 0.536700 0.769600
vt 0.550500 0.747000
vt 0.577200 0.764400
vt 0.563300 0.787000
vt 0.574900 0.768200
vt 0.226300 0.566200
vt 0.249200 0.581200
vt 0.241900 0.593900
vt 0.219000 0.578900
vt 0.154700 0.519300
vt 0.177400 0.534200
vt 0.170100 0.546800
vt 0.147500 0.532000
vt 0.167400 0.497100
vt 0.190100 0.511900
vt 0.178800 0.531600
vt 0.156200 0.516700
vt 0.223700 0.580000
vt 0.238800 0.589900
vt 0.238000 0.591400
vt 0.222900 0.581400
vt 0.272000 0.613700
vt 0.272800 0.612200
vt 0.299000 0.629400
vt 0.298100 0.630900
vt 0.152200 0.533000
vt 0.167100 0.542800
vt 0.166300 0.544300
vt 0.151400 0.534500
vt 0.119000 0.511200
vt 0.118100 0.512600
vt 0.092800 0.496000
vt 0.093600 0.494500
vt -45.089100 43.445999
vt -56.069801 36.611099
vt -54.296299 -56.882900
vt -54.190701 -60.691799
vt -53.696999 -64.440498
vt -52.819599 -68.118500
vt -51.567799 -71.686401
vt -49.955002 -75.106300
vt -47.998402 -78.341904
vt -45.718800 -81.358498
vt -43.140400 -84.124199
vt -43.240700 -53.996101
vt -42.976601 -57.575802
vt -40.290798 -86.609497
vt -42.320202 -61.122002
vt -41.280701 -64.575302
vt -39.870499 -67.894600
vt -37.200199 -88.787804
vt -38.106499 -71.040100
vt -36.009602 -73.974297
vt -33.901600 -90.636101
vt -33.605000 -76.662003
vt -30.698000 -92.018997
vt -30.921400 -79.071297
vt -27.990900 -81.173302
vt -24.848499 -82.942802
vt -21.531700 -84.358803
vt -19.419300 -84.998596
vt -105.740303 -50.361099
vt -114.987602 -56.117001
vt -90.467300 -95.510597
vt -81.219902 -89.754601
vt -72.738899 -103.379997
vt -81.986198 -109.136002
vt -73.505203 -122.761398
vt -64.257797 -117.005402
vt -81.815300 -92.312897
vt -87.908997 -96.105904
vt -81.390900 -106.577698
vt -75.297096 -102.784698
vt -135.725998 141.076096
vt -106.508202 141.076096
vt -106.508202 142.716507
vt -135.725998 142.716507
vt 65.038399 141.076096
vt 106.508202 141.076096
vt 106.508202 142.716507
vt 65.038399 142.716507
vt -65.038399 141.076096
vt 28.387600 141.076096
vt 28.387600 142.716507
vt -65.038399 142.716507
vt 81.053497 141.076096
vt 81.053497 142.716507
vt -83.060097 142.716507
vt -83.060097 141.076096
vt -81.053497 142.716507
vt -81.053497 141.076096
vt 83.060097 141.076096
vt 83.060097 142.716507
vt -72.113297 149.901596
vt -72.113297 150.918594
vt -82.061699 150.918594
vt -82.061699 149.901596
vt -105.509804 149.901596
vt -66.036797 149.901596
vt -66.036797 150.918594
vt -105.509804 150.918594
vt 95.453003 141.076096
vt 135.725998 141.076096
vt 135.725998 142.716507
vt 95.453003 142.716507
vt -28.387600 141.076096
vt 52.867699 141.076096
vt 52.867699 142.716507
vt -28.387600 142.716507
vt -92.795601 26.005699
vt -128.002304 4.091500
vt -115.592697 -55.145000
vt -106.345299 -49.389000
vt -56.695000 36.950699
vt -19.791901 85.516800
vt -99.107903 36.146900
vt -44.491100 44.546902
vt -28.467800 61.853500
vt -42.622398 -53.967400
vt -42.362099 -57.496498
vt -41.717999 -60.976101
vt -40.698101 -64.364601
vt -39.314301 -67.621498
vt -36.962399 -40.818901
vt -37.583401 -70.707901
vt -35.525902 -73.586998
vt -36.942799 -40.850300
vt -31.657200 -49.341999
vt -33.166500 -76.224297
vt -30.533300 -78.588303
vt -23.134001 -44.036800
vt -27.657801 -80.650803
vt -24.574400 -82.387100
vt -21.319901 -83.776497
vt -18.712500 7.407800
vt -24.017700 15.931000
vt -28.439199 -35.513699
vt -23.162701 53.330399
vt -36.943699 -40.807301
vt -15.494600 21.236200
vt -14.639500 58.635601
vt -10.189400 12.713000
vt -6.622900 26.758301
vt 1.900200 32.063499
vt 66.932098 -53.811001
vt -19.608700 66.619003
vt -19.944700 67.158699
vt 7.205400 23.540300
vt 23.745100 -3.031800
vt 15.221900 -8.337000
vt 11.655500 -22.382299
vt 6.350300 -13.859100
vt -1.317800 18.235100
vt -2.172800 -19.164301
vt -5.171000 -98.691200
vt -5.739300 -33.209599
vt -11.044500 -24.686399
vt -19.567600 -29.991600
vt -17.933201 -84.802299
vt -14.262400 -38.514702
vt -30.645901 -92.715302
vt -38.205101 -119.253197
vt -34.176102 -91.191498
vt -37.530499 -89.311996
vt -40.673302 -87.096802
vt -43.571201 -84.569504
vt -46.193100 -81.757004
vt -48.511299 -78.689400
vt -50.500999 -75.399101
vt -52.140999 -71.921402
vt -53.414001 -68.293098
vt -72.395798 -140.535004
vt -159.119705 -1.207100
vt -134.314606 14.232700
vt -54.306198 -64.553001
vt -54.808300 -60.740898
vt -54.914799 -56.897301
vt -2.051400 -96.749496
vt 3.132400 -27.687500
vt 20.527100 -16.860201
vt 29.050301 -11.555000
vt 56.542198 141.076096
vt 56.542198 142.716507
vt -163.589401 -0.167000
vt -73.435898 -145.004700
vt -36.490299 -122.008102
vt -18.641300 89.809196
vt 71.401802 -54.851200
vt 6.133300 -95.477203
vt 5.821300 -94.975899
vt -0.648700 -99.002998
vt 28.367399 105.643700
vt 28.367399 110.592697
vt 7.284500 110.592697
vt 7.284500 105.643700
vt 27.847200 105.123497
vt 27.847200 101.171700
vt 28.367399 101.171700
vt 7.804700 105.123497
vt 7.804700 101.171700
vt 7.284500 101.171700
vt 32.839401 105.643700
vt 32.839401 110.592697
vt 27.119699 110.592697
vt 27.119699 105.643700
vt 31.071501 105.643700
vt 31.071501 110.592697
vt 51.113998 110.592697
vt 51.113998 105.643700
vt 6.050000 72.214996
vt 6.900000 72.214996
vt 6.900000 72.983101
vt 6.050000 72.983101
vt 1.954000 73.105400
vt 1.954000 73.422302
vt 1.018600 73.422302
vt 1.018600 73.105400
vt 2.945200 71.259903
vt 2.945200 71.910301
vt 1.794300 71.910301
vt -2.800000 71.259903
vt 1.754300 71.910301
vt -1.939300 71.910301
vt -2.800000 71.910301
vt 6.026000 71.904198
vt 6.026000 71.262901
vt 11.762100 71.262901
vt 7.216900 71.904198
vt 8.318900 71.904198
vt 8.363400 71.904198
vt 11.762100 71.904198
vt 7.018200 72.346001
vt 7.018200 72.032097
vt 7.948400 72.032097
vt 7.948400 72.346001
vt -1.052000 71.309303
vt 2.025300 71.309303
vt 2.025300 71.917999
vt -1.052000 71.917999
vt 0.306000 0.893500
vt 0.333500 0.893900
vt 0.333500 0.897900
vt 0.305900 0.915400
vt 0.502400 0.917900
vt 0.521100 0.900200
vt 0.521000 0.918100
vt -0.696100 0.367700
vt -0.694400 -0.105800
vt -0.696100 1.534800
vt 0.510700 0.364900
vt 0.896100 0.339300
vt 0.896300 0.348900
vt 0.510900 0.374000
vt 0.539900 0.360100
vt 0.889400 0.346700
vt 0.884400 0.429400
vt 0.538900 0.431100
vt 0.344200 -0.971000
vt -0.062600 -0.857800
vt -0.011000 -0.990200
vt -0.003700 -0.990700
vt -0.000000 -1.000000
vt 0.387800 -1.017800
vt 0.053200 -0.557800
vt 0.033700 -0.538900
vt -1.120900 0.905100
vt -1.120900 -0.930500
vt 0.255100 -0.930500
vt -0.726000 0.905100
vt -0.684400 0.905100
vt -0.437400 0.905100
vt -0.365000 0.905100
vt 0.255100 0.905100
vt -0.368200 0.905100
vt 0.516800 0.662500
vt 0.150400 0.965800
vt 1.318600 -0.003700
vt 0.751500 0.468300
vt 0.511400 0.667000
vt 0.512800 0.364800
vt 0.936600 0.336600
vt 0.936700 0.346300
vt 0.513000 0.373800
vt 0.899700 0.473700
vt 0.939100 0.472000
vt 0.943300 0.723400
vt 0.515600 0.490600
vt 0.522300 0.906400
vt 0.943700 0.750100
vt 0.946300 0.905000
vt 0.068000 0.394400
vt 0.291700 0.379500
vt 0.308500 0.902300
vt 0.083800 0.885900
vt 0.282200 0.900400
vt 0.515900 0.493200
vt 0.525800 0.896900
vt 0.074400 0.512800
vt 0.070900 0.402500
vt 0.112600 0.399800
vt 0.116100 0.510900
vt 0.500300 0.380700
vt 0.502200 0.380700
vt 0.507400 0.500000
vt 0.462100 0.461000
vt 0.462400 0.469600
vt 0.314300 0.469500
vt 0.304000 0.892300
vt 0.310100 0.373300
vt 0.275000 0.373600
vt 0.525300 0.906700
vt 0.309100 0.898100
vt 0.487900 0.905200
vt 0.458200 0.372100
vt 0.499900 0.371700
vt -0.675200 0.025800
vt -0.675200 0.000000
vt -0.599000 0.000000
vt -0.599000 0.025800
vt 0.383100 0.370500
vt 0.400700 0.370000
vt 0.405000 0.467500
vt 0.385700 0.467800
vt 0.381400 0.370500
vt 0.387400 0.467800
vt 0.364000 0.371000
vt 0.366600 0.468100
vt 0.362300 0.371100
vt 0.368300 0.468100
vt 0.346300 0.371500
vt 0.349000 0.468400
vt 0.344700 0.371600
vt 0.350500 0.468400
vt 0.331100 0.372000
vt 0.334100 0.468600
vt 0.329800 0.372000
vt 0.335400 0.468600
vt 0.319500 0.372300
vt 0.322800 0.468800
vt 0.312300 0.372500
vt 0.315900 0.468900
vt 0.499700 0.367200
vt 0.501700 0.367100
vt 0.502100 0.376200
vt 0.500100 0.376300
vt 0.503900 0.462200
vt 0.504300 0.471300
vt 0.461700 0.457900
vt 0.457800 0.368400
vt 0.462300 0.471900
vt 0.462300 0.466600
vt 0.459200 0.466700
vt 0.455200 0.368400
vt 0.451300 0.466800
vt 0.447700 0.368700
vt 0.439000 0.467000
vt 0.434600 0.369000
vt 0.435700 0.369000
vt 0.440000 0.467000
vt 0.423100 0.467200
vt 0.418800 0.369500
vt 0.420200 0.369400
vt 0.424500 0.467200
vt 0.402300 0.369900
vt 0.406600 0.467500
vt 0.456600 0.466700
vt 0.319400 0.468900
vt 0.321100 0.468800
vt 0.327900 0.468700
vt 0.338700 0.468600
vt 0.352900 0.468300
vt 0.369500 0.468100
vt 0.422100 0.467200
vt 0.454800 0.466700
vt 0.436600 0.467000
vt 0.447800 0.466800
vt -1.021300 0.273900
vt -1.026500 0.240700
vt -0.866000 0.373900
vt -0.874700 0.395200
vt -0.882700 0.458900
vt -0.897700 0.444600
vt -0.898200 0.446000
vt -0.695700 -0.105800
vt -0.758600 0.367700
vt -0.758600 -0.105800
vt 0.700000 0.360000
vt 0.700000 -0.105800
vt 0.701200 -0.105800
vt 0.700000 0.367700
vt 0.701200 0.367700
vt 0.713100 0.360000
vt 0.713100 -0.105800
vt 0.756700 -0.105800
vt 0.756700 0.360000
vt -0.586800 -0.105800
vt -0.586800 0.360000
vt -0.759300 0.360000
vt 0.587000 -0.105800
vt 0.776100 -0.105800
vt 0.776100 0.367700
vt 0.567500 -0.105800
vt 0.567500 0.367700
vt -0.849400 0.387600
vt -1.058300 0.308800
vt -1.042700 0.319800
vt 0.177800 -1.305300
vt 0.180400 -1.303900
vt 0.204100 -1.280200
vt 0.115200 -1.324700
vt 0.118100 -1.325200
vt 0.147500 -1.320500
vt -0.004600 -1.153900
vt 0.000700 -1.111400
vt -0.000500 -1.114900
vt 0.053800 -1.299800
vt 0.056100 -1.302200
vt 0.083300 -1.317700
vt -0.005000 -1.157700
vt -0.001500 -1.196900
vt 0.085900 -1.319200
vt -0.001100 -1.200700
vt 0.009900 -1.237300
vt 0.012100 -1.077900
vt 0.221600 -1.251800
vt 0.028800 -1.272400
vt 0.150300 -1.320000
vt 0.030500 -1.275500
vt 0.011000 -1.240900
vt 0.206400 -1.277900
vt 0.647600 0.241200
vt 0.640400 0.872000
vt 0.255200 0.605200
vt 0.229300 0.292800
vt 0.082000 0.212300
vt 0.081800 0.204800
vt 0.365400 0.235000
vt 0.365300 0.290400
vt 0.156700 0.474800
vt 0.088200 0.503800
vt 0.084100 0.311600
vt 0.365000 0.432000
vt 0.181000 0.489700
vt 0.182000 0.565400
vt 0.364200 0.891700
vt 0.157800 0.548200
vt 0.094100 0.527700
vt 0.088600 0.523800
vt 0.091000 0.638800
vt 0.093700 0.507500
vt -0.063400 0.190700
vt -0.050900 0.569000
vt -0.055600 0.564100
vt -0.068900 0.165000
vt -0.064200 0.166200
vt 0.168100 0.324600
vt 0.166500 0.245000
vt 0.420700 0.305100
vt 0.420800 0.308800
vt 0.423400 0.424500
vt -0.628800 0.305700
vt -0.577900 0.290700
vt -0.427200 0.281100
vt -0.427800 0.409900
vt -0.578000 0.297300
vt -0.578000 0.301000
vt -0.578500 0.419500
vt -0.620500 0.305100
vt -0.621000 0.433000
vt -0.629400 0.434000
vt -0.628800 0.301600
vt -0.620500 0.301000
vt -0.620500 0.294000
vt -0.628800 0.294500
vt 0.271600 0.696800
vt 0.186500 0.725500
vt 0.186500 0.719700
vt 0.271600 0.691200
vt 0.290400 0.324000
vt 0.290400 0.322000
vt 0.299100 0.321000
vt 0.299100 0.322900
vt 0.034200 0.352400
vt 0.082200 0.346700
vt 0.082200 0.348900
vt 0.034200 0.354600
vt -0.064300 0.366400
vt -0.064300 0.364100
vt -0.050700 0.362400
vt -0.050700 0.364800
vt -0.618800 0.429800
vt -0.619400 0.432800
vt -0.629400 0.431000
vt -0.526100 0.418800
vt -0.515500 0.417500
vt -0.515500 0.420400
vt -0.526100 0.421700
vt -0.396700 0.403400
vt -0.387100 0.402300
vt -0.387100 0.405000
vt -0.396700 0.406200
vt -0.257500 0.386900
vt -0.249000 0.385900
vt -0.249000 0.388500
vt -0.257500 0.389500
vt -0.121800 0.370900
vt -0.114400 0.370000
vt -0.114400 0.372400
vt -0.121900 0.373300
vt 0.001100 0.356300
vt 0.007700 0.355500
vt 0.007700 0.357800
vt 0.001000 0.358600
vt 0.105800 0.343900
vt 0.111700 0.343200
vt 0.111700 0.345300
vt 0.105800 0.346100
vt 0.189700 0.336000
vt 0.189700 0.334000
vt 0.195100 0.333300
vt 0.195100 0.335400
vt 0.251700 0.328600
vt 0.251700 0.326600
vt 0.256800 0.326000
vt 0.256800 0.328000
vt 0.291800 0.323800
vt 0.291800 0.321800
vt 0.296700 0.321300
vt 0.296600 0.323200
vt 0.310100 0.321600
vt 0.310100 0.319700
vt 0.314800 0.319100
vt 0.314800 0.321000
vt 0.306400 0.322100
vt 0.306400 0.320100
vt 0.311400 0.319500
vt 0.311400 0.321500
vt -0.430900 0.924900
vt -0.431000 0.932700
vt -0.603500 0.990400
vt -0.603400 0.982000
vt 0.282800 0.324900
vt 0.283500 0.234000
vt 0.287100 0.233700
vt 0.286400 0.324400
vt -0.425800 0.565700
vt -0.266800 0.536400
vt -0.267900 0.749900
vt -0.426800 0.794300
vt -0.255900 0.507800
vt -0.255800 0.479100
vt -0.186900 0.471400
vt -0.187300 0.534700
vt -0.263500 0.549200
vt -0.627800 0.250500
vt -0.427000 0.240600
vt -0.599800 0.292600
vt -0.599900 0.299600
vt -0.599900 0.303700
vt -0.261800 0.876200
vt -0.192800 0.853100
vt -0.319100 0.558300
vt -0.274300 0.549800
vt -0.266800 0.548400
vt -0.267600 0.702600
vt -0.437300 0.621300
vt -0.437900 0.750200
vt -0.267800 0.731400
vt -0.438100 0.782400
vt -0.434400 0.580200
vt -0.437100 0.580700
vt -0.428000 0.442100
vt -0.258700 0.415000
vt -0.266300 0.456200
vt -0.630300 0.884700
vt -0.600400 0.430600
vt -0.076000 0.723000
vt -0.189900 0.444800
vt -0.073900 0.367600
vt -0.189200 0.381400
vt -0.160300 0.315400
vt -0.105200 0.310400
vt -0.104600 0.225000
vt -0.073000 0.223000
vt -0.159800 0.227700
vt -0.188400 0.228800
vt 0.183300 0.566300
vt 0.182300 0.490500
vt 0.208400 0.506500
vt 0.209200 0.584900
vt 0.089200 0.553200
vt 0.088800 0.533300
vt 0.094300 0.537200
vt 0.094700 0.557300
vt -0.160700 0.380700
vt -0.105500 0.374000
vt -0.106000 0.459300
vt -0.161200 0.468200
vt -0.268200 0.917000
vt -0.269400 0.906600
vt -0.262500 0.904200
vt -0.264300 0.926800
vt -0.258100 0.934100
vt -0.262300 0.884400
vt -0.250000 0.938500
vt -0.240600 0.939600
vt -0.199100 0.863100
vt -0.230700 0.937500
vt -0.220800 0.932300
vt -0.192600 0.878700
vt -0.211600 0.924400
vt -0.194000 0.890800
vt -0.203800 0.914400
vt -0.197800 0.902900
s 1
usemtl Material.001
f 1/1/1 2/1/1 3/1/1
f 4/1/2 5/1/2 6/1/2 2/1/2
f 7/1/2 4/1/2 2/1/2 8/1/2
f 8/1/2 2/1/2 1/1/2 9/1/2
f 9/1/2 1/1/2 5/1/2 4/1/2
f 5/1/3 10/1/3 6/1/3
f 10/1/4 3/1/4 2/1/4 6/1/4
f 9/2/2 4/3/2 7/4/2 8/5/2
f 11/1/1 12/1/1 13/1/1
f 14/1/2 15/1/2 16/1/2 12/1/2
f 17/1/2 14/1/2 12/1/2 18/1/2
f 18/1/2 12/1/2 11/1/2 19/1/2
f 19/1/2 11/1/2 15/1/5 14/1/2
f 15/1/3 20/1/3 16/1/3
f 20/1/4 13/1/4 12/1/4 16/1/4
f 19/2/2 14/3/2 17/4/2 18/5/2
f 21/1/1 22/1/1 23/1/1
f 24/1/2 25/1/2 26/1/2 22/1/2
f 27/1/2 24/1/2 22/1/2 28/1/2
f 28/1/2 22/1/2 21/1/2 29/1/2
f 29/1/2 21/1/2 25/1/2 24/1/2
f 25/1/3 30/1/3 26/1/3
f 30/1/4 23/1/4 22/1/4 26/1/4
f 29/2/2 24/3/2 27/4/2 28/5/2
f 31/1/1 32/1/1 33/1/1
f 34/1/2 35/1/2 36/1/2 32/1/2
f 37/1/2 34/1/2 32/1/2 38/1/2
f 38/1/2 32/1/2 31/1/2 39/1/2
f 39/1/2 31/1/2 35/1/2 34/1/2
f 35/1/3 40/1/3 36/1/3
f 40/1/4 33/1/4 32/1/4 36/1/4
f 39/2/2 34/3/2 37/4/2 38/5/2
f 41/1/1 42/1/1 43/1/1
f 44/1/2 45/1/2 46/1/2 42/1/2
f 47/1/2 44/1/2 42/1/2 48/1/2
f 48/1/2 42/1/2 41/1/2 49/1/2
f 49/1/2 41/1/2 45/1/2 44/1/2
f 45/1/3 50/1/3 46/1/3
f 50/1/4 43/1/4 42/1/4 46/1/4
f 49/2/2 44/3/2 47/4/2 48/5/2
f 51/1/1 52/1/1 53/1/1
f 54/1/2 55/1/2 56/1/2 52/1/2
f 57/1/2 54/1/2 52/1/2 58/1/2
f 58/1/2 52/1/2 51/1/2 59/1/2
f 59/1/2 51/1/2 55/1/2 54/1/2
f 55/1/3 60/1/3 56/1/3
f 60/1/4 53/1/4 52/1/4 56/1/4
f 59/2/2 54/3/2 57/4/2 58/5/2
f 61/1/1 62/1/1 63/1/1
f 64/1/2 65/1/2 66/1/2 62/1/2
f 67/1/2 64/1/2 62/1/2 68/1/2
f 68/1/2 62/1/2 61/1/2 69/1/2
f 69/1/2 61/1/2 65/1/2 64/1/2
f 65/1/3 70/1/3 66/1/3
f 70/1/4 63/1/4 62/1/4 66/1/4
f 69/2/2 64/3/2 67/4/2 68/5/2
f 71/1/1 72/1/1 73/1/1
f 74/1/2 75/1/2 76/1/2 72/1/2
f 77/1/2 74/1/2 72/1/2 78/1/2
f 78/1/2 72/1/2 71/1/5 79/1/2
f 79/1/2 71/1/5 75/1/2 74/1/2
f 75/1/3 80/1/3 76/1/3
f 80/1/4 73/1/4 72/1/4 76/1/4
f 79/2/2 74/3/2 77/4/2 78/5/2
f 81/1/1 82/1/1 83/1/1
f 84/1/2 85/1/5 82/1/2 86/1/2
f 87/1/2 86/1/2 82/1/2 81/1/2
f 88/1/2 87/1/2 81/1/2 89/1/2
f 90/1/3 85/1/3 84/1/3 88/1/3
f 90/1/3 88/1/3 89/1/3
f 90/1/4 83/1/4 82/1/4 85/1/4
f 88/6/2 84/7/2 86/4/2 87/5/2
f 91/1/1 92/1/1 93/1/1
f 94/1/2 95/1/2 92/1/2 96/1/2
f 97/1/2 96/1/2 92/1/2 91/1/2
f 98/1/2 97/1/2 91/1/2 99/1/2
f 100/1/3 95/1/3 94/1/3 98/1/3
f 100/1/6 98/1/6 99/1/6
f 100/1/4 93/1/4 92/1/4 95/1/4
f 98/8/2 94/9/2 96/4/2 97/5/2
f 101/1/1 102/1/1 103/1/1
f 104/1/2 105/1/2 102/1/2 106/1/2
f 107/1/2 106/1/2 102/1/2 101/1/2
f 108/1/2 107/1/2 101/1/2 109/1/2
f 110/1/3 105/1/3 104/1/3 108/1/3
f 110/1/3 108/1/3 109/1/3
f 110/1/4 103/1/4 102/1/4 105/1/4
f 108/10/2 104/11/2 106/4/2 107/5/2
f 111/1/1 112/1/1 113/1/1
f 114/1/2 115/1/2 112/1/2 116/1/2
f 117/1/2 116/1/2 112/1/2 111/1/2
f 117/1/2 111/1/2 118/1/2 119/1/2
f 120/1/3 115/1/3 114/1/3 119/1/3
f 120/1/3 119/1/3 118/1/3
f 120/1/4 113/1/4 112/1/4 115/1/4
f 119/12/2 114/13/2 116/4/2 117/5/2
f 121/1/1 122/1/1 123/1/1
f 124/1/2 125/1/2 122/1/2 126/1/2
f 127/1/2 126/1/2 122/1/2 121/1/2
f 127/1/2 121/1/2 128/1/2 129/1/2
f 130/1/3 125/1/3 124/1/3 129/1/3
f 130/1/3 129/1/3 128/1/3
f 130/1/4 123/1/4 122/1/4 125/1/4
f 129/14/2 124/15/2 126/4/2 127/5/2
f 131/1/1 132/1/1 133/1/1
f 134/1/2 135/1/2 132/1/2 136/1/2
f 137/1/2 136/1/2 132/1/2 131/1/2
f 137/1/2 131/1/2 138/1/2 139/1/2
f 140/1/3 135/1/3 134/1/3 139/1/3
f 140/1/3 139/1/3 138/1/3
f 140/1/4 133/1/4 132/1/4 135/1/4
f 139/16/2 134/17/2 136/4/2 137/5/2
f 141/1/1 142/1/1 143/1/1
f 144/1/2 145/1/2 142/1/2 146/1/2
f 147/1/2 146/1/2 142/1/2 141/1/2
f 147/1/2 141/1/2 148/1/2 149/1/2
f 150/1/3 145/1/3 144/1/3 149/1/3
f 150/1/3 149/1/3 148/1/3
f 150/1/4 143/1/4 142/1/4 145/1/4
f 149/18/2 144/19/2 146/4/2 147/5/2
f 151/1/1 152/1/1 153/1/1
f 154/1/2 155/1/2 156/1/2 152/1/2
f 157/1/2 154/1/2 152/1/2 158/1/2
f 158/1/2 152/1/2 151/1/2 159/1/2
f 159/1/2 151/1/2 155/1/2 154/1/2
f 155/1/3 160/1/3 156/1/3
f 160/1/4 153/1/4 152/1/4 156/1/4
f 159/2/2 154/3/2 157/4/2 158/5/2
f 161/20/7 162/21/7 163/22/7 164/23/7
f 161/24/4 164/25/4 165/26/4 166/27/4
f 165/28/1 164/29/1 163/30/1 167/31/1
f 163/32/8 162/33/8 168/34/8 167/35/8
f 161/36/3 166/37/3 168/38/3 162/39/3
f 168/40/9 166/1/9 165/41/9 167/42/9
f 166/1/9 169/1/9 170/1/9 171/1/9
f 165/1/9 166/1/9 171/1/9 167/1/9
f 167/1/9 171/1/9 172/1/9 168/1/9
f 168/1/9 172/1/9 169/1/9 166/1/9
f 173/1/4 174/1/4 171/1/4 170/1/4
f 171/1/1 174/1/1 175/1/1 172/1/1
f 175/1/8 176/1/8 169/1/8 172/1/8
f 173/1/3 170/1/3 169/1/3 176/1/3
f 162/1/7 173/1/7 176/1/7 175/1/7
f 163/1/7 162/1/7 175/1/7 164/1/7
f 164/1/7 175/1/7 174/1/7 161/1/7
f 161/1/7 174/1/7 173/1/7 162/1/7
f 177/20/7 178/21/7 179/22/7 180/23/7
f 177/24/4 180/25/4 181/26/4 182/27/4
f 181/28/1 180/29/1 179/30/1 183/31/1
f 179/32/8 178/33/8 184/34/8 183/35/8
f 177/36/3 182/37/3 184/38/3 178/39/3
f 184/40/9 182/1/9 181/41/9 183/42/9
f 182/1/9 185/1/9 186/1/9 187/1/9
f 181/1/9 182/1/9 187/1/9 183/1/9
f 183/1/9 187/1/9 188/1/9 184/1/9
f 184/1/9 188/1/9 185/1/9 182/1/9
f 189/1/4 190/1/4 187/1/4 186/1/4
f 187/1/1 190/1/1 191/1/1 188/1/1
f 191/1/8 192/1/8 185/1/8 188/1/8
f 189/1/3 186/1/3 185/1/3 192/1/3
f 178/1/7 189/1/7 192/1/7 191/1/7
f 179/1/7 178/1/7 191/1/7 180/1/7
f 180/1/7 191/1/7 190/1/7 177/1/7
f 177/1/7 190/1/7 189/1/7 178/1/7
f 193/20/7 194/21/7 195/22/7 196/23/7
f 193/24/4 196/25/4 197/26/4 198/27/4
f 197/28/1 196/29/1 195/30/1 199/31/1
f 195/32/8 194/33/8 200/34/8 199/35/8
f 193/36/3 198/37/3 200/38/3 194/39/3
f 200/40/9 198/1/9 197/41/9 199/42/9
f 198/1/9 201/1/9 202/1/9 203/1/9
f 197/1/9 198/1/9 203/1/9 199/1/9
f 199/1/9 203/1/9 204/1/9 200/1/9
f 200/1/9 204/1/9 201/1/9 198/1/9
f 205/1/4 206/1/4 203/1/4 202/1/4
f 203/1/1 206/1/1 207/1/1 204/1/1
f 207/1/8 208/1/8 201/1/8 204/1/8
f 205/1/3 202/1/3 201/1/3 208/1/3
f 194/1/7 205/1/7 208/1/7 207/1/7
f 195/1/7 194/1/7 207/1/7 196/1/7
f 196/1/7 207/1/7 206/1/7 193/1/7
f 193/1/7 206/1/7 205/1/7 194/1/7
f 209/20/7 210/21/7 211/22/7 212/23/7
f 209/24/4 212/25/4 213/26/4 214/27/4
f 213/28/1 212/29/1 211/30/1 215/31/1
f 211/32/8 210/33/8 216/34/8 215/35/8
f 209/36/3 214/37/3 216/38/3 210/39/3
f 216/40/9 214/1/9 213/41/9 215/42/9
f 214/1/9 217/1/9 218/1/9 219/1/9
f 213/1/9 214/1/9 219/1/9 215/1/9
f 215/1/9 219/1/9 220/1/9 216/1/9
f 216/1/9 220/1/9 217/1/9 214/1/9
f 221/1/4 222/1/4 219/1/4 218/1/4
f 219/1/1 222/1/1 223/1/1 220/1/1
f 223/1/8 224/1/8 217/1/8 220/1/8
f 221/1/3 218/1/3 217/1/3 224/1/3
f 210/1/7 221/1/7 224/1/7 223/1/7
f 211/1/7 210/1/7 223/1/7 212/1/7
f 212/1/7 223/1/7 222/1/7 209/1/7
f 209/1/7 222/1/7 221/1/7 210/1/7
f 225/20/7 226/21/7 227/22/7 228/23/7
f 225/24/4 228/25/4 229/26/4 230/27/4
f 229/28/1 228/29/1 227/30/1 231/31/1
f 227/32/8 226/33/8 232/34/8 231/35/8
f 225/36/3 230/37/3 232/38/3 226/39/3
f 232/40/9 230/1/9 229/41/9 231/42/9
f 230/1/9 233/1/9 234/1/9 235/1/9
f 229/1/9 230/1/9 235/1/9 231/1/9
f 231/1/9 235/1/9 236/1/9 232/1/9
f 232/1/9 236/1/9 233/1/9 230/1/9
f 237/1/4 238/1/4 235/1/4 234/1/4
f 235/1/1 238/1/1 239/1/1 236/1/1
f 239/1/8 240/1/8 233/1/8 236/1/8
f 237/1/3 234/1/3 233/1/3 240/1/3
f 226/1/7 237/1/7 240/1/7 239/1/7
f 227/1/7 226/1/7 239/1/7 228/1/7
f 228/1/7 239/1/7 238/1/7 225/1/7
f 225/1/7 238/1/7 237/1/7 226/1/7
f 241/20/7 242/21/7 243/22/7 244/23/7
f 241/24/4 244/25/4 245/26/4 246/27/4
f 245/28/1 244/29/1 243/30/1 247/31/1
f 243/32/8 242/33/8 248/34/8 247/35/8
f 241/36/3 246/37/3 248/38/3 242/39/3
f 248/40/9 246/1/9 245/41/9 247/42/9
f 246/1/9 249/1/9 250/1/9 251/1/9
f 245/1/9 246/1/9 251/1/9 247/1/9
f 247/1/9 251/1/9 252/1/9 248/1/9
f 248/1/9 252/1/9 249/1/9 246/1/9
f 253/1/4 254/1/4 251/1/4 250/1/4
f 251/1/1 254/1/1 255/1/1 252/1/1
f 255/1/8 256/1/8 249/1/8 252/1/8
f 253/1/3 250/1/3 249/1/3 256/1/3
f 242/1/7 253/1/7 256/1/7 255/1/7
f 243/1/7 242/1/7 255/1/7 244/1/7
f 244/1/7 255/1/7 254/1/7 241/1/7
f 241/1/7 254/1/7 253/1/7 242/1/7
f 257/20/7 258/21/7 259/22/7 260/23/7
f 257/24/4 260/25/4 261/26/4 262/27/4
f 261/28/1 260/29/1 259/30/1 263/31/1
f 259/32/8 258/33/8 264/34/8 263/35/8
f 257/36/3 262/37/3 264/38/3 258/39/3
f 264/40/9 262/1/9 261/41/9 263/42/9
f 262/1/9 265/1/9 266/1/9 267/1/9
f 261/1/9 262/1/9 267/1/9 263/1/9
f 263/1/9 267/1/9 268/1/9 264/1/9
f 264/1/9 268/1/9 265/1/9 262/1/9
f 269/1/4 270/1/4 267/1/4 266/1/4
f 267/1/1 270/1/1 271/1/1 268/1/1
f 271/1/8 272/1/8 265/1/8 268/1/8
f 269/1/3 266/1/3 265/1/3 272/1/3
f 258/1/7 269/1/7 272/1/7 271/1/7
f 259/1/7 258/1/7 271/1/7 260/1/7
f 260/1/7 271/1/7 270/1/7 257/1/7
f 257/1/7 270/1/7 269/1/7 258/1/7
f 273/20/7 274/21/7 275/22/7 276/23/7
f 273/24/4 276/25/4 277/26/4 278/27/4
f 277/28/1 276/29/1 275/30/1 279/31/1
f 275/32/8 274/33/8 280/34/8 279/35/8
f 273/36/3 278/37/3 280/38/3 274/39/3
f 280/40/9 278/1/9 277/41/9 279/42/9
f 278/1/9 281/1/9 282/1/9 283/1/9
f 277/1/9 278/1/9 283/1/9 279/1/9
f 279/1/9 283/1/9 284/1/9 280/1/9
f 280/1/9 284/1/9 281/1/9 278/1/9
f 285/1/4 286/1/4 283/1/4 282/1/4
f 283/1/1 286/1/1 287/1/1 284/1/1
f 287/1/8 288/1/8 281/1/8 284/1/8
f 285/1/3 282/1/3 281/1/3 288/1/3
f 274/1/7 285/1/7 288/1/7 287/1/7
f 275/1/7 274/1/7 287/1/7 276/1/7
f 276/1/7 287/1/7 286/1/7 273/1/7
f 273/1/7 286/1/7 285/1/7 274/1/7
f 289/20/7 290/21/7 291/22/7 292/23/7
f 289/24/4 292/25/4 293/26/4 294/27/4
f 293/28/1 292/29/1 291/30/1 295/31/1
f 291/32/8 290/33/8 296/34/8 295/35/8
f 289/36/3 294/37/3 296/38/3 290/39/3
f 296/40/9 294/1/9 293/41/9 295/42/9
f 294/1/9 297/1/9 298/1/9 299/1/9
f 293/1/9 294/1/9 299/1/9 295/1/9
f 295/1/9 299/1/9 300/1/9 296/1/9
f 296/1/9 300/1/9 297/1/9 294/1/9
f 301/1/4 302/1/4 299/1/4 298/1/4
f 299/1/1 302/1/1 303/1/1 300/1/1
f 303/1/8 304/1/8 297/1/8 300/1/8
f 301/1/3 298/1/3 297/1/3 304/1/3
f 290/1/7 301/1/7 304/1/7 303/1/7
f 291/1/7 290/1/7 303/1/7 292/1/7
f 292/1/7 303/1/7 302/1/7 289/1/7
f 289/1/7 302/1/7 301/1/7 290/1/7
f 305/20/7 306/21/7 307/22/7 308/23/7
f 305/24/4 308/25/4 309/26/4 310/27/4
f 309/28/1 308/29/1 307/30/1 311/31/1
f 307/32/8 306/33/8 312/34/8 311/35/8
f 305/36/3 310/37/3 312/38/3 306/39/3
f 312/40/9 310/1/9 309/41/9 311/42/9
f 310/1/9 313/1/9 314/1/9 315/1/9
f 309/1/9 310/1/9 315/1/9 311/1/9
f 311/1/9 315/1/9 316/1/9 312/1/9
f 312/1/9 316/1/9 313/1/9 310/1/9
f 317/1/4 318/1/4 315/1/4 314/1/4
f 315/1/1 318/1/1 319/1/1 316/1/1
f 319/1/8 320/1/8 313/1/8 316/1/8
f 317/1/3 314/1/3 313/1/3 320/1/3
f 306/1/7 317/1/7 320/1/7 319/1/7
f 307/1/7 306/1/7 319/1/7 308/1/7
f 308/1/7 319/1/7 318/1/7 305/1/7
f 305/1/7 318/1/7 317/1/7 306/1/7
f 321/1/9 322/1/9 323/1/9 324/1/9
f 325/1/9 326/1/9 327/1/9 328/1/9
f 329/1/9 330/1/9 331/1/9 332/1/9
f 329/1/9 332/1/9 333/1/9
f 334/1/9 335/1/9 336/1/9 337/1/9
f 338/1/9 339/1/9 340/1/9 341/1/9
f 342/1/9 343/1/9 344/1/9 345/1/9
f 346/1/9 347/1/9 348/1/9 349/1/9
f 346/1/9 349/1/9 350/1/9
f 348/1/9 347/1/9 351/1/9
f 352/1/9 353/1/9 354/1/9 355/1/9
f 356/43/8 357/44/8 358/45/8 359/46/8
f 360/47/4 361/48/4 362/49/4 363/50/4
f 364/51/8 365/52/8 366/53/8 367/54/8
f 368/55/1 355/56/1 352/57/1 369/58/1
s 0
f 369/58/1 352/57/1 370/59/1
s 1
f 371/60/4 372/61/4 373/62/4 374/63/4
f 375/64/8 376/65/8 377/66/8 378/67/8
f 379/68/8 380/69/8 381/70/8 382/71/8
f 383/72/4 384/73/4 385/74/4 386/75/4
f 387/76/1 388/77/1 383/78/1 386/79/1
f 389/80/8 388/81/8 387/82/8 390/83/8
f 389/84/3 390/85/3 385/86/3 384/87/3
f 391/1/10 392/1/10 393/1/11 394/1/11
f 395/1/12 396/1/12 392/1/10 391/1/10
f 397/1/13 398/1/13 396/1/12 395/1/12
f 399/1/14 400/1/14 398/1/13 397/1/13
f 401/1/15 402/1/15 400/1/14 399/1/14
f 403/1/16 404/1/16 402/1/15 401/1/15
f 405/1/17 406/1/17 404/1/16 403/1/16
f 405/1/17 407/1/18 408/1/18 406/1/17
f 407/1/18 409/1/19 410/1/19 408/1/18
f 409/1/19 411/1/20 412/1/20 410/1/19
f 411/1/20 413/1/21 414/1/21 412/1/20
f 415/1/22 416/1/22 358/1/23 357/1/23
f 394/1/11 393/1/11 416/1/22 415/1/22
f 417/1/24 418/1/20 419/1/20 420/1/24
f 421/1/25 422/1/25 423/1/26 424/1/26
f 425/1/27 417/1/24 420/1/24 426/1/27
f 427/1/28 425/1/27 426/1/27 428/1/28
f 429/1/29 430/1/29 431/1/30 432/1/30
f 433/1/31 364/1/32 367/1/32 434/1/31
f 424/1/26 423/1/26 435/1/33 436/1/33
f 418/1/20 433/1/31 434/1/31 419/1/20
f 437/1/23 438/1/23 362/1/23 361/1/23
f 439/1/34 440/1/34 441/1/35 442/1/35
f 443/1/36 444/1/37 445/1/37 446/1/36
f 447/1/38 448/1/38 440/1/34 439/1/34
f 365/1/39 443/1/36 446/1/36 366/1/39
f 449/1/40 450/1/40 451/1/41 452/1/41
f 452/1/41 451/1/41 453/1/42 454/1/42
f 455/1/43 448/1/38 447/1/38 456/1/43
f 454/1/42 453/1/42 457/1/44 458/1/44
f 444/1/37 455/1/43 456/1/43 445/1/37
f 442/1/35 441/1/35 422/1/25 421/1/25
f 458/1/44 457/1/44 459/1/45 460/1/45
f 461/1/46 462/1/46 360/1/47 363/1/47
f 460/1/45 459/1/45 463/1/48 464/1/48
f 432/1/30 431/1/30 462/1/46 461/1/46
f 363/1/9 358/1/9 416/1/9 461/1/9
f 461/1/9 416/1/9 393/1/9 392/1/9
f 432/1/9 461/1/9 392/1/9 396/1/9
f 429/1/9 432/1/9 396/1/9 436/1/9
f 436/1/9 396/1/9 398/1/9 424/1/9
f 424/1/9 398/1/9 400/1/9 421/1/9
f 421/1/9 400/1/9 402/1/9 442/1/9
f 442/1/9 402/1/9 404/1/9 439/1/9
f 439/1/9 404/1/9 406/1/9 447/1/9
f 447/1/9 406/1/9 408/1/9 456/1/9
f 456/1/9 408/1/9 410/1/9 445/1/9
f 445/1/9 410/1/9 412/1/9 446/1/9
f 446/1/9 412/1/9 414/1/9 366/1/9
f 367/1/9 366/1/9 414/1/9 465/1/9
f 367/1/9 465/1/9 466/1/9 434/1/9
f 434/1/9 466/1/9 467/1/9 419/1/9
f 419/1/9 467/1/9 468/1/9 420/1/9
f 420/1/9 468/1/9 469/1/9 426/1/9
f 426/1/9 469/1/9 470/1/9 428/1/9
f 428/1/9 470/1/9 471/1/9 450/1/9
f 450/1/9 471/1/9 472/1/9 451/1/9
f 451/1/9 472/1/9 473/1/9 453/1/9
f 453/1/9 473/1/9 474/1/9 457/1/9
f 457/1/9 474/1/9 475/1/9 459/1/9
f 459/1/9 475/1/9 476/1/9 477/1/9
f 463/1/9 459/1/9 477/1/9 438/1/9
f 438/1/9 477/1/9 359/1/9 362/1/9
f 363/1/9 362/1/9 359/1/9 358/1/9
f 464/1/48 463/1/48 438/1/49 437/1/49
f 436/1/33 435/1/33 430/1/29 429/1/29
f 427/1/28 428/1/28 450/1/40 449/1/40
f 413/1/4 478/1/4 465/1/4 414/1/4
f 478/1/50 479/1/51 466/1/51 465/1/50
f 479/1/51 480/1/36 467/1/36 466/1/51
f 480/1/36 481/1/52 468/1/52 467/1/36
f 481/1/52 482/1/53 469/1/53 468/1/52
f 482/1/53 483/1/54 470/1/54 469/1/53
f 470/1/54 483/1/54 484/1/55 471/1/55
f 471/1/55 484/1/55 485/1/56 472/1/56
f 472/1/56 485/1/56 486/1/57 473/1/57
f 473/1/57 486/1/57 487/1/58 474/1/58
f 474/1/58 487/1/58 488/1/59 475/1/59
f 475/1/59 488/1/59 489/1/60 476/1/60
f 476/1/60 489/1/60 490/1/61 477/1/61
f 477/1/47 490/1/47 356/1/47 359/1/47
f 491/1/62 492/1/62 493/1/63 494/1/63
f 494/1/63 493/1/63 495/1/64 496/1/64
f 496/1/64 495/1/64 497/1/65 498/1/65
f 498/1/65 497/1/65 499/1/66 500/1/66
f 501/1/67 500/1/66 499/1/66 502/1/67
f 503/1/68 504/1/68 501/1/69 502/1/69
f 505/1/70 504/1/68 503/1/68 506/1/70
f 507/1/71 505/1/70 506/1/70 508/1/71
f 509/1/72 507/1/71 508/1/71 510/1/72
f 511/1/73 509/1/72 510/1/72 512/1/73
f 513/1/74 514/1/74 511/1/73 512/1/73
f 515/1/75 516/1/75 517/1/75 518/1/75
f 518/1/76 517/1/76 492/1/62 491/1/62
f 361/88/9 360/89/9 462/90/9 431/91/9
f 361/88/9 431/91/9 430/92/9 435/93/9
f 361/88/9 435/93/9 423/94/9 422/95/9
f 361/88/9 422/95/9 441/96/9 440/97/9
f 361/88/9 440/97/9 448/98/9 437/99/9
f 464/100/9 437/99/9 448/98/9 455/101/9
f 460/102/9 464/100/9 455/101/9 458/103/9
f 454/104/9 458/103/9 455/101/9 444/105/9
f 452/106/9 454/104/9 444/105/9 449/107/9
f 449/107/9 444/105/9 443/108/9 427/109/9
f 427/109/9 443/108/9 365/110/9 425/111/9
f 417/112/9 425/111/9 365/110/9 418/113/9
f 433/114/9 418/113/9 365/110/9 364/115/9
f 519/116/9 520/117/9 376/118/9 375/119/9
f 372/120/9 371/121/9 521/122/9 522/123/9
f 384/124/9 383/125/9 388/126/9 389/127/9
f 523/128/4 353/129/4 524/130/4 525/131/4
f 352/132/8 353/133/8 524/134/8 370/135/8
f 352/136/4 526/137/4 527/138/4 370/139/4
f 528/140/3 529/141/3 527/142/3 526/143/3
f 530/144/1 531/145/1 523/146/1 525/147/1
f 532/148/3 533/149/3 534/150/3 535/151/3
f 536/152/4 535/153/4 534/154/4 537/155/4
f 538/156/8 531/157/8 530/158/8 539/159/8
f 528/160/8 540/161/8 541/162/8 529/163/8
f 355/164/9 354/165/9 380/166/9 379/167/9
f 355/164/9 379/167/9 542/116/9 543/123/9
f 355/164/9 543/123/9 357/168/9 526/169/9
f 355/164/9 526/169/9 352/170/9
f 526/169/9 357/168/9 356/171/9 330/172/9
f 330/172/9 356/171/9 490/173/9 489/174/9
f 330/172/9 489/174/9 488/175/9 487/176/9
f 330/172/9 487/176/9 486/177/9 351/178/9
f 351/178/9 486/177/9 485/179/9 484/180/9
f 348/181/9 351/178/9 484/180/9 349/182/9
f 349/182/9 484/180/9 483/183/9 482/184/9
f 350/185/9 349/182/9 482/184/9 481/186/9
f 350/185/9 481/186/9 480/187/9 479/188/9
f 350/185/9 479/188/9 336/189/9 335/190/9
f 346/191/9 350/185/9 335/190/9 331/192/9
f 346/191/9 331/192/9 330/172/9 347/193/9
f 330/172/9 351/178/9 347/193/9
f 331/192/9 335/190/9 334/194/9 332/195/9
f 332/195/9 334/194/9 337/196/9 326/197/9
f 332/195/9 326/197/9 325/198/9 528/199/9
f 333/200/9 332/195/9 528/199/9 526/169/9
f 329/201/9 333/200/9 526/169/9 330/172/9
f 528/199/9 325/198/9 328/202/9 321/203/9
f 322/204/9 321/203/9 328/202/9 341/205/9
f 338/206/9 341/205/9 328/202/9 327/207/9
f 339/208/9 338/206/9 327/207/9 544/209/9
f 345/210/9 544/209/9 327/207/9 326/197/9
f 345/210/9 326/197/9 337/196/9 342/211/9
f 342/211/9 337/196/9 336/189/9 343/212/9
f 343/212/9 336/189/9 479/188/9 478/213/9
f 344/214/9 343/212/9 478/213/9 544/209/9
f 544/209/9 478/213/9 413/215/9 538/216/9
f 538/216/9 413/215/9 411/217/9 409/218/9
f 538/216/9 409/218/9 407/219/9 405/220/9
f 538/216/9 405/220/9 403/221/9 401/222/9
f 538/216/9 401/222/9 399/223/9 397/224/9
f 538/216/9 397/224/9 395/225/9 543/123/9
f 531/226/9 538/216/9 543/123/9 545/122/9
f 531/226/9 545/122/9 546/117/9 380/166/9
f 523/227/9 531/226/9 380/166/9 353/228/9
f 353/228/9 380/166/9 354/165/9
f 543/123/9 395/225/9 391/229/9 394/230/9
f 543/123/9 394/230/9 415/231/9 357/168/9
f 344/214/9 544/209/9 345/210/9
f 339/208/9 544/209/9 540/232/9 340/233/9
f 340/233/9 540/232/9 528/199/9 341/205/9
f 323/234/9 341/205/9 528/199/9 324/235/9
f 528/199/9 321/203/9 324/235/9
f 341/205/9 323/234/9 322/204/9
f 540/161/8 544/236/8 547/237/8 541/162/8
f 544/236/8 538/156/8 539/159/8 547/237/8
f 525/227/9 548/238/9 549/239/9 530/226/9
f 530/226/9 549/239/9 550/240/9 539/216/9
f 551/241/9 548/238/9 525/227/9 524/228/9
f 551/241/9 524/228/9 370/170/9 527/169/9
f 551/241/9 527/169/9 529/199/9 552/242/9
f 553/243/9 552/242/9 529/199/9 554/244/9
f 555/245/9 554/244/9 529/199/9 541/232/9
f 556/246/9 557/247/9 520/248/9 519/249/9
f 558/250/1 559/251/1 560/252/1 556/246/1
f 382/253/1 558/250/1 556/246/1 519/249/1
f 379/254/1 382/253/1 519/249/1 542/255/1
f 560/256/8 561/257/8 557/247/8 556/246/8
f 562/258/4 559/259/4 558/260/4 563/261/4
f 381/262/7 563/261/7 558/260/7 382/263/7
f 564/1/3 371/1/3 565/1/3 566/1/3
f 567/1/1 568/1/1 569/1/1 375/1/1
f 386/1/9 377/1/9 374/1/9 387/1/9
f 387/1/9 374/1/9 373/1/9 390/1/9
f 390/1/9 373/1/9 378/1/9 385/1/9
f 386/1/9 385/1/9 378/1/9 377/1/9
f 570/1/1 571/1/1 568/1/1 567/1/1
f 572/1/3 545/1/3 521/1/3 371/1/3
f 572/1/3 371/1/3 564/1/3
f 545/1/3 572/1/3 573/1/3 546/1/3
f 546/1/3 573/1/3 574/1/3 520/1/3
f 520/1/3 574/1/3 575/1/3 576/1/3
f 376/1/3 520/1/3 576/1/3 577/1/3
f 577/1/3 576/1/3 566/1/3 565/1/3
f 377/1/3 376/1/3 577/1/3 578/1/3
f 377/1/3 578/1/3 579/1/3 374/1/3
f 371/1/3 374/1/3 579/1/3 565/1/3
f 580/1/1 522/1/1 543/1/77 542/1/1
f 581/1/1 580/1/1 542/1/1 582/1/1
f 582/1/1 542/1/1 519/1/1 375/1/1
f 582/1/1 375/1/1 569/1/1
f 522/1/1 580/1/1 583/1/1 372/1/1
f 372/1/1 583/1/1 571/1/1 373/1/1
f 584/1/1 373/1/1 571/1/1 570/1/1
f 378/1/1 373/1/1 584/1/1 585/1/1
f 375/1/1 378/1/1 585/1/1 567/1/1
f 586/1/9 587/1/9 588/1/9 589/1/9
f 590/1/9 586/1/9 589/1/9 591/1/9
f 592/1/9 591/1/9 589/1/9 593/1/9
f 593/1/9 589/1/9 594/1/9 595/1/9
f 596/1/9 595/1/9 594/1/9 513/1/9
f 597/1/9 596/1/9 513/1/9 598/1/9
f 598/1/9 513/1/9 512/1/9 599/1/9
f 600/1/9 599/1/9 512/1/9 510/1/9
f 601/1/9 600/1/9 510/1/9 508/1/9
f 602/1/9 601/1/9 508/1/9 603/1/9
f 603/1/9 508/1/9 506/1/9 604/1/9
f 604/1/9 506/1/9 503/1/9 605/1/9
f 605/1/9 503/1/9 502/1/9 606/1/9
f 607/1/9 606/1/9 502/1/9 499/1/9
f 608/1/9 607/1/9 499/1/9 497/1/9
f 587/1/9 608/1/9 497/1/9 517/1/9
f 492/1/9 517/1/9 497/1/9 495/1/9
f 492/1/9 495/1/9 493/1/9
f 587/1/9 517/1/9 588/1/9
f 609/1/69 610/1/69 611/1/69 612/1/69
f 613/1/67 609/1/67 612/1/67 614/1/67
f 613/1/78 614/1/78 615/1/78 616/1/78
f 616/1/79 615/1/79 617/1/79 618/1/79
f 618/1/80 617/1/80 619/1/80 620/1/80
f 621/1/81 622/1/81 623/1/81 624/1/81
f 610/1/82 621/1/82 624/1/82 611/1/82
f 608/1/9 587/1/9 586/1/9 607/1/9
f 607/1/9 586/1/9 590/1/9 606/1/9
f 606/1/9 590/1/9 591/1/9 592/1/9
f 606/1/9 592/1/9 595/1/9 605/1/9
f 605/1/9 595/1/9 596/1/9 604/1/9
f 603/1/9 604/1/9 596/1/9 602/1/9
f 601/1/9 602/1/9 596/1/9 600/1/9
f 599/1/9 600/1/9 596/1/9 597/1/9
f 625/1/9 626/1/9 627/1/9 628/1/9
f 628/1/9 627/1/9 629/1/9 630/1/9
f 630/1/9 629/1/9 631/1/9 623/1/9
f 623/1/9 631/1/9 632/1/9 624/1/9
f 611/1/9 624/1/9 632/1/9 633/1/9
f 612/1/9 611/1/9 633/1/9 634/1/9
f 614/1/9 612/1/9 634/1/9 635/1/9
f 615/1/9 614/1/9 635/1/9 636/1/9
f 617/1/9 615/1/9 636/1/9 637/1/9
f 619/1/9 617/1/9 637/1/9 638/1/9
f 638/1/9 637/1/9 639/1/9
f 640/1/9 619/1/9 638/1/9 641/1/9
f 642/1/9 640/1/9 641/1/9 625/1/9
f 625/1/9 641/1/9 626/1/9
f 545/264/4 543/265/4 522/266/4 521/267/4
f 565/268/3 579/269/3 578/270/3 577/271/3
f 573/272/3 572/273/3 564/274/3 574/275/3
f 574/275/3 564/274/3 566/276/3 576/277/3
f 574/275/3 576/277/3 575/278/3
f 583/279/1 580/280/1 581/281/1 571/282/1
f 568/283/1 571/282/1 581/281/1 569/284/1
f 569/284/1 581/281/1 582/285/1
f 584/286/1 570/287/1 567/288/1 585/289/1
f 370/290/8 524/291/8 643/292/8 369/293/8
f 550/294/9 644/295/9 645/296/9 539/297/9
f 547/298/9 539/297/9 645/296/9 555/299/9
f 547/298/9 555/299/9 541/300/9
f 646/301/3 647/302/3 548/303/3
f 648/304/4 649/305/4 650/306/4 651/307/4
f 651/308/4 650/309/4 652/310/4 653/311/4
f 650/312/9 651/313/9 654/314/9 655/315/9
f 650/312/9 655/315/9 656/316/9 657/317/9
f 650/312/9 657/317/9 658/318/9 659/319/9
f 660/320/83 647/321/83 661/322/83 662/323/83
f 663/324/83 662/323/83 661/322/83 664/324/83
f 665/325/83 664/324/83 661/322/83 666/325/83
f 667/326/83 666/325/83 661/322/83 668/327/83
f 666/325/83 667/326/83 669/328/83
f 670/329/7 661/330/7 647/331/7 671/332/7
f 661/330/7 670/329/7 672/333/7
f 667/334/4 668/335/4 657/336/4 656/337/4
f 673/338/4 674/339/4 675/340/4 676/341/4
f 553/342/4 676/341/4 675/340/4 677/343/4
f 553/342/4 677/343/4 552/344/4
f 656/337/1 667/334/1 678/334/1 655/337/1
f 655/337/9 654/307/9 679/307/9 656/337/9
f 660/345/4 662/346/4 644/347/4 549/348/4
f 549/348/84 644/347/85 550/349/4
f 676/350/3 553/351/3 554/351/3 680/350/3
f 676/350/1 656/337/1 655/337/1 680/350/1
f 681/352/1 654/353/1 651/354/1 653/355/1
f 654/356/4 655/357/4 680/358/4 682/359/4
f 683/359/4 682/359/4 680/358/4 641/360/4
f 626/361/4 641/360/4 680/358/4 684/362/4
f 685/363/4 626/361/4 684/362/4 686/364/4
f 684/362/4 680/358/4 554/365/4 645/366/4
f 645/366/4 554/365/4 555/367/85
f 654/356/4 682/359/4 687/368/4 688/369/4
f 654/370/1 688/371/1 648/372/1 651/373/1
f 689/374/86 690/375/87 691/376/87 692/377/88
f 689/374/86 692/377/88 693/378/88
s 0
f 692/377/88 691/376/89 634/379/86
s 1
f 694/380/90 693/378/88 692/377/88 695/381/91
f 694/380/90 695/381/91 696/382/92
f 695/381/91 692/377/88 633/383/90
f 697/384/93 696/382/92 695/381/91 698/385/94
f 697/384/93 698/385/94 699/386/94
f 698/385/94 695/381/91 632/387/93
f 700/388/95 699/386/94 698/385/94 701/389/96
f 700/388/95 701/389/96 702/390/96
f 701/389/96 698/385/94 631/391/95
f 703/392/97 702/390/96 701/389/96 704/393/98
f 703/392/97 704/393/98 705/392/98
f 704/393/98 701/389/96 629/393/97
f 706/394/99 705/392/98 704/393/98 707/395/99
f 706/394/99 707/395/99 708/394/99
f 707/395/99 704/393/98 627/395/99
f 688/396/4 678/397/4 655/398/4 654/399/4
f 669/400/3 679/401/3 654/401/3 688/400/3
f 709/402/100 710/403/100 711/403/100 683/402/100
f 709/403/101 683/403/101 682/403/101
f 688/401/9 687/404/9 710/404/9 712/404/9
f 688/401/9 712/404/9 666/404/9 669/401/9
f 710/403/102 687/403/102 711/403/102
f 711/403/4 687/403/4 682/402/4 683/402/4
f 710/403/103 709/402/103 682/402/103 687/403/103
f 713/405/104 712/403/104 710/403/100 709/402/100
f 641/405/100 713/405/104 709/402/100 683/402/100
f 714/406/105 715/407/105 716/407/106 638/406/106
f 638/406/107 716/407/107 666/403/107 713/405/104
f 713/405/104 666/403/107 712/403/104
f 717/408/108 718/409/108 719/409/109 639/408/109
f 639/408/109 719/409/109 715/407/105 714/406/105
f 720/410/110 721/411/110 722/412/111 637/413/111
f 637/413/112 722/412/112 718/409/108 717/408/108
f 723/414/113 724/415/113 725/416/114 636/417/114
f 636/417/114 725/416/114 721/411/110 720/410/110
f 691/376/87 690/375/87 726/418/115 635/419/115
f 635/419/116 726/418/116 724/415/113 723/414/113
f 727/420/9 728/421/9 729/422/9 730/423/9
f 727/420/9 730/423/9 622/424/9 621/425/9
f 727/420/9 621/425/9 610/426/9 609/379/9
f 727/420/9 609/379/9 613/376/9 616/427/9
f 731/428/9 727/420/9 616/427/9 618/429/9
f 731/428/9 618/429/9 620/430/9
f 732/431/9 733/432/9 734/433/9 735/434/9
f 735/434/9 734/433/9 514/435/9 736/436/9
f 736/436/9 514/435/9 737/437/9
f 738/438/3 594/301/3 513/439/3 514/440/3
f 739/441/117 736/442/117 737/443/117 597/444/117
f 597/444/117 737/443/117 598/445/117
f 740/446/118 735/447/118 736/448/118 739/449/118
f 732/440/119 735/450/119 740/451/119 741/452/119
f 734/453/8 733/454/8 589/455/8 738/456/8
f 738/456/8 589/455/8 594/457/8
f 738/458/9 514/435/9 734/433/9
f 588/459/9 517/459/9 742/432/9 589/432/9
f 742/432/9 517/459/9 516/432/9
f 595/431/9 592/460/9 593/431/9
f 703/461/7 705/462/7 706/463/7
f 697/464/7 699/465/7 700/466/7
f 719/467/7 716/468/7 715/469/7
f 689/470/7 693/471/7 694/472/7
f 718/473/7 722/474/7 719/467/7
f 694/472/7 696/475/7 697/464/7
f 722/474/7 721/476/7 725/477/7
f 716/468/7 665/478/7 666/478/7
f 706/463/7 664/479/7 665/478/7 703/461/7
f 700/466/7 703/461/7 665/478/7 697/464/7
f 694/472/7 697/464/7 665/478/7 689/470/7
f 726/480/7 689/470/7 665/478/7 725/477/7
f 725/477/7 665/478/7 716/468/7 722/474/7
f 722/474/7 716/468/7 719/467/7
f 700/466/7 702/481/7 703/461/7
f 726/480/7 690/482/7 689/470/7
f 725/477/7 724/483/7 726/480/7
f 708/484/7 663/479/7 664/479/7 706/463/7
f 660/485/3 549/486/3 548/487/3 647/488/3
f 657/489/1 668/490/1 661/491/1 658/492/1
f 743/493/1 675/494/1 674/495/1 744/496/1
f 745/497/1 743/493/1 744/496/1 746/498/1
f 746/498/1 744/496/1 551/499/1 747/500/1
f 748/501/1 747/500/1 551/499/1 677/502/1
f 677/502/1 551/499/1 552/503/1
f 743/493/1 747/500/1 748/501/1 749/504/1
f 675/494/1 743/493/1 749/504/1
f 652/505/7 750/506/7 744/507/7 674/508/7
f 652/505/7 674/508/7 673/509/7
f 652/510/1 650/511/1 659/512/1 751/513/1
f 750/514/1 652/510/1 751/513/1 752/515/120
f 750/514/1 751/513/1 752/513/1
f 753/516/121 754/517/121 755/518/121 756/519/121
f 757/520/121 756/519/121 755/518/121 758/521/121
f 757/522/75 758/523/75 750/524/75 751/515/75
f 659/525/120 756/526/75 757/522/75 751/515/75
f 753/527/75 756/526/75 659/525/120 759/528/75
f 759/528/75 659/525/120 760/525/122
f 759/529/9 761/530/9 754/531/9 753/532/9
f 593/533/118 741/534/118 762/535/118 592/536/118
f 741/537/119 740/538/119 596/539/119 593/540/119
f 593/540/119 596/539/119 595/540/119
f 596/541/118 740/542/118 739/543/118 597/544/118
f 739/545/123 597/546/123 599/546/123 763/547/124
f 763/547/124 599/546/123 600/524/124
f 764/548/125 763/549/124 600/550/124 601/551/125
f 765/552/126 764/553/125 601/554/125 602/555/126
f 766/556/127 765/557/126 602/558/126 603/559/127
f 767/560/128 766/561/127 603/562/127 604/563/128
f 768/564/129 767/565/128 604/566/128 605/567/129
f 769/568/130 768/569/131 605/570/131 606/571/130
f 607/572/132 770/573/132 769/574/130 606/575/130
f 608/576/133 771/577/133 770/578/132 607/579/132
f 587/580/134 772/581/134 771/582/133 608/583/133
f 586/584/135 773/585/135 772/586/134 587/587/134
f 592/588/136 762/589/136 773/590/135 591/588/136
f 590/588/136 591/588/136 773/590/135 586/591/135
f 755/592/7 774/593/7 750/594/7 758/595/7
f 755/596/118 754/597/118 761/598/118 774/599/118
f 775/600/121 776/601/121 777/602/121 778/603/121
f 779/604/121 780/605/121 589/606/121 781/607/121
f 779/604/121 781/607/121 782/608/121
f 659/525/120 751/515/103 752/515/103 760/525/122
f 661/609/121 672/610/121 761/517/121 759/611/121
f 658/525/121 661/609/121 759/611/121 760/612/121
f 658/525/121 760/612/121 752/613/121 783/515/121
f 784/614/7 733/615/7 734/614/7
f 671/616/121 785/617/121 784/618/121 780/619/121
f 761/620/121 671/616/121 780/619/121 774/621/121
f 774/621/121 780/619/121 779/622/121 786/623/121
f 670/624/121 671/616/121 761/620/121 672/625/121
f 786/626/121 779/627/121 782/628/121 775/600/121
f 786/626/121 775/600/121 551/629/121 744/524/121
f 786/626/121 744/524/121 750/630/121 774/518/121
f 551/629/121 775/600/121 778/603/121 548/631/121
f 548/631/121 778/603/121 777/602/121 776/601/121
f 548/631/121 776/601/121 782/628/121 781/632/121
f 646/633/121 548/631/121 781/632/121 589/634/121
f 646/633/121 589/634/121 742/634/137 516/634/121
f 646/633/121 516/634/121 787/635/121 788/636/121
f 646/633/121 788/636/121 789/637/121 790/638/121
f 790/638/121 789/637/121 791/639/121 515/640/121
f 516/634/121 515/640/121 791/639/121 787/635/121
f 775/600/121 782/628/121 776/601/121
f 747/641/1 743/642/1 745/643/1 746/644/1
f 677/645/1 675/646/1 749/647/1 748/648/1
f 791/649/121 789/650/121 788/651/121 787/652/121
f 511/653/7 514/654/7 737/655/7 509/656/7
f 507/657/7 509/656/7 737/655/7 736/655/7
f 507/657/7 736/655/7 735/658/7 505/659/7
f 504/660/7 505/659/7 735/658/7 732/661/7
f 501/662/7 504/660/7 732/661/7 733/615/7
f 501/662/7 733/615/7 515/615/7 500/663/7
f 500/663/7 515/615/7 518/664/7 498/665/7
f 498/665/7 518/664/7 491/666/7 496/667/7
f 496/667/7 491/666/7 494/668/7
f 771/1/9 772/1/9 773/1/9 770/1/9
f 770/1/9 773/1/9 762/1/9 769/1/9
f 769/1/9 762/1/9 741/1/9 768/1/9
f 768/1/9 741/1/9 740/1/9 767/1/9
f 766/1/9 767/1/9 740/1/9 765/1/9
f 764/1/9 765/1/9 740/1/9 763/1/9
f 763/1/9 740/1/9 739/1/9
f 627/1/9 626/1/9 707/1/9
f 716/1/76 638/1/76 641/1/76 665/1/76
f 792/1/76 665/1/76 641/1/76 711/1/76
s 0
f 711/1/76 641/1/76 683/1/76
s 1
f 703/1/138 706/1/138 627/1/138 629/1/138
f 627/1/74 706/1/74 664/1/74 626/1/74
f 626/1/74 664/1/74 685/1/74
f 685/1/4 711/1/4 683/1/4 626/1/4
f 626/1/4 683/1/4 641/1/4
f 711/1/9 685/1/9 664/1/9 665/1/9
f 711/1/9 665/1/9 792/1/9
f 689/1/69 694/1/69 633/1/69 634/1/69
f 694/1/82 697/1/82 632/1/82 633/1/82
f 697/1/81 700/1/81 631/1/81 632/1/81
f 722/1/80 637/1/80 639/1/80 719/1/80
f 700/1/139 703/1/139 629/1/139 631/1/139
f 719/1/140 639/1/140 638/1/140 716/1/140
f 725/1/79 636/1/79 637/1/79 722/1/79
f 726/1/78 635/1/78 636/1/78 725/1/78
f 717/1/9 639/1/9 637/1/9
f 637/1/9 636/1/9 720/1/9
f 639/1/9 714/1/9 638/1/9
f 636/1/9 635/1/9 723/1/9
f 638/1/9 713/1/9 641/1/9
f 635/1/9 634/1/9 691/1/9
f 634/1/141 633/1/141 692/1/141
f 633/1/9 632/1/9 695/1/9
f 632/1/9 631/1/9 698/1/9
f 631/1/9 629/1/9 701/1/9
f 629/1/9 627/1/9 704/1/9
f 726/1/67 689/1/67 634/1/67 635/1/67
f 595/1/142 593/1/142 780/1/142 596/1/142
f 597/1/143 596/1/143 780/1/143
f 620/1/140 619/1/140 640/1/140 731/1/140
f 728/1/4 727/1/4 642/1/4 625/1/4
f 628/1/74 729/1/74 728/1/74 625/1/74
f 730/1/138 729/1/138 628/1/138 630/1/138
f 622/1/139 730/1/139 630/1/139 623/1/139
f 731/1/76 640/1/76 642/1/76 727/1/76
f 597/1/9 598/1/9 599/1/9
