# Blender 5.2.2 LTS
# www.blender.org
mtllib ARoS_Rainbow.mtl
o Ring
v 0.022801 -2.000000 -20.248325
v -0.022801 -2.000000 -20.248325
v -0.022801 2.000000 -20.248325
v 0.022801 2.000000 -20.248325
v 2.665543 -2.000000 -20.072124
v 2.620332 -2.000000 -20.078077
v 2.620332 2.000000 -20.078077
v 2.665543 2.000000 -20.072124
v 5.262674 -2.000000 -19.552481
v 5.218627 -2.000000 -19.564283
v 5.218627 2.000000 -19.564283
v 5.262674 2.000000 -19.552481
v 7.769763 -2.000000 -18.698286
v 7.727633 -2.000000 -18.715738
v 7.727633 2.000000 -18.715738
v 7.769763 2.000000 -18.698286
v 10.143909 -2.000000 -17.524162
v 10.104417 -2.000000 -17.546965
v 10.104417 2.000000 -17.546965
v 10.143909 2.000000 -17.524162
v 12.344489 -2.000000 -16.050196
v 12.308311 -2.000000 -16.077957
v 12.308311 2.000000 -16.077957
v 12.344489 2.000000 -16.050196
v 14.333851 -2.000000 -14.301605
v 14.301605 -2.000000 -14.333851
v 14.301605 2.000000 -14.333851
v 14.333851 2.000000 -14.301605
v 16.077957 -2.000000 -12.308311
v 16.050196 -2.000000 -12.344489
v 16.050196 2.000000 -12.344489
v 16.077957 2.000000 -12.308311
v 17.546965 -2.000000 -10.104417
v 17.524162 -2.000000 -10.143909
v 17.524162 2.000000 -10.143909
v 17.546965 2.000000 -10.104417
v 18.715738 -2.000000 -7.727633
v 18.698286 -2.000000 -7.769763
v 18.698286 2.000000 -7.769763
v 18.715738 2.000000 -7.727633
v 19.564283 -2.000000 -5.218627
v 19.552481 -2.000000 -5.262675
v 19.552481 2.000000 -5.262675
v 19.564283 2.000000 -5.218627
v 20.078077 -2.000000 -2.620332
v 20.072124 -2.000000 -2.665543
v 20.072124 2.000000 -2.665543
v 20.078077 2.000000 -2.620332
v 20.248325 -2.000000 0.022801
v 20.248325 -2.000000 -0.022801
v 20.248325 2.000000 -0.022801
v 20.248325 2.000000 0.022801
v 20.072124 -2.000000 2.665543
v 20.078077 -2.000000 2.620332
v 20.078077 2.000000 2.620332
v 20.072124 2.000000 2.665543
v 19.552481 -2.000000 5.262674
v 19.564283 -2.000000 5.218627
v 19.564283 2.000000 5.218627
v 19.552481 2.000000 5.262674
v 18.698286 -2.000000 7.769763
v 18.715738 -2.000000 7.727633
v 18.715738 2.000000 7.727633
v 18.698286 2.000000 7.769763
v 17.524162 -2.000000 10.143909
v 17.546965 -2.000000 10.104417
v 17.546965 2.000000 10.104417
v 17.524162 2.000000 10.143909
v 16.050196 -2.000000 12.344489
v 16.077957 -2.000000 12.308311
v 16.077957 2.000000 12.308311
v 16.050196 2.000000 12.344489
v 14.301605 -2.000000 14.333851
v 14.333851 -2.000000 14.301605
v 14.333851 2.000000 14.301605
v 14.301605 2.000000 14.333851
v 12.308311 -2.000000 16.077957
v 12.344489 -2.000000 16.050196
v 12.344489 2.000000 16.050196
v 12.308311 2.000000 16.077957
v 10.104417 -2.000000 17.546965
v 10.143909 -2.000000 17.524162
v 10.143909 2.000000 17.524162
v 10.104417 2.000000 17.546965
v 7.727633 -2.000000 18.715738
v 7.769763 -2.000000 18.698286
v 7.769763 2.000000 18.698286
v 7.727633 2.000000 18.715738
v 5.218627 -2.000000 19.564283
v 5.262675 -2.000000 19.552481
v 5.262675 2.000000 19.552481
v 5.218627 2.000000 19.564283
v 2.620332 -2.000000 20.078077
v 2.665543 -2.000000 20.072124
v 2.665543 2.000000 20.072124
v 2.620332 2.000000 20.078077
v -0.022801 -2.000000 20.248325
v 0.022801 -2.000000 20.248325
v 0.022801 2.000000 20.248325
v -0.022801 2.000000 20.248325
v -2.665543 -2.000000 20.072124
v -2.620332 -2.000000 20.078077
v -2.620332 2.000000 20.078077
v -2.665543 2.000000 20.072124
v -5.262674 -2.000000 19.552481
v -5.218627 -2.000000 19.564283
v -5.218627 2.000000 19.564283
v -5.262674 2.000000 19.552481
v -7.769763 -2.000000 18.698286
v -7.727633 -2.000000 18.715738
v -7.727633 2.000000 18.715738
v -7.769763 2.000000 18.698286
v -10.143909 -2.000000 17.524162
v -10.104417 -2.000000 17.546965
v -10.104417 2.000000 17.546965
v -10.143909 2.000000 17.524162
v -12.344489 -2.000000 16.050196
v -12.308311 -2.000000 16.077957
v -12.308311 2.000000 16.077957
v -12.344489 2.000000 16.050196
v -14.333851 -2.000000 14.301605
v -14.301605 -2.000000 14.333851
v -14.301605 2.000000 14.333851
v -14.333851 2.000000 14.301605
v -16.077957 -2.000000 12.308311
v -16.050196 -2.000000 12.344489
v -16.050196 2.000000 12.344489
v -16.077957 2.000000 12.308311
v -17.546965 -2.000000 10.104417
v -17.524162 -2.000000 10.143909
v -17.524162 2.000000 10.143909
v -17.546965 2.000000 10.104417
v -18.715738 -2.000000 7.727633
v -18.698286 -2.000000 7.769763
v -18.698286 2.000000 7.769763
v -18.715738 2.000000 7.727633
v -19.564283 -2.000000 5.218627
v -19.552481 -2.000000 5.262675
v -19.552481 2.000000 5.262675
v -19.564283 2.000000 5.218627
v -20.078077 -2.000000 2.620332
v -20.072124 -2.000000 2.665543
v -20.072124 2.000000 2.665543
v -20.078077 2.000000 2.620332
v -20.248325 -2.000000 -0.022801
v -20.248325 -2.000000 0.022801
v -20.248325 2.000000 0.022801
v -20.248325 2.000000 -0.022801
v -20.072124 -2.000000 -2.665543
v -20.078077 -2.000000 -2.620332
v -20.078077 2.000000 -2.620332
v -20.072124 2.000000 -2.665543
v -19.552481 -2.000000 -5.262674
v -19.564283 -2.000000 -5.218627
v -19.564283 2.000000 -5.218627
v -19.552481 2.000000 -5.262674
v -18.698286 -2.000000 -7.769763
v -18.715738 -2.000000 -7.727633
v -18.715738 2.000000 -7.727633
v -18.698286 2.000000 -7.769763
v -17.524162 -2.000000 -10.143909
v -17.546965 -2.000000 -10.104417
v -17.546965 2.000000 -10.104417
v -17.524162 2.000000 -10.143909
v -16.050196 -2.000000 -12.344489
v -16.077957 -2.000000 -12.308311
v -16.077957 2.000000 -12.308311
v -16.050196 2.000000 -12.344489
v -14.301605 -2.000000 -14.333851
v -14.333851 -2.000000 -14.301605
v -14.333851 2.000000 -14.301605
v -14.301605 2.000000 -14.333851
v -12.308311 -2.000000 -16.077957
v -12.344489 -2.000000 -16.050196
v -12.344489 2.000000 -16.050196
v -12.308311 2.000000 -16.077957
v -10.104417 -2.000000 -17.546965
v -10.143909 -2.000000 -17.524162
v -10.143909 2.000000 -17.524162
v -10.104417 2.000000 -17.546965
v -7.727633 -2.000000 -18.715738
v -7.769763 -2.000000 -18.698286
v -7.769763 2.000000 -18.698286
v -7.727633 2.000000 -18.715738
v -5.218627 -2.000000 -19.564283
v -5.262675 -2.000000 -19.552481
v -5.262675 2.000000 -19.552481
v -5.218627 2.000000 -19.564283
v -2.620332 -2.000000 -20.078077
v -2.665543 -2.000000 -20.072124
v -2.665543 2.000000 -20.072124
v -2.620332 2.000000 -20.078077
v -0.022800 -2.000000 -23.998507
v 0.022800 -2.000000 -23.998507
v 3.155039 -2.000000 -23.790220
v 3.109829 -2.000000 -23.796171
v 3.155039 2.000000 -23.790220
v 3.109829 2.000000 -23.796171
v -0.022800 2.000000 -23.998507
v 0.022800 2.000000 -23.998507
v 6.233294 -2.000000 -23.174875
v 6.189247 -2.000000 -23.186678
v 6.233294 2.000000 -23.174875
v 6.189247 2.000000 -23.186678
v 9.204895 -2.000000 -22.163002
v 9.162766 -2.000000 -22.180452
v 9.204895 2.000000 -22.163002
v 9.162766 2.000000 -22.180452
v 12.018998 -2.000000 -20.771915
v 11.979507 -2.000000 -20.794714
v 12.018998 2.000000 -20.771915
v 11.979507 2.000000 -20.794714
v 14.627453 -2.000000 -19.025414
v 14.591276 -2.000000 -19.053173
v 14.627453 2.000000 -19.025414
v 14.591276 2.000000 -19.053173
v 16.985628 -2.000000 -16.953382
v 16.953382 -2.000000 -16.985628
v 16.985628 2.000000 -16.953382
v 16.953382 2.000000 -16.985628
v 19.053173 -2.000000 -14.591276
v 19.025414 -2.000000 -14.627453
v 19.053173 2.000000 -14.591276
v 19.025414 2.000000 -14.627453
v 20.794714 -2.000000 -11.979507
v 20.771915 -2.000000 -12.018998
v 20.794714 2.000000 -11.979507
v 20.771915 2.000000 -12.018998
v 22.180452 -2.000000 -9.162766
v 22.163002 -2.000000 -9.204895
v 22.180452 2.000000 -9.162766
v 22.163002 2.000000 -9.204895
v 23.186678 -2.000000 -6.189247
v 23.174875 -2.000000 -6.233294
v 23.186678 2.000000 -6.189247
v 23.174875 2.000000 -6.233294
v 23.796171 -2.000000 -3.109829
v 23.790220 -2.000000 -3.155039
v 23.796171 2.000000 -3.109829
v 23.790220 2.000000 -3.155039
v 23.998507 -2.000000 0.022800
v 23.998507 -2.000000 -0.022800
v 23.998507 2.000000 0.022800
v 23.998507 2.000000 -0.022800
v 23.790220 -2.000000 3.155039
v 23.796171 -2.000000 3.109829
v 23.790220 2.000000 3.155039
v 23.796171 2.000000 3.109829
v 23.174875 -2.000000 6.233294
v 23.186678 -2.000000 6.189247
v 23.174875 2.000000 6.233294
v 23.186678 2.000000 6.189247
v 22.163002 -2.000000 9.204895
v 22.180452 -2.000000 9.162766
v 22.163002 2.000000 9.204895
v 22.180452 2.000000 9.162766
v 20.771915 -2.000000 12.018998
v 20.794714 -2.000000 11.979507
v 20.771915 2.000000 12.018998
v 20.794714 2.000000 11.979507
v 19.025414 -2.000000 14.627453
v 19.053173 -2.000000 14.591276
v 19.025414 2.000000 14.627453
v 19.053173 2.000000 14.591276
v 16.953382 -2.000000 16.985628
v 16.985628 -2.000000 16.953382
v 16.953382 2.000000 16.985628
v 16.985628 2.000000 16.953382
v 14.591276 -2.000000 19.053173
v 14.627453 -2.000000 19.025414
v 14.591276 2.000000 19.053173
v 14.627453 2.000000 19.025414
v 11.979507 -2.000000 20.794714
v 12.018998 -2.000000 20.771915
v 11.979507 2.000000 20.794714
v 12.018998 2.000000 20.771915
v 9.162766 -2.000000 22.180452
v 9.204895 -2.000000 22.163002
v 9.162766 2.000000 22.180452
v 9.204895 2.000000 22.163002
v 6.189247 -2.000000 23.186678
v 6.233294 -2.000000 23.174875
v 6.189247 2.000000 23.186678
v 6.233294 2.000000 23.174875
v 3.109829 -2.000000 23.796171
v 3.155039 -2.000000 23.790220
v 3.109829 2.000000 23.796171
v 3.155039 2.000000 23.790220
v -0.022800 -2.000000 23.998507
v 0.022800 -2.000000 23.998507
v -0.022800 2.000000 23.998507
v 0.022800 2.000000 23.998507
v -3.155039 -2.000000 23.790220
v -3.109829 -2.000000 23.796171
v -3.155039 2.000000 23.790220
v -3.109829 2.000000 23.796171
v -6.233294 -2.000000 23.174875
v -6.189247 -2.000000 23.186678
v -6.233294 2.000000 23.174875
v -6.189247 2.000000 23.186678
v -9.204895 -2.000000 22.163002
v -9.162766 -2.000000 22.180452
v -9.204895 2.000000 22.163002
v -9.162766 2.000000 22.180452
v -12.018998 -2.000000 20.771915
v -11.979507 -2.000000 20.794714
v -12.018998 2.000000 20.771915
v -11.979507 2.000000 20.794714
v -14.627453 -2.000000 19.025414
v -14.591276 -2.000000 19.053173
v -14.627453 2.000000 19.025414
v -14.591276 2.000000 19.053173
v -16.985628 -2.000000 16.953382
v -16.953382 -2.000000 16.985628
v -16.985628 2.000000 16.953382
v -16.953382 2.000000 16.985628
v -19.053173 -2.000000 14.591276
v -19.025414 -2.000000 14.627453
v -19.053173 2.000000 14.591276
v -19.025414 2.000000 14.627453
v -20.794714 -2.000000 11.979507
v -20.771915 -2.000000 12.018998
v -20.794714 2.000000 11.979507
v -20.771915 2.000000 12.018998
v -22.180452 -2.000000 9.162766
v -22.163002 -2.000000 9.204895
v -22.180452 2.000000 9.162766
v -22.163002 2.000000 9.204895
v -23.186678 -2.000000 6.189247
v -23.174875 -2.000000 6.233294
v -23.186678 2.000000 6.189247
v -23.174875 2.000000 6.233294
v -23.796171 -2.000000 3.109829
v -23.790220 -2.000000 3.155039
v -23.796171 2.000000 3.109829
v -23.790220 2.000000 3.155039
v -23.998507 -2.000000 -0.022800
v -23.998507 -2.000000 0.022800
v -23.998507 2.000000 -0.022800
v -23.998507 2.000000 0.022800
v -23.790220 -2.000000 -3.155039
v -23.796171 -2.000000 -3.109829
v -23.790220 2.000000 -3.155039
v -23.796171 2.000000 -3.109829
v -23.174875 -2.000000 -6.233294
v -23.186678 -2.000000 -6.189247
v -23.174875 2.000000 -6.233294
v -23.186678 2.000000 -6.189247
v -22.163002 -2.000000 -9.204895
v -22.180452 -2.000000 -9.162766
v -22.163002 2.000000 -9.204895
v -22.180452 2.000000 -9.162766
v -20.771915 -2.000000 -12.018998
v -20.794714 -2.000000 -11.979507
v -20.771915 2.000000 -12.018998
v -20.794714 2.000000 -11.979507
v -19.025414 -2.000000 -14.627453
v -19.053173 -2.000000 -14.591276
v -19.025414 2.000000 -14.627453
v -19.053173 2.000000 -14.591276
v -16.953382 -2.000000 -16.985628
v -16.985628 -2.000000 -16.953382
v -16.953382 2.000000 -16.985628
v -16.985628 2.000000 -16.953382
v -14.591276 -2.000000 -19.053173
v -14.627453 -2.000000 -19.025414
v -14.591276 2.000000 -19.053173
v -14.627453 2.000000 -19.025414
v -11.979507 -2.000000 -20.794714
v -12.018998 -2.000000 -20.771915
v -11.979507 2.000000 -20.794714
v -12.018998 2.000000 -20.771915
v -9.162766 -2.000000 -22.180452
v -9.204895 -2.000000 -22.163002
v -9.162766 2.000000 -22.180452
v -9.204895 2.000000 -22.163002
v -6.189247 -2.000000 -23.186678
v -6.233294 -2.000000 -23.174875
v -6.189247 2.000000 -23.186678
v -6.233294 2.000000 -23.174875
v -3.109829 -2.000000 -23.796171
v -3.155039 -2.000000 -23.790220
v -3.109829 2.000000 -23.796171
v -3.155039 2.000000 -23.790220
v -0.022799 -1.636364 -23.998507
v 0.022799 -1.636364 -23.998507
v 0.022799 1.636364 -23.998507
v -0.022799 1.636364 -23.998507
v 3.155038 1.636364 -23.790220
v 3.109830 1.636364 -23.796171
v 3.109830 -1.636364 -23.796171
v 3.155038 -1.636364 -23.790220
v 6.233292 1.636364 -23.174877
v 6.189248 1.636364 -23.186678
v 6.189248 -1.636364 -23.186678
v 6.233292 -1.636364 -23.174877
v 9.204894 1.636364 -22.163002
v 9.162767 1.636364 -22.180450
v 9.162767 -1.636364 -22.180450
v 9.204894 -1.636364 -22.163002
v 12.018997 1.636364 -20.771915
v 11.979508 1.636364 -20.794714
v 11.979508 -1.636364 -20.794714
v 12.018997 -1.636364 -20.771915
v 14.627452 1.636364 -19.025415
v 14.591277 1.636364 -19.053173
v 14.591277 -1.636364 -19.053173
v 14.627452 -1.636364 -19.025415
v 16.985626 1.636364 -16.953384
v 16.953384 1.636364 -16.985626
v 16.953384 -1.636364 -16.985626
v 16.985626 -1.636364 -16.953384
v 19.053173 1.636364 -14.591277
v 19.025415 1.636364 -14.627452
v 19.025415 -1.636364 -14.627452
v 19.053173 -1.636364 -14.591277
v 20.794714 1.636364 -11.979508
v 20.771915 1.636364 -12.018997
v 20.771915 -1.636364 -12.018997
v 20.794714 -1.636364 -11.979508
v 22.180450 1.636364 -9.162767
v 22.163002 1.636364 -9.204894
v 22.163002 -1.636364 -9.204894
v 22.180450 -1.636364 -9.162767
v 23.186678 1.636364 -6.189248
v 23.174877 1.636364 -6.233292
v 23.174877 -1.636364 -6.233292
v 23.186678 -1.636364 -6.189248
v 23.796171 1.636364 -3.109830
v 23.790220 1.636364 -3.155038
v 23.790220 -1.636364 -3.155038
v 23.796171 -1.636364 -3.109830
v 23.998507 1.636364 0.022799
v 23.998507 1.636364 -0.022799
v 23.998507 -1.636364 -0.022799
v 23.998507 -1.636364 0.022799
v 23.790220 1.636364 3.155038
v 23.796171 1.636364 3.109830
v 23.796171 -1.636364 3.109830
v 23.790220 -1.636364 3.155038
v 23.174877 1.636364 6.233292
v 23.186678 1.636364 6.189248
v 23.186678 -1.636364 6.189248
v 23.174877 -1.636364 6.233292
v 22.163002 1.636364 9.204894
v 22.180450 1.636364 9.162767
v 22.180450 -1.636364 9.162767
v 22.163002 -1.636364 9.204894
v 20.771915 1.636364 12.018997
v 20.794714 1.636364 11.979508
v 20.794714 -1.636364 11.979508
v 20.771915 -1.636364 12.018997
v 19.025415 1.636364 14.627452
v 19.053173 1.636364 14.591277
v 19.053173 -1.636364 14.591277
v 19.025415 -1.636364 14.627452
v 16.953384 1.636364 16.985626
v 16.985626 1.636364 16.953384
v 16.985626 -1.636364 16.953384
v 16.953384 -1.636364 16.985626
v 14.591277 1.636364 19.053173
v 14.627452 1.636364 19.025415
v 14.627452 -1.636364 19.025415
v 14.591277 -1.636364 19.053173
v 11.979508 1.636364 20.794714
v 12.018997 1.636364 20.771915
v 12.018997 -1.636364 20.771915
v 11.979508 -1.636364 20.794714
v 9.162767 1.636364 22.180450
v 9.204894 1.636364 22.163002
v 9.204894 -1.636364 22.163002
v 9.162767 -1.636364 22.180450
v 6.189248 1.636364 23.186678
v 6.233292 1.636364 23.174877
v 6.233292 -1.636364 23.174877
v 6.189248 -1.636364 23.186678
v 3.109830 1.636364 23.796171
v 3.155038 1.636364 23.790220
v 3.155038 -1.636364 23.790220
v 3.109830 -1.636364 23.796171
v -0.022799 1.636364 23.998507
v 0.022799 1.636364 23.998507
v 0.022799 -1.636364 23.998507
v -0.022799 -1.636364 23.998507
v -3.155038 1.636364 23.790220
v -3.109830 1.636364 23.796171
v -3.109830 -1.636364 23.796171
v -3.155038 -1.636364 23.790220
v -6.233292 1.636364 23.174877
v -6.189248 1.636364 23.186678
v -6.189248 -1.636364 23.186678
v -6.233292 -1.636364 23.174877
v -9.204894 1.636364 22.163002
v -9.162767 1.636364 22.180450
v -9.162767 -1.636364 22.180450
v -9.204894 -1.636364 22.163002
v -12.018997 1.636364 20.771915
v -11.979508 1.636364 20.794714
v -11.979508 -1.636364 20.794714
v -12.018997 -1.636364 20.771915
v -14.627452 1.636364 19.025415
v -14.591277 1.636364 19.053173
v -14.591277 -1.636364 19.053173
v -14.627452 -1.636364 19.025415
v -16.985626 1.636364 16.953384
v -16.953384 1.636364 16.985626
v -16.953384 -1.636364 16.985626
v -16.985626 -1.636364 16.953384
v -19.053173 1.636364 14.591277
v -19.025415 1.636364 14.627452
v -19.025415 -1.636364 14.627452
v -19.053173 -1.636364 14.591277
v -20.794714 1.636364 11.979508
v -20.771915 1.636364 12.018997
v -20.771915 -1.636364 12.018997
v -20.794714 -1.636364 11.979508
v -22.180450 1.636364 9.162767
v -22.163002 1.636364 9.204894
v -22.163002 -1.636364 9.204894
v -22.180450 -1.636364 9.162767
v -23.186678 1.636364 6.189248
v -23.174877 1.636364 6.233292
v -23.174877 -1.636364 6.233292
v -23.186678 -1.636364 6.189248
v -23.796171 1.636364 3.109830
v -23.790220 1.636364 3.155038
v -23.790220 -1.636364 3.155038
v -23.796171 -1.636364 3.109830
v -23.998507 1.636364 -0.022799
v -23.998507 1.636364 0.022799
v -23.998507 -1.636364 0.022799
v -23.998507 -1.636364 -0.022799
v -23.790220 1.636364 -3.155038
v -23.796171 1.636364 -3.109830
v -23.796171 -1.636364 -3.109830
v -23.790220 -1.636364 -3.155038
v -23.174877 1.636364 -6.233292
v -23.186678 1.636364 -6.189248
v -23.186678 -1.636364 -6.189248
v -23.174877 -1.636364 -6.233292
v -22.163002 1.636364 -9.204894
v -22.180450 1.636364 -9.162767
v -22.180450 -1.636364 -9.162767
v -22.163002 -1.636364 -9.204894
v -20.771915 1.636364 -12.018997
v -20.794714 1.636364 -11.979508
v -20.794714 -1.636364 -11.979508
v -20.771915 -1.636364 -12.018997
v -19.025415 1.636364 -14.627452
v -19.053173 1.636364 -14.591277
v -19.053173 -1.636364 -14.591277
v -19.025415 -1.636364 -14.627452
v -16.953384 1.636364 -16.985626
v -16.985626 1.636364 -16.953384
v -16.985626 -1.636364 -16.953384
v -16.953384 -1.636364 -16.985626
v -14.591277 1.636364 -19.053173
v -14.627452 1.636364 -19.025415
v -14.627452 -1.636364 -19.025415
v -14.591277 -1.636364 -19.053173
v -11.979508 1.636364 -20.794714
v -12.018997 1.636364 -20.771915
v -12.018997 -1.636364 -20.771915
v -11.979508 -1.636364 -20.794714
v -9.162767 1.636364 -22.180450
v -9.204894 1.636364 -22.163002
v -9.204894 -1.636364 -22.163002
v -9.162767 -1.636364 -22.180450
v -6.189248 1.636364 -23.186678
v -6.233292 1.636364 -23.174877
v -6.233292 -1.636364 -23.174877
v -6.189248 -1.636364 -23.186678
v -3.109830 1.636364 -23.796171
v -3.155038 1.636364 -23.790220
v -3.155038 -1.636364 -23.790220
v -3.109830 -1.636364 -23.796171
vn -0.0000 -0.0000 -1.0000
vn 0.1305 -0.0000 -0.9914
vn 0.2588 -0.0000 -0.9659
vn 0.3827 -0.0000 -0.9239
vn 0.5000 -0.0000 -0.8660
vn 0.6087 -0.0000 -0.7934
vn 0.7071 -0.0000 -0.7071
vn 0.7933 -0.0000 -0.6088
vn 0.8660 -0.0000 -0.5000
vn 0.9239 -0.0000 -0.3827
vn 0.9659 -0.0000 -0.2588
vn 0.9914 -0.0000 -0.1305
vn 1.0000 -0.0000 -0.0000
vn 0.9914 -0.0000 0.1305
vn 0.9659 -0.0000 0.2588
vn 0.9239 -0.0000 0.3827
vn 0.8660 -0.0000 0.5000
vn 0.7933 -0.0000 0.6088
vn 0.7071 -0.0000 0.7071
vn 0.6087 -0.0000 0.7934
vn 0.5000 -0.0000 0.8660
vn 0.3827 -0.0000 0.9239
vn 0.2588 -0.0000 0.9659
vn 0.1305 -0.0000 0.9914
vn -0.0000 -0.0000 1.0000
vn -0.1305 -0.0000 0.9914
vn -0.2588 -0.0000 0.9659
vn -0.3827 -0.0000 0.9239
vn -0.5000 -0.0000 0.8660
vn -0.6087 -0.0000 0.7934
vn -0.7071 -0.0000 0.7071
vn -0.7933 -0.0000 0.6088
vn -0.8660 -0.0000 0.5000
vn -0.9239 -0.0000 0.3827
vn -0.9659 -0.0000 0.2588
vn -0.9914 -0.0000 0.1305
vn -1.0000 -0.0000 -0.0000
vn -0.9914 -0.0000 -0.1305
vn -0.9659 -0.0000 -0.2588
vn -0.9239 -0.0000 -0.3827
vn -0.8660 -0.0000 -0.5000
vn -0.7933 -0.0000 -0.6088
vn -0.7071 -0.0000 -0.7071
vn -0.6087 -0.0000 -0.7934
vn -0.5000 -0.0000 -0.8660
vn -0.3827 -0.0000 -0.9239
vn -0.2588 -0.0000 -0.9659
vn -0.1305 -0.0000 -0.9914
vn -0.0000 -1.0000 -0.0000
vn -0.0000 1.0000 -0.0000
vn 0.6088 -0.0000 0.7933
vn 0.6088 -0.0000 -0.7933
vn -0.6088 -0.0000 -0.7933
vn -0.6088 -0.0000 0.7933
vn 0.7934 -0.0000 -0.6088
vn 0.9239 -0.0000 -0.3826
vn 0.9239 -0.0000 0.3826
vn 0.7934 -0.0000 0.6088
vn -0.7934 -0.0000 0.6088
vn -0.9239 -0.0000 0.3826
vn -0.9239 -0.0000 -0.3826
vn -0.7934 -0.0000 -0.6088
vn -0.0654 -0.0000 0.9979
vn 0.0654 -0.0000 0.9979
vn -0.1951 -0.0000 0.9808
vn -0.3214 -0.0000 0.9469
vn -0.4423 -0.0000 0.8969
vn -0.5556 -0.0000 0.8315
vn -0.6593 -0.0000 0.7518
vn -0.7518 -0.0000 0.6593
vn -0.8315 -0.0000 0.5556
vn -0.8969 -0.0000 0.4423
vn -0.9469 -0.0000 0.3214
vn -0.9808 -0.0000 0.1951
vn -0.9979 -0.0000 0.0654
vn -0.9979 -0.0000 -0.0654
vn -0.9808 -0.0000 -0.1951
vn -0.9469 -0.0000 -0.3214
vn -0.8969 -0.0000 -0.4423
vn -0.8315 -0.0000 -0.5556
vn -0.7518 -0.0000 -0.6593
vn -0.6593 -0.0000 -0.7518
vn -0.5556 -0.0000 -0.8315
vn -0.4423 -0.0000 -0.8969
vn -0.3214 -0.0000 -0.9469
vn -0.1951 -0.0000 -0.9808
vn -0.0654 -0.0000 -0.9979
vn 0.0654 -0.0000 -0.9979
vn 0.1951 -0.0000 -0.9808
vn 0.3214 -0.0000 -0.9469
vn 0.4423 -0.0000 -0.8969
vn 0.5556 -0.0000 -0.8315
vn 0.6593 -0.0000 -0.7518
vn 0.7518 -0.0000 -0.6593
vn 0.8315 -0.0000 -0.5556
vn 0.8969 -0.0000 -0.4423
vn 0.9469 -0.0000 -0.3214
vn 0.9808 -0.0000 -0.1951
vn 0.9979 -0.0000 -0.0654
vn 0.9979 -0.0000 0.0654
vn 0.9808 -0.0000 0.1951
vn 0.9469 -0.0000 0.3214
vn 0.8969 -0.0000 0.4423
vn 0.8315 -0.0000 0.5556
vn 0.7518 -0.0000 0.6593
vn 0.6593 -0.0000 0.7518
vn 0.5556 -0.0000 0.8315
vn 0.4423 -0.0000 0.8969
vn 0.3214 -0.0000 0.9469
vn 0.1951 -0.0000 0.9808
vt 0.545552 0.000337
vt 0.541756 0.000337
vt 0.541756 0.000000
vt 0.545552 0.000000
vt 0.537960 0.329632
vt 0.541756 0.329632
vt 0.541756 0.330010
vt 0.537960 0.330010
vt 0.537960 0.302368
vt 0.541756 0.302368
vt 0.541756 0.302780
vt 0.537960 0.302780
vt 0.537960 0.272964
vt 0.541756 0.272964
vt 0.541756 0.273403
vt 0.537960 0.273403
vt 0.537960 0.241923
vt 0.541756 0.241923
vt 0.541756 0.242383
vt 0.537960 0.242383
vt 0.537960 0.209777
vt 0.541756 0.209777
vt 0.541756 0.210249
vt 0.537960 0.210249
vt 0.537960 0.177075
vt 0.541756 0.177075
vt 0.541756 0.177551
vt 0.537960 0.177551
vt 0.537960 0.144378
vt 0.541756 0.144378
vt 0.541756 0.144850
vt 0.537960 0.144850
vt 0.537960 0.112244
vt 0.541756 0.112244
vt 0.541756 0.112704
vt 0.537960 0.112704
vt 0.537960 0.081223
vt 0.541756 0.081223
vt 0.541756 0.081663
vt 0.537960 0.081663
vt 0.537960 0.051847
vt 0.541756 0.051847
vt 0.541756 0.052259
vt 0.537960 0.052259
vt 0.537960 0.024617
vt 0.541756 0.024617
vt 0.541756 0.024995
vt 0.537960 0.024995
vt 0.537960 0.000000
vt 0.541756 0.000000
vt 0.541756 0.000337
vt 0.537960 0.000337
vt 0.579716 0.683922
vt 0.583512 0.683922
vt 0.583512 0.684300
vt 0.579716 0.684300
vt 0.579716 0.656658
vt 0.583512 0.656658
vt 0.583512 0.657070
vt 0.579716 0.657070
vt 0.579716 0.627254
vt 0.583512 0.627254
vt 0.583512 0.627693
vt 0.579716 0.627693
vt 0.579716 0.596213
vt 0.583512 0.596213
vt 0.583512 0.596673
vt 0.579716 0.596673
vt 0.579716 0.564067
vt 0.583512 0.564067
vt 0.583512 0.564539
vt 0.579716 0.564539
vt 0.579716 0.531365
vt 0.583512 0.531365
vt 0.583512 0.531841
vt 0.579716 0.531841
vt 0.579716 0.498668
vt 0.583512 0.498668
vt 0.583512 0.499140
vt 0.579716 0.499140
vt 0.579716 0.466534
vt 0.583512 0.466534
vt 0.583512 0.466994
vt 0.579716 0.466994
vt 0.579716 0.435513
vt 0.583512 0.435513
vt 0.583512 0.435953
vt 0.579716 0.435953
vt 0.579716 0.406137
vt 0.583512 0.406137
vt 0.583512 0.406549
vt 0.579716 0.406549
vt 0.579716 0.378907
vt 0.583512 0.378907
vt 0.583512 0.379285
vt 0.579716 0.379285
vt 0.579716 0.354290
vt 0.583512 0.354290
vt 0.583512 0.354627
vt 0.579716 0.354627
vt 0.537960 0.683922
vt 0.541756 0.683922
vt 0.541756 0.684300
vt 0.537960 0.684300
vt 0.537960 0.656658
vt 0.541756 0.656658
vt 0.541756 0.657070
vt 0.537960 0.657070
vt 0.537960 0.627254
vt 0.541756 0.627254
vt 0.541756 0.627693
vt 0.537960 0.627693
vt 0.537960 0.596213
vt 0.541756 0.596213
vt 0.541756 0.596673
vt 0.537960 0.596673
vt 0.537960 0.564067
vt 0.541756 0.564067
vt 0.541756 0.564539
vt 0.537960 0.564539
vt 0.537960 0.531365
vt 0.541756 0.531365
vt 0.541756 0.531841
vt 0.537960 0.531841
vt 0.537960 0.498668
vt 0.541756 0.498668
vt 0.541756 0.499140
vt 0.537960 0.499140
vt 0.537960 0.466534
vt 0.541756 0.466534
vt 0.541756 0.466994
vt 0.537960 0.466994
vt 0.537960 0.435513
vt 0.541756 0.435513
vt 0.541756 0.435953
vt 0.537960 0.435953
vt 0.537960 0.406137
vt 0.541756 0.406137
vt 0.541756 0.406549
vt 0.537960 0.406549
vt 0.537960 0.378907
vt 0.541756 0.378907
vt 0.541756 0.379285
vt 0.537960 0.379285
vt 0.537960 0.354290
vt 0.541756 0.354290
vt 0.541756 0.354627
vt 0.537960 0.354627
vt 0.579716 0.329632
vt 0.583512 0.329632
vt 0.583512 0.330010
vt 0.579716 0.330010
vt 0.579716 0.302368
vt 0.583512 0.302368
vt 0.583512 0.302780
vt 0.579716 0.302780
vt 0.579716 0.272964
vt 0.583512 0.272964
vt 0.583512 0.273403
vt 0.579716 0.273403
vt 0.579716 0.241923
vt 0.583512 0.241923
vt 0.583512 0.242383
vt 0.579716 0.242383
vt 0.579716 0.209777
vt 0.583512 0.209777
vt 0.583512 0.210249
vt 0.579716 0.210249
vt 0.579716 0.177075
vt 0.583512 0.177075
vt 0.583512 0.177551
vt 0.579716 0.177551
vt 0.579716 0.144378
vt 0.583512 0.144378
vt 0.583512 0.144850
vt 0.579716 0.144850
vt 0.579716 0.112244
vt 0.583512 0.112244
vt 0.583512 0.112704
vt 0.579716 0.112704
vt 0.579716 0.081223
vt 0.583512 0.081223
vt 0.583512 0.081663
vt 0.579716 0.081663
vt 0.579716 0.051847
vt 0.583512 0.051847
vt 0.583512 0.052259
vt 0.579716 0.052259
vt 0.579716 0.024617
vt 0.583512 0.024617
vt 0.583512 0.024995
vt 0.579716 0.024995
vt 0.025209 0.360589
vt 0.060320 0.343274
vt 0.060531 0.343701
vt 0.025420 0.361016
vt 0.074382 0.367630
vt 0.041832 0.389380
vt 0.041567 0.388984
vt 0.074118 0.367234
vt 0.041567 0.888984
vt 0.074118 0.867234
vt 0.074382 0.867630
vt 0.041832 0.889380
vt 0.091239 0.889547
vt 0.061805 0.915359
vt 0.061492 0.915001
vt 0.090925 0.889189
vt 0.012698 0.330302
vt 0.049768 0.317718
vt 0.049921 0.318169
vt 0.012851 0.330753
vt 0.110811 0.909075
vt 0.084999 0.938509
vt 0.084641 0.938195
vt 0.110453 0.908761
vt 0.004246 0.298641
vt 0.042642 0.291003
vt 0.042735 0.291470
vt 0.004339 0.299108
vt 0.132766 0.925882
vt 0.111016 0.958433
vt 0.110620 0.958168
vt 0.132370 0.925618
vt -0.000000 0.266147
vt 0.039064 0.263587
vt 0.039095 0.264062
vt 0.000031 0.266622
vt 0.156726 0.939680
vt 0.139411 0.974791
vt 0.138984 0.974580
vt 0.156299 0.939469
vt 0.000031 0.233378
vt 0.039095 0.235938
vt 0.039064 0.236413
vt -0.000000 0.233853
vt 0.182282 0.950232
vt 0.169698 0.987302
vt 0.169247 0.987149
vt 0.181831 0.950079
vt 0.004339 0.200892
vt 0.042735 0.208530
vt 0.042642 0.208997
vt 0.004246 0.201359
vt 0.208997 0.957358
vt 0.201359 0.995754
vt 0.200892 0.995661
vt 0.208530 0.957265
vt 0.012851 0.169247
vt 0.049921 0.181831
vt 0.049768 0.182282
vt 0.012698 0.169698
vt 0.236413 0.960936
vt 0.233853 1.000000
vt 0.233378 0.999969
vt 0.235938 0.960904
vt 0.025420 0.138984
vt 0.060531 0.156299
vt 0.060320 0.156726
vt 0.025209 0.139411
vt 0.264062 0.960904
vt 0.266622 0.999969
vt 0.266147 1.000000
vt 0.263587 0.960936
vt 0.041832 0.110620
vt 0.074382 0.132370
vt 0.074118 0.132766
vt 0.041567 0.111016
vt 0.291470 0.957265
vt 0.299108 0.995661
vt 0.298641 0.995754
vt 0.291003 0.957358
vt 0.061805 0.084641
vt 0.091239 0.110453
vt 0.090925 0.110811
vt 0.061491 0.084999
vt 0.318169 0.950079
vt 0.330753 0.987149
vt 0.330302 0.987302
vt 0.317718 0.950232
vt 0.084999 0.061492
vt 0.110811 0.090925
vt 0.110453 0.091239
vt 0.084641 0.061805
vt 0.343701 0.939469
vt 0.361016 0.974580
vt 0.360589 0.974791
vt 0.343274 0.939680
vt 0.111016 0.041567
vt 0.132765 0.074118
vt 0.132370 0.074382
vt 0.110620 0.041832
vt 0.367630 0.925618
vt 0.389380 0.958168
vt 0.388984 0.958433
vt 0.367234 0.925882
vt 0.139411 0.025209
vt 0.156726 0.060320
vt 0.156299 0.060531
vt 0.138984 0.025420
vt 0.389547 0.908761
vt 0.415359 0.938195
vt 0.415001 0.938508
vt 0.389189 0.909075
vt 0.169698 0.012698
vt 0.182282 0.049768
vt 0.181831 0.049921
vt 0.169247 0.012851
vt 0.409075 0.889189
vt 0.438508 0.915001
vt 0.438195 0.915359
vt 0.408761 0.889547
vt 0.201359 0.004246
vt 0.208997 0.042642
vt 0.208530 0.042735
vt 0.200892 0.004339
vt 0.425882 0.867234
vt 0.458433 0.888984
vt 0.458168 0.889380
vt 0.425618 0.867630
vt 0.233853 -0.000000
vt 0.236413 0.039064
vt 0.235938 0.039096
vt 0.233378 0.000031
vt 0.439680 0.843274
vt 0.474791 0.860589
vt 0.474580 0.861016
vt 0.439469 0.843701
vt 0.266622 0.000031
vt 0.264062 0.039096
vt 0.263587 0.039064
vt 0.266147 -0.000000
vt 0.450232 0.817718
vt 0.487302 0.830302
vt 0.487149 0.830753
vt 0.450079 0.818169
vt 0.299108 0.004339
vt 0.291470 0.042735
vt 0.291003 0.042642
vt 0.298641 0.004246
vt 0.457358 0.791003
vt 0.495754 0.798641
vt 0.495661 0.799108
vt 0.457265 0.791470
vt 0.330753 0.012851
vt 0.318169 0.049921
vt 0.317718 0.049768
vt 0.330302 0.012698
vt 0.460936 0.763587
vt 0.500000 0.766147
vt 0.499969 0.766622
vt 0.460904 0.764062
vt 0.361016 0.025420
vt 0.343701 0.060531
vt 0.343274 0.060320
vt 0.360589 0.025209
vt 0.460904 0.735938
vt 0.499969 0.733378
vt 0.500000 0.733853
vt 0.460936 0.736413
vt 0.389380 0.041832
vt 0.367630 0.074382
vt 0.367234 0.074118
vt 0.388984 0.041567
vt 0.457265 0.708530
vt 0.495661 0.700892
vt 0.495754 0.701359
vt 0.457358 0.708997
vt 0.415359 0.061805
vt 0.389547 0.091239
vt 0.389189 0.090925
vt 0.415001 0.061491
vt 0.450079 0.681831
vt 0.487149 0.669247
vt 0.487302 0.669698
vt 0.450232 0.682282
vt 0.438508 0.084999
vt 0.409075 0.110811
vt 0.408761 0.110453
vt 0.438195 0.084641
vt 0.439469 0.656299
vt 0.474580 0.638984
vt 0.474791 0.639411
vt 0.439680 0.656726
vt 0.458433 0.111016
vt 0.425882 0.132766
vt 0.425618 0.132370
vt 0.458168 0.110620
vt 0.425618 0.632370
vt 0.458168 0.610620
vt 0.458433 0.611016
vt 0.425882 0.632766
vt 0.474791 0.139411
vt 0.439680 0.156726
vt 0.439469 0.156299
vt 0.474580 0.138984
vt 0.408761 0.610453
vt 0.438195 0.584641
vt 0.438508 0.584999
vt 0.409075 0.610811
vt 0.487302 0.169698
vt 0.450232 0.182282
vt 0.450079 0.181831
vt 0.487149 0.169247
vt 0.389189 0.590925
vt 0.415001 0.561491
vt 0.415359 0.561805
vt 0.389547 0.591239
vt 0.495754 0.201359
vt 0.457358 0.208997
vt 0.457265 0.208530
vt 0.495661 0.200892
vt 0.367234 0.574118
vt 0.388984 0.541567
vt 0.389380 0.541832
vt 0.367630 0.574382
vt 0.500000 0.233853
vt 0.460936 0.236413
vt 0.460904 0.235938
vt 0.499969 0.233378
vt 0.343274 0.560320
vt 0.360589 0.525209
vt 0.361016 0.525420
vt 0.343701 0.560531
vt 0.499969 0.266622
vt 0.460904 0.264062
vt 0.460936 0.263587
vt 0.500000 0.266147
vt 0.317718 0.549768
vt 0.330302 0.512698
vt 0.330753 0.512851
vt 0.318169 0.549921
vt 0.495661 0.299108
vt 0.457265 0.291470
vt 0.457358 0.291003
vt 0.495754 0.298641
vt 0.291003 0.542642
vt 0.298641 0.504246
vt 0.299108 0.504339
vt 0.291470 0.542735
vt 0.487149 0.330753
vt 0.450079 0.318169
vt 0.450232 0.317718
vt 0.487302 0.330302
vt 0.263587 0.539064
vt 0.266147 0.500000
vt 0.266622 0.500031
vt 0.264062 0.539096
vt 0.474580 0.361016
vt 0.439469 0.343701
vt 0.439680 0.343274
vt 0.474791 0.360589
vt 0.235938 0.539096
vt 0.233378 0.500031
vt 0.233853 0.500000
vt 0.236413 0.539064
vt 0.458168 0.389380
vt 0.425618 0.367630
vt 0.425882 0.367234
vt 0.458433 0.388984
vt 0.208530 0.542735
vt 0.200892 0.504339
vt 0.201359 0.504246
vt 0.208997 0.542642
vt 0.438195 0.415359
vt 0.408761 0.389547
vt 0.409075 0.389189
vt 0.438508 0.415001
vt 0.181831 0.549921
vt 0.169247 0.512851
vt 0.169698 0.512698
vt 0.182282 0.549768
vt 0.415001 0.438508
vt 0.389189 0.409075
vt 0.389547 0.408761
vt 0.415359 0.438195
vt 0.156299 0.560531
vt 0.138984 0.525420
vt 0.139411 0.525209
vt 0.156726 0.560320
vt 0.388984 0.458433
vt 0.367234 0.425882
vt 0.367630 0.425618
vt 0.389380 0.458168
vt 0.132370 0.574382
vt 0.110620 0.541832
vt 0.111016 0.541567
vt 0.132765 0.574118
vt 0.360589 0.474791
vt 0.343274 0.439680
vt 0.343701 0.439469
vt 0.361016 0.474580
vt 0.110453 0.591239
vt 0.084641 0.561805
vt 0.084999 0.561492
vt 0.110811 0.590925
vt 0.330302 0.487302
vt 0.317718 0.450232
vt 0.318169 0.450079
vt 0.330753 0.487149
vt 0.090925 0.610811
vt 0.061491 0.584999
vt 0.061805 0.584641
vt 0.091239 0.610453
vt 0.298641 0.495754
vt 0.291003 0.457358
vt 0.291470 0.457265
vt 0.299108 0.495661
vt 0.074118 0.632766
vt 0.041567 0.611016
vt 0.041832 0.610620
vt 0.074382 0.632370
vt 0.266147 0.500000
vt 0.263587 0.460936
vt 0.264062 0.460904
vt 0.266622 0.499969
vt 0.060320 0.656726
vt 0.025209 0.639411
vt 0.025420 0.638984
vt 0.060531 0.656299
vt 0.233378 0.499969
vt 0.235938 0.460905
vt 0.236413 0.460936
vt 0.233853 0.500000
vt 0.049768 0.682282
vt 0.012698 0.669698
vt 0.012851 0.669247
vt 0.049921 0.681831
vt 0.200892 0.495661
vt 0.208530 0.457265
vt 0.208997 0.457358
vt 0.201359 0.495754
vt 0.042642 0.708997
vt 0.004246 0.701359
vt 0.004339 0.700892
vt 0.042735 0.708530
vt 0.169247 0.487149
vt 0.181831 0.450079
vt 0.182282 0.450232
vt 0.169698 0.487302
vt 0.039064 0.736413
vt -0.000000 0.733853
vt 0.000031 0.733378
vt 0.039095 0.735938
vt 0.138984 0.474580
vt 0.156299 0.439469
vt 0.156726 0.439680
vt 0.139411 0.474791
vt 0.039095 0.764062
vt 0.000031 0.766622
vt -0.000000 0.766147
vt 0.039064 0.763587
vt 0.110620 0.458168
vt 0.132370 0.425618
vt 0.132766 0.425882
vt 0.111016 0.458433
vt 0.042735 0.791470
vt 0.004339 0.799108
vt 0.004246 0.798641
vt 0.042642 0.791003
vt 0.084641 0.438195
vt 0.110453 0.408761
vt 0.110811 0.409075
vt 0.084999 0.438509
vt 0.049921 0.818169
vt 0.012851 0.830753
vt 0.012698 0.830302
vt 0.049768 0.817718
vt 0.061492 0.415001
vt 0.090925 0.389189
vt 0.091239 0.389547
vt 0.061805 0.415359
vt 0.060531 0.843701
vt 0.025420 0.861016
vt 0.025209 0.860589
vt 0.060320 0.843274
vt 0.625268 0.896778
vt 0.583512 0.896778
vt 0.583512 0.896441
vt 0.625268 0.896441
vt 0.583512 0.875633
vt 0.625268 0.875633
vt 0.625268 0.876011
vt 0.583512 0.876011
vt 0.583512 0.852627
vt 0.625268 0.852627
vt 0.625268 0.853039
vt 0.583512 0.853039
vt 0.583512 0.827816
vt 0.625268 0.827816
vt 0.625268 0.828255
vt 0.583512 0.828255
vt 0.583512 0.801624
vt 0.625268 0.801624
vt 0.625268 0.802084
vt 0.583512 0.802084
vt 0.583512 0.774500
vt 0.625268 0.774500
vt 0.625268 0.774972
vt 0.583512 0.774972
vt 0.583512 0.746909
vt 0.625268 0.746909
vt 0.625268 0.747385
vt 0.583512 0.747385
vt 0.583512 0.719321
vt 0.625268 0.719321
vt 0.625268 0.719793
vt 0.583512 0.719793
vt 0.583512 0.692210
vt 0.625268 0.692210
vt 0.625268 0.692669
vt 0.583512 0.692669
vt 0.583512 0.666038
vt 0.625268 0.666038
vt 0.625268 0.666478
vt 0.583512 0.666478
vt 0.583512 0.641254
vt 0.625268 0.641254
vt 0.625268 0.641667
vt 0.583512 0.641667
vt 0.583512 0.618282
vt 0.625268 0.618282
vt 0.625268 0.618660
vt 0.583512 0.618660
vt 0.583512 0.298589
vt 0.625268 0.298589
vt 0.625268 0.298926
vt 0.583512 0.298926
vt 0.583512 0.277781
vt 0.625268 0.277781
vt 0.625268 0.278159
vt 0.583512 0.278159
vt 0.583512 0.254775
vt 0.625268 0.254775
vt 0.625268 0.255187
vt 0.583512 0.255187
vt 0.583512 0.229964
vt 0.625268 0.229964
vt 0.625268 0.230403
vt 0.583512 0.230403
vt 0.583512 0.203772
vt 0.625268 0.203772
vt 0.625268 0.204232
vt 0.583512 0.204232
vt 0.583512 0.176648
vt 0.625268 0.176648
vt 0.625268 0.177120
vt 0.583512 0.177120
vt 0.583512 0.149057
vt 0.625268 0.149057
vt 0.625268 0.149533
vt 0.583512 0.149533
vt 0.583512 0.121469
vt 0.625268 0.121469
vt 0.625268 0.121941
vt 0.583512 0.121941
vt 0.583512 0.094358
vt 0.625268 0.094358
vt 0.625268 0.094817
vt 0.583512 0.094817
vt 0.583512 0.068186
vt 0.625268 0.068186
vt 0.625268 0.068626
vt 0.583512 0.068626
vt 0.583512 0.043402
vt 0.625268 0.043402
vt 0.625268 0.043814
vt 0.583512 0.043814
vt 0.583512 0.020430
vt 0.625268 0.020430
vt 0.625268 0.020808
vt 0.583512 0.020808
vt 0.667024 0.298589
vt 0.667024 0.298926
vt 0.667024 0.277781
vt 0.667024 0.278159
vt 0.625268 0.278159
vt 0.667024 0.254775
vt 0.667024 0.255187
vt 0.625268 0.229964
vt 0.667024 0.229964
vt 0.667024 0.230403
vt 0.625268 0.230403
vt 0.625268 0.203772
vt 0.667024 0.203772
vt 0.667024 0.204232
vt 0.625268 0.204232
vt 0.625268 0.176648
vt 0.667024 0.176648
vt 0.667024 0.177120
vt 0.625268 0.177120
vt 0.625268 0.149057
vt 0.667024 0.149057
vt 0.667024 0.149533
vt 0.625268 0.149533
vt 0.625268 0.121469
vt 0.667024 0.121469
vt 0.667024 0.121941
vt 0.625268 0.121941
vt 0.625268 0.094358
vt 0.667024 0.094358
vt 0.667024 0.094817
vt 0.625268 0.094817
vt 0.625268 0.068186
vt 0.667024 0.068186
vt 0.667024 0.068626
vt 0.625268 0.068626
vt 0.625268 0.043402
vt 0.667024 0.043402
vt 0.667024 0.043815
vt 0.625268 0.043815
vt 0.667024 0.020430
vt 0.667024 0.020808
vt 0.583512 0.597515
vt 0.625268 0.597516
vt 0.625268 0.597852
vt 0.583512 0.597852
vt 0.583512 0.576707
vt 0.625268 0.576707
vt 0.625268 0.577085
vt 0.583512 0.577085
vt 0.583512 0.553701
vt 0.625268 0.553701
vt 0.625268 0.554113
vt 0.583512 0.554113
vt 0.583512 0.528890
vt 0.625268 0.528890
vt 0.625268 0.529329
vt 0.583512 0.529329
vt 0.583512 0.502698
vt 0.625268 0.502698
vt 0.625268 0.503158
vt 0.583512 0.503158
vt 0.583512 0.475574
vt 0.625268 0.475574
vt 0.625268 0.476046
vt 0.583512 0.476046
vt 0.583512 0.447983
vt 0.625268 0.447983
vt 0.625268 0.448459
vt 0.583512 0.448459
vt 0.583512 0.420395
vt 0.625268 0.420395
vt 0.625268 0.420867
vt 0.583512 0.420867
vt 0.583512 0.393284
vt 0.625268 0.393284
vt 0.625268 0.393743
vt 0.583512 0.393743
vt 0.583512 0.367112
vt 0.625268 0.367112
vt 0.625268 0.367552
vt 0.583512 0.367552
vt 0.583512 0.342328
vt 0.625268 0.342328
vt 0.625268 0.342741
vt 0.583512 0.342741
vt 0.583512 0.319356
vt 0.625268 0.319356
vt 0.625268 0.319734
vt 0.583512 0.319734
vt 0.583512 0.000337
vt 0.579716 0.000337
vt 0.579716 0.000000
vt 0.583512 0.000000
vt 0.500000 0.329632
vt 0.503796 0.329632
vt 0.503796 0.330010
vt 0.500000 0.330010
vt 0.500000 0.302368
vt 0.503796 0.302368
vt 0.503796 0.302780
vt 0.500000 0.302780
vt 0.500000 0.272964
vt 0.503796 0.272964
vt 0.503796 0.273403
vt 0.500000 0.273403
vt 0.500000 0.241923
vt 0.503796 0.241923
vt 0.503796 0.242383
vt 0.500000 0.242383
vt 0.500000 0.209777
vt 0.503796 0.209777
vt 0.503796 0.210249
vt 0.500000 0.210249
vt 0.500000 0.177075
vt 0.503796 0.177075
vt 0.503796 0.177551
vt 0.500000 0.177551
vt 0.500000 0.144378
vt 0.503796 0.144378
vt 0.503796 0.144850
vt 0.500000 0.144850
vt 0.500000 0.112244
vt 0.503796 0.112244
vt 0.503796 0.112704
vt 0.500000 0.112704
vt 0.500000 0.081223
vt 0.503796 0.081223
vt 0.503796 0.081663
vt 0.500000 0.081663
vt 0.500000 0.051847
vt 0.503796 0.051847
vt 0.503796 0.052259
vt 0.500000 0.052259
vt 0.500000 0.024617
vt 0.503796 0.024617
vt 0.503796 0.024995
vt 0.500000 0.024995
vt 0.500000 0.000000
vt 0.503796 0.000000
vt 0.503796 0.000337
vt 0.500000 0.000337
vt 0.541756 0.683922
vt 0.545552 0.683922
vt 0.545552 0.684300
vt 0.541756 0.684300
vt 0.541756 0.656658
vt 0.545552 0.656658
vt 0.545552 0.657070
vt 0.541756 0.657070
vt 0.541756 0.627254
vt 0.545552 0.627254
vt 0.545552 0.627693
vt 0.541756 0.627693
vt 0.541756 0.596213
vt 0.545552 0.596213
vt 0.545552 0.596673
vt 0.541756 0.596673
vt 0.541756 0.564067
vt 0.545552 0.564067
vt 0.545552 0.564539
vt 0.541756 0.564539
vt 0.541756 0.531365
vt 0.545552 0.531365
vt 0.545552 0.531841
vt 0.541756 0.531841
vt 0.541756 0.498668
vt 0.545552 0.498668
vt 0.545552 0.499140
vt 0.541756 0.499140
vt 0.541756 0.466534
vt 0.545552 0.466534
vt 0.545552 0.466994
vt 0.541756 0.466994
vt 0.541756 0.435513
vt 0.545552 0.435513
vt 0.545552 0.435953
vt 0.541756 0.435953
vt 0.541756 0.406137
vt 0.545552 0.406137
vt 0.545552 0.406549
vt 0.541756 0.406549
vt 0.541756 0.378907
vt 0.545552 0.378907
vt 0.545552 0.379285
vt 0.541756 0.379285
vt 0.541756 0.354290
vt 0.545552 0.354290
vt 0.545552 0.354627
vt 0.541756 0.354627
vt 0.500000 0.683922
vt 0.503796 0.683922
vt 0.503796 0.684300
vt 0.500000 0.684300
vt 0.500000 0.656658
vt 0.503796 0.656658
vt 0.503796 0.657070
vt 0.500000 0.657070
vt 0.500000 0.627254
vt 0.503796 0.627254
vt 0.503796 0.627693
vt 0.500000 0.627693
vt 0.500000 0.596213
vt 0.503796 0.596213
vt 0.503796 0.596673
vt 0.500000 0.596673
vt 0.500000 0.564067
vt 0.503796 0.564067
vt 0.503796 0.564539
vt 0.500000 0.564539
vt 0.500000 0.531365
vt 0.503796 0.531365
vt 0.503796 0.531841
vt 0.500000 0.531841
vt 0.500000 0.498668
vt 0.503796 0.498668
vt 0.503796 0.499140
vt 0.500000 0.499140
vt 0.500000 0.466534
vt 0.503796 0.466534
vt 0.503796 0.466994
vt 0.500000 0.466994
vt 0.500000 0.435513
vt 0.503796 0.435513
vt 0.503796 0.435953
vt 0.500000 0.435953
vt 0.500000 0.406137
vt 0.503796 0.406137
vt 0.503796 0.406549
vt 0.500000 0.406549
vt 0.500000 0.378907
vt 0.503796 0.378907
vt 0.503796 0.379285
vt 0.500000 0.379285
vt 0.500000 0.354290
vt 0.503796 0.354290
vt 0.503796 0.354627
vt 0.500000 0.354627
vt 0.541756 0.329632
vt 0.545552 0.329632
vt 0.545552 0.330010
vt 0.541756 0.330010
vt 0.541756 0.302368
vt 0.545552 0.302368
vt 0.545552 0.302780
vt 0.541756 0.302780
vt 0.541756 0.272964
vt 0.545552 0.272964
vt 0.545552 0.273403
vt 0.541756 0.273403
vt 0.541756 0.241923
vt 0.545552 0.241923
vt 0.545552 0.242383
vt 0.541756 0.242383
vt 0.541756 0.209777
vt 0.545552 0.209777
vt 0.545552 0.210249
vt 0.541756 0.210249
vt 0.541756 0.177075
vt 0.545552 0.177075
vt 0.545552 0.177551
vt 0.541756 0.177551
vt 0.541756 0.144378
vt 0.545552 0.144378
vt 0.545552 0.144850
vt 0.541756 0.144850
vt 0.541756 0.112244
vt 0.545552 0.112244
vt 0.545552 0.112704
vt 0.541756 0.112704
vt 0.541756 0.081223
vt 0.545552 0.081223
vt 0.545552 0.081663
vt 0.541756 0.081663
vt 0.541756 0.051847
vt 0.545552 0.051847
vt 0.545552 0.052259
vt 0.541756 0.052259
vt 0.541756 0.024617
vt 0.545552 0.024617
vt 0.545552 0.024995
vt 0.541756 0.024995
vt 0.583512 0.298926
vt 0.625268 -0.000000
vt 0.667024 0.000000
vt 0.583512 -0.000000
vt 0.625268 -0.000000
vt 0.583512 0.597852
vt 0.625268 0.597852
vt 0.541756 0.354290
vt 0.537960 0.354290
vt 0.503796 0.354290
vt 0.500000 0.354290
vt 0.583512 0.708580
vt 0.579716 0.708580
vt 0.545552 0.708580
vt 0.541756 0.708580
vt 0.541756 0.708580
vt 0.537960 0.708580
vt 0.503796 0.708580
vt 0.500000 0.708580
vt 0.583512 0.354290
vt 0.579716 0.354290
vt 0.545552 0.354290
vt 0.541756 0.354290
s 0
usemtl Material.001
f 388/1/1 199/2/1 200/3/1 387/4/1
f 392/5/2 195/6/2 196/7/2 391/8/2
f 396/9/3 201/10/3 202/11/3 395/12/3
f 400/13/4 205/14/4 206/15/4 399/16/4
f 404/17/5 209/18/5 210/19/5 403/20/5
f 408/21/6 213/22/6 214/23/6 407/24/6
f 412/25/7 217/26/7 218/27/7 411/28/7
f 416/29/8 221/30/8 222/31/8 415/32/8
f 420/33/9 225/34/9 226/35/9 419/36/9
f 424/37/10 229/38/10 230/39/10 423/40/10
f 428/41/11 233/42/11 234/43/11 427/44/11
f 432/45/12 237/46/12 238/47/12 431/48/12
f 436/49/13 241/50/13 242/51/13 435/52/13
f 440/53/14 245/54/14 246/55/14 439/56/14
f 444/57/15 249/58/15 250/59/15 443/60/15
f 448/61/16 253/62/16 254/63/16 447/64/16
f 452/65/17 257/66/17 258/67/17 451/68/17
f 456/69/18 261/70/18 262/71/18 455/72/18
f 460/73/19 265/74/19 266/75/19 459/76/19
f 464/77/20 269/78/20 270/79/20 463/80/20
f 468/81/21 273/82/21 274/83/21 467/84/21
f 472/85/22 277/86/22 278/87/22 471/88/22
f 476/89/23 281/90/23 282/91/23 475/92/23
f 480/93/24 285/94/24 286/95/24 479/96/24
f 484/97/25 289/98/25 290/99/25 483/100/25
f 488/101/26 293/102/26 294/103/26 487/104/26
f 492/105/27 297/106/27 298/107/27 491/108/27
f 496/109/28 301/110/28 302/111/28 495/112/28
f 500/113/29 305/114/29 306/115/29 499/116/29
f 504/117/30 309/118/30 310/119/30 503/120/30
f 508/121/31 313/122/31 314/123/31 507/124/31
f 512/125/32 317/126/32 318/127/32 511/128/32
f 516/129/33 321/130/33 322/131/33 515/132/33
f 520/133/34 325/134/34 326/135/34 519/136/34
f 524/137/35 329/138/35 330/139/35 523/140/35
f 528/141/36 333/142/36 334/143/36 527/144/36
f 532/145/37 337/146/37 338/147/37 531/148/37
f 536/149/38 341/150/38 342/151/38 535/152/38
f 540/153/39 345/154/39 346/155/39 539/156/39
f 544/157/40 349/158/40 350/159/40 543/160/40
f 548/161/41 353/162/41 354/163/41 547/164/41
f 552/165/42 357/166/42 358/167/42 551/168/42
f 556/169/43 361/170/43 362/171/43 555/172/43
f 560/173/44 365/174/44 366/175/44 559/176/44
f 564/177/45 369/178/45 370/179/45 563/180/45
f 568/181/46 373/182/46 374/183/46 567/184/46
f 572/185/47 377/186/47 378/187/47 571/188/47
f 576/189/48 381/190/48 382/191/48 575/192/48
f 195/193/49 5/194/49 6/195/49 196/196/49
f 2/197/49 193/198/49 194/199/49 1/200/49
f 199/201/50 3/202/50 4/203/50 200/204/50
f 8/205/50 197/206/50 198/207/50 7/208/50
f 201/209/49 9/210/49 10/211/49 202/212/49
f 12/213/50 203/214/50 204/215/50 11/216/50
f 205/217/49 13/218/49 14/219/49 206/220/49
f 16/221/50 207/222/50 208/223/50 15/224/50
f 209/225/49 17/226/49 18/227/49 210/228/49
f 20/229/50 211/230/50 212/231/50 19/232/50
f 213/233/49 21/234/49 22/235/49 214/236/49
f 24/237/50 215/238/50 216/239/50 23/240/50
f 217/241/49 25/242/49 26/243/49 218/244/49
f 28/245/50 219/246/50 220/247/50 27/248/50
f 221/249/49 29/250/49 30/251/49 222/252/49
f 32/253/50 223/254/50 224/255/50 31/256/50
f 225/257/49 33/258/49 34/259/49 226/260/49
f 36/261/50 227/262/50 228/263/50 35/264/50
f 229/265/49 37/266/49 38/267/49 230/268/49
f 40/269/50 231/270/50 232/271/50 39/272/50
f 233/273/49 41/274/49 42/275/49 234/276/49
f 44/277/50 235/278/50 236/279/50 43/280/50
f 237/281/49 45/282/49 46/283/49 238/284/49
f 48/285/50 239/286/50 240/287/50 47/288/50
f 241/289/49 49/290/49 50/291/49 242/292/49
f 52/293/50 243/294/50 244/295/50 51/296/50
f 245/297/49 53/298/49 54/299/49 246/300/49
f 56/301/50 247/302/50 248/303/50 55/304/50
f 249/305/49 57/306/49 58/307/49 250/308/49
f 60/309/50 251/310/50 252/311/50 59/312/50
f 253/313/49 61/314/49 62/315/49 254/316/49
f 64/317/50 255/318/50 256/319/50 63/320/50
f 257/321/49 65/322/49 66/323/49 258/324/49
f 68/325/50 259/326/50 260/327/50 67/328/50
f 261/329/49 69/330/49 70/331/49 262/332/49
f 72/333/50 263/334/50 264/335/50 71/336/50
f 265/337/49 73/338/49 74/339/49 266/340/49
f 76/341/50 267/342/50 268/343/50 75/344/50
f 269/345/49 77/346/49 78/347/49 270/348/49
f 80/349/50 271/350/50 272/351/50 79/352/50
f 273/353/49 81/354/49 82/355/49 274/356/49
f 84/357/50 275/358/50 276/359/50 83/360/50
f 277/361/49 85/362/49 86/363/49 278/364/49
f 88/365/50 279/366/50 280/367/50 87/368/50
f 281/369/49 89/370/49 90/371/49 282/372/49
f 92/373/50 283/374/50 284/375/50 91/376/50
f 285/377/49 93/378/49 94/379/49 286/380/49
f 96/381/50 287/382/50 288/383/50 95/384/50
f 289/385/49 97/386/49 98/387/49 290/388/49
f 100/389/50 291/390/50 292/391/50 99/392/50
f 293/393/49 101/394/49 102/395/49 294/396/49
f 104/397/50 295/398/50 296/399/50 103/400/50
f 297/401/49 105/402/49 106/403/49 298/404/49
f 108/405/50 299/406/50 300/407/50 107/408/50
f 301/409/49 109/410/49 110/411/49 302/412/49
f 112/413/50 303/414/50 304/415/50 111/416/50
f 305/417/49 113/418/49 114/419/49 306/420/49
f 116/421/50 307/422/50 308/423/50 115/424/50
f 309/425/49 117/426/49 118/427/49 310/428/49
f 120/429/50 311/430/50 312/431/50 119/432/50
f 313/433/49 121/434/49 122/435/49 314/436/49
f 124/437/50 315/438/50 316/439/50 123/440/50
f 317/441/49 125/442/49 126/443/49 318/444/49
f 128/445/50 319/446/50 320/447/50 127/448/50
f 321/449/49 129/450/49 130/451/49 322/452/49
f 132/453/50 323/454/50 324/455/50 131/456/50
f 325/457/49 133/458/49 134/459/49 326/460/49
f 136/461/50 327/462/50 328/463/50 135/464/50
f 329/465/49 137/466/49 138/467/49 330/468/49
f 140/469/50 331/470/50 332/471/50 139/472/50
f 333/473/49 141/474/49 142/475/49 334/476/49
f 144/477/50 335/478/50 336/479/50 143/480/50
f 337/481/49 145/482/49 146/483/49 338/484/49
f 148/485/50 339/486/50 340/487/50 147/488/50
f 341/489/49 149/490/49 150/491/49 342/492/49
f 152/493/50 343/494/50 344/495/50 151/496/50
f 345/497/49 153/498/49 154/499/49 346/500/49
f 156/501/50 347/502/50 348/503/50 155/504/50
f 349/505/49 157/506/49 158/507/49 350/508/49
f 160/509/50 351/510/50 352/511/50 159/512/50
f 353/513/49 161/514/49 162/515/49 354/516/49
f 164/517/50 355/518/50 356/519/50 163/520/50
f 357/521/49 165/522/49 166/523/49 358/524/49
f 168/525/50 359/526/50 360/527/50 167/528/50
f 361/529/49 169/530/49 170/531/49 362/532/49
f 172/533/50 363/534/50 364/535/50 171/536/50
f 365/537/49 173/538/49 174/539/49 366/540/49
f 176/541/50 367/542/50 368/543/50 175/544/50
f 369/545/49 177/546/49 178/547/49 370/548/49
f 180/549/50 371/550/50 372/551/50 179/552/50
f 373/553/49 181/554/49 182/555/49 374/556/49
f 184/557/50 375/558/50 376/559/50 183/560/50
f 377/561/49 185/562/49 186/563/49 378/564/49
f 188/565/50 379/566/50 380/567/50 187/568/50
f 381/569/49 189/570/49 190/571/49 382/572/49
f 192/573/50 383/574/50 384/575/50 191/576/50
f 193/762/1 385/763/1 386/764/1 194/765/1
f 197/766/2 389/767/2 390/768/2 198/769/2
f 203/770/3 393/771/3 394/772/3 204/773/3
f 207/774/4 397/775/4 398/776/4 208/777/4
f 211/778/5 401/779/5 402/780/5 212/781/5
f 215/782/6 405/783/6 406/784/6 216/785/6
f 219/786/7 409/787/7 410/788/7 220/789/7
f 223/790/8 413/791/8 414/792/8 224/793/8
f 227/794/9 417/795/9 418/796/9 228/797/9
f 231/798/10 421/799/10 422/800/10 232/801/10
f 235/802/11 425/803/11 426/804/11 236/805/11
f 239/806/12 429/807/12 430/808/12 240/809/12
f 243/810/13 433/811/13 434/812/13 244/813/13
f 247/814/14 437/815/14 438/816/14 248/817/14
f 251/818/15 441/819/15 442/820/15 252/821/15
f 255/822/16 445/823/16 446/824/16 256/825/16
f 259/826/17 449/827/17 450/828/17 260/829/17
f 263/830/18 453/831/18 454/832/18 264/833/18
f 267/834/19 457/835/19 458/836/19 268/837/19
f 271/838/20 461/839/20 462/840/20 272/841/20
f 275/842/21 465/843/21 466/844/21 276/845/21
f 279/846/22 469/847/22 470/848/22 280/849/22
f 283/850/23 473/851/23 474/852/23 284/853/23
f 287/854/24 477/855/24 478/856/24 288/857/24
f 291/858/25 481/859/25 482/860/25 292/861/25
f 295/862/26 485/863/26 486/864/26 296/865/26
f 299/866/27 489/867/27 490/868/27 300/869/27
f 303/870/28 493/871/28 494/872/28 304/873/28
f 307/874/29 497/875/29 498/876/29 308/877/29
f 311/878/30 501/879/30 502/880/30 312/881/30
f 315/882/31 505/883/31 506/884/31 316/885/31
f 319/886/32 509/887/32 510/888/32 320/889/32
f 323/890/33 513/891/33 514/892/33 324/893/33
f 327/894/34 517/895/34 518/896/34 328/897/34
f 331/898/35 521/899/35 522/900/35 332/901/35
f 335/902/36 525/903/36 526/904/36 336/905/36
f 339/906/37 529/907/37 530/908/37 340/909/37
f 343/910/38 533/911/38 534/912/38 344/913/38
f 347/914/39 537/915/39 538/916/39 348/917/39
f 351/918/40 541/919/40 542/920/40 352/921/40
f 355/922/41 545/923/41 546/924/41 356/925/41
f 359/926/42 549/927/42 550/928/42 360/929/42
f 363/930/43 553/931/43 554/932/43 364/933/43
f 367/934/44 557/935/44 558/936/44 368/937/44
f 371/938/45 561/939/45 562/940/45 372/941/45
f 375/942/46 565/943/46 566/944/46 376/945/46
f 379/946/47 569/947/47 570/948/47 380/949/47
f 383/950/48 573/951/48 574/952/48 384/953/48
f 2/197/49 189/570/49 381/569/49 193/198/49
f 6/195/49 1/200/49 194/199/49 196/196/49
f 4/203/50 7/208/50 198/207/50 200/204/50
f 192/573/50 3/202/50 199/201/50 383/574/50
f 10/211/49 5/194/49 195/193/49 202/212/49
f 8/205/50 11/216/50 204/215/50 197/206/50
f 14/219/49 9/210/49 201/209/49 206/220/49
f 12/213/50 15/224/50 208/223/50 203/214/50
f 18/227/49 13/218/49 205/217/49 210/228/49
f 16/221/50 19/232/50 212/231/50 207/222/50
f 22/235/49 17/226/49 209/225/49 214/236/49
f 20/229/50 23/240/50 216/239/50 211/230/50
f 26/243/49 21/234/49 213/233/49 218/244/49
f 24/237/50 27/248/50 220/247/50 215/238/50
f 30/251/49 25/242/49 217/241/49 222/252/49
f 28/245/50 31/256/50 224/255/50 219/246/50
f 34/259/49 29/250/49 221/249/49 226/260/49
f 32/253/50 35/264/50 228/263/50 223/254/50
f 38/267/49 33/258/49 225/257/49 230/268/49
f 36/261/50 39/272/50 232/271/50 227/262/50
f 42/275/49 37/266/49 229/265/49 234/276/49
f 40/269/50 43/280/50 236/279/50 231/270/50
f 46/283/49 41/274/49 233/273/49 238/284/49
f 44/277/50 47/288/50 240/287/50 235/278/50
f 50/291/49 45/282/49 237/281/49 242/292/49
f 48/285/50 51/296/50 244/295/50 239/286/50
f 54/299/49 49/290/49 241/289/49 246/300/49
f 52/293/50 55/304/50 248/303/50 243/294/50
f 58/307/49 53/298/49 245/297/49 250/308/49
f 56/301/50 59/312/50 252/311/50 247/302/50
f 62/315/49 57/306/49 249/305/49 254/316/49
f 60/309/50 63/320/50 256/319/50 251/310/50
f 66/323/49 61/314/49 253/313/49 258/324/49
f 64/317/50 67/328/50 260/327/50 255/318/50
f 70/331/49 65/322/49 257/321/49 262/332/49
f 68/325/50 71/336/50 264/335/50 259/326/50
f 74/339/49 69/330/49 261/329/49 266/340/49
f 72/333/50 75/344/50 268/343/50 263/334/50
f 78/347/49 73/338/49 265/337/49 270/348/49
f 76/341/50 79/352/50 272/351/50 267/342/50
f 82/355/49 77/346/49 269/345/49 274/356/49
f 80/349/50 83/360/50 276/359/50 271/350/50
f 86/363/49 81/354/49 273/353/49 278/364/49
f 84/357/50 87/368/50 280/367/50 275/358/50
f 90/371/49 85/362/49 277/361/49 282/372/49
f 88/365/50 91/376/50 284/375/50 279/366/50
f 94/379/49 89/370/49 281/369/49 286/380/49
f 92/373/50 95/384/50 288/383/50 283/374/50
f 98/387/49 93/378/49 285/377/49 290/388/49
f 96/381/50 99/392/50 292/391/50 287/382/50
f 102/395/49 97/386/49 289/385/49 294/396/49
f 100/389/50 103/400/50 296/399/50 291/390/50
f 106/403/49 101/394/49 293/393/49 298/404/49
f 104/397/50 107/408/50 300/407/50 295/398/50
f 110/411/49 105/402/49 297/401/49 302/412/49
f 108/405/50 111/416/50 304/415/50 299/406/50
f 114/419/49 109/410/49 301/409/49 306/420/49
f 112/413/50 115/424/50 308/423/50 303/414/50
f 118/427/49 113/418/49 305/417/49 310/428/49
f 116/421/50 119/432/50 312/431/50 307/422/50
f 122/435/49 117/426/49 309/425/49 314/436/49
f 120/429/50 123/440/50 316/439/50 311/430/50
f 126/443/49 121/434/49 313/433/49 318/444/49
f 124/437/50 127/448/50 320/447/50 315/438/50
f 130/451/49 125/442/49 317/441/49 322/452/49
f 128/445/50 131/456/50 324/455/50 319/446/50
f 134/459/49 129/450/49 321/449/49 326/460/49
f 132/453/50 135/464/50 328/463/50 323/454/50
f 138/467/49 133/458/49 325/457/49 330/468/49
f 136/461/50 139/472/50 332/471/50 327/462/50
f 142/475/49 137/466/49 329/465/49 334/476/49
f 140/469/50 143/480/50 336/479/50 331/470/50
f 146/483/49 141/474/49 333/473/49 338/484/49
f 144/477/50 147/488/50 340/487/50 335/478/50
f 150/491/49 145/482/49 337/481/49 342/492/49
f 148/485/50 151/496/50 344/495/50 339/486/50
f 154/499/49 149/490/49 341/489/49 346/500/49
f 152/493/50 155/504/50 348/503/50 343/494/50
f 158/507/49 153/498/49 345/497/49 350/508/49
f 156/501/50 159/512/50 352/511/50 347/502/50
f 162/515/49 157/506/49 349/505/49 354/516/49
f 160/509/50 163/520/50 356/519/50 351/510/50
f 166/523/49 161/514/49 353/513/49 358/524/49
f 164/517/50 167/528/50 360/527/50 355/518/50
f 170/531/49 165/522/49 357/521/49 362/532/49
f 168/525/50 171/536/50 364/535/50 359/526/50
f 174/539/49 169/530/49 361/529/49 366/540/49
f 172/533/50 175/544/50 368/543/50 363/534/50
f 178/547/49 173/538/49 365/537/49 370/548/49
f 176/541/50 179/552/50 372/551/50 367/542/50
f 182/555/49 177/546/49 369/545/49 374/556/49
f 180/549/50 183/560/50 376/559/50 371/550/50
f 186/563/49 181/554/49 373/553/49 378/564/49
f 184/557/50 187/568/50 380/567/50 375/558/50
f 190/571/49 185/562/49 377/561/49 382/572/49
f 188/565/50 191/576/50 384/575/50 379/566/50
f 194/961/88 386/962/88 391/8/88 196/7/88
f 381/190/87 576/189/87 385/763/87 193/762/87
f 195/6/89 392/5/89 395/12/89 202/11/89
f 389/767/89 197/766/89 204/773/89 394/772/89
f 387/963/88 200/964/88 198/769/88 390/768/88
f 573/951/87 383/950/87 199/2/87 388/1/87
f 201/10/90 396/9/90 399/16/90 206/15/90
f 393/771/90 203/770/90 208/777/90 398/776/90
f 205/14/91 400/13/91 403/20/91 210/19/91
f 397/775/91 207/774/91 212/781/91 402/780/91
f 209/18/92 404/17/92 407/24/92 214/23/92
f 401/779/92 211/778/92 216/785/92 406/784/92
f 213/22/93 408/21/93 411/28/93 218/27/93
f 405/783/93 215/782/93 220/789/93 410/788/93
f 217/26/94 412/25/94 415/32/94 222/31/94
f 409/787/94 219/786/94 224/793/94 414/792/94
f 221/30/95 416/29/95 419/36/95 226/35/95
f 413/791/95 223/790/95 228/797/95 418/796/95
f 225/34/96 420/33/96 423/40/96 230/39/96
f 417/795/96 227/794/96 232/801/96 422/800/96
f 229/38/97 424/37/97 427/44/97 234/43/97
f 421/799/97 231/798/97 236/805/97 426/804/97
f 233/42/98 428/41/98 431/48/98 238/47/98
f 425/803/98 235/802/98 240/809/98 430/808/98
f 237/46/99 432/45/99 435/52/99 242/51/99
f 429/807/99 239/806/99 244/813/99 434/812/99
f 241/965/100 436/966/100 439/56/100 246/55/100
f 433/967/100 243/968/100 248/817/100 438/816/100
f 245/54/101 440/53/101 443/60/101 250/59/101
f 437/815/101 247/814/101 252/821/101 442/820/101
f 249/58/102 444/57/102 447/64/102 254/63/102
f 441/819/102 251/818/102 256/825/102 446/824/102
f 253/62/103 448/61/103 451/68/103 258/67/103
f 445/823/103 255/822/103 260/829/103 450/828/103
f 257/66/104 452/65/104 455/72/104 262/71/104
f 449/827/104 259/826/104 264/833/104 454/832/104
f 261/70/105 456/69/105 459/76/105 266/75/105
f 453/831/105 263/830/105 268/837/105 458/836/105
f 265/74/106 460/73/106 463/80/106 270/79/106
f 457/835/106 267/834/106 272/841/106 462/840/106
f 269/78/107 464/77/107 467/84/107 274/83/107
f 461/839/107 271/838/107 276/845/107 466/844/107
f 273/82/108 468/81/108 471/88/108 278/87/108
f 465/843/108 275/842/108 280/849/108 470/848/108
f 277/86/109 472/85/109 475/92/109 282/91/109
f 469/847/109 279/846/109 284/853/109 474/852/109
f 281/90/110 476/89/110 479/96/110 286/95/110
f 473/851/110 283/850/110 288/857/110 478/856/110
f 285/94/64 480/93/64 483/100/64 290/99/64
f 477/855/64 287/854/64 292/861/64 482/860/64
f 289/969/63 484/970/63 487/104/63 294/103/63
f 481/971/63 291/972/63 296/865/63 486/864/63
f 293/102/65 488/101/65 491/108/65 298/107/65
f 485/863/65 295/862/65 300/869/65 490/868/65
f 297/106/66 492/105/66 495/112/66 302/111/66
f 489/867/66 299/866/66 304/873/66 494/872/66
f 301/110/67 496/109/67 499/116/67 306/115/67
f 493/871/67 303/870/67 308/877/67 498/876/67
f 305/114/68 500/113/68 503/120/68 310/119/68
f 497/875/68 307/874/68 312/881/68 502/880/68
f 309/118/69 504/117/69 507/124/69 314/123/69
f 501/879/69 311/878/69 316/885/69 506/884/69
f 313/122/70 508/121/70 511/128/70 318/127/70
f 505/883/70 315/882/70 320/889/70 510/888/70
f 317/126/71 512/125/71 515/132/71 322/131/71
f 509/887/71 319/886/71 324/893/71 514/892/71
f 321/130/72 516/129/72 519/136/72 326/135/72
f 513/891/72 323/890/72 328/897/72 518/896/72
f 325/134/73 520/133/73 523/140/73 330/139/73
f 517/895/73 327/894/73 332/901/73 522/900/73
f 329/138/74 524/137/74 527/144/74 334/143/74
f 521/899/74 331/898/74 336/905/74 526/904/74
f 333/142/75 528/141/75 531/148/75 338/147/75
f 525/903/75 335/902/75 340/909/75 530/908/75
f 337/973/76 532/974/76 535/152/76 342/151/76
f 529/975/76 339/976/76 344/913/76 534/912/76
f 341/150/77 536/149/77 539/156/77 346/155/77
f 533/911/77 343/910/77 348/917/77 538/916/77
f 345/154/78 540/153/78 543/160/78 350/159/78
f 537/915/78 347/914/78 352/921/78 542/920/78
f 349/158/79 544/157/79 547/164/79 354/163/79
f 541/919/79 351/918/79 356/925/79 546/924/79
f 353/162/80 548/161/80 551/168/80 358/167/80
f 545/923/80 355/922/80 360/929/80 550/928/80
f 357/166/81 552/165/81 555/172/81 362/171/81
f 549/927/81 359/926/81 364/933/81 554/932/81
f 361/170/82 556/169/82 559/176/82 366/175/82
f 553/931/82 363/930/82 368/937/82 558/936/82
f 365/174/83 560/173/83 563/180/83 370/179/83
f 557/935/83 367/934/83 372/941/83 562/940/83
f 369/178/84 564/177/84 567/184/84 374/183/84
f 561/939/84 371/938/84 376/945/84 566/944/84
f 373/182/85 568/181/85 571/188/85 378/187/85
f 565/943/85 375/942/85 380/949/85 570/948/85
f 377/186/86 572/185/86 575/192/86 382/191/86
f 569/947/86 379/946/86 384/953/86 574/952/86
usemtl Material.002
f 385/763/1 388/1/1 387/4/1 386/764/1
f 389/767/2 392/5/2 391/8/2 390/768/2
f 393/771/3 396/9/3 395/12/3 394/772/3
f 397/775/4 400/13/4 399/16/4 398/776/4
f 401/779/5 404/17/5 403/20/5 402/780/5
f 405/783/6 408/21/6 407/24/6 406/784/6
f 409/787/7 412/25/7 411/28/7 410/788/7
f 413/791/55 416/29/55 415/32/55 414/792/55
f 417/795/9 420/33/9 419/36/9 418/796/9
f 421/799/56 424/37/56 423/40/56 422/800/56
f 425/803/11 428/41/11 427/44/11 426/804/11
f 429/807/12 432/45/12 431/48/12 430/808/12
f 433/811/13 436/49/13 435/52/13 434/812/13
f 437/815/14 440/53/14 439/56/14 438/816/14
f 441/819/15 444/57/15 443/60/15 442/820/15
f 445/823/57 448/61/57 447/64/57 446/824/57
f 449/827/17 452/65/17 451/68/17 450/828/17
f 453/831/58 456/69/58 455/72/58 454/832/58
f 457/835/19 460/73/19 459/76/19 458/836/19
f 461/839/20 464/77/20 463/80/20 462/840/20
f 465/843/21 468/81/21 467/84/21 466/844/21
f 469/847/22 472/85/22 471/88/22 470/848/22
f 473/851/23 476/89/23 475/92/23 474/852/23
f 477/855/24 480/93/24 479/96/24 478/856/24
f 481/859/25 484/97/25 483/100/25 482/860/25
f 485/863/26 488/101/26 487/104/26 486/864/26
f 489/867/27 492/105/27 491/108/27 490/868/27
f 493/871/28 496/109/28 495/112/28 494/872/28
f 497/875/29 500/113/29 499/116/29 498/876/29
f 501/879/30 504/117/30 503/120/30 502/880/30
f 505/883/31 508/121/31 507/124/31 506/884/31
f 509/887/59 512/125/59 511/128/59 510/888/59
f 513/891/33 516/129/33 515/132/33 514/892/33
f 517/895/60 520/133/60 519/136/60 518/896/60
f 521/899/35 524/137/35 523/140/35 522/900/35
f 525/903/36 528/141/36 527/144/36 526/904/36
f 529/907/37 532/145/37 531/148/37 530/908/37
f 533/911/38 536/149/38 535/152/38 534/912/38
f 537/915/39 540/153/39 539/156/39 538/916/39
f 541/919/61 544/157/61 543/160/61 542/920/61
f 545/923/41 548/161/41 547/164/41 546/924/41
f 549/927/62 552/165/62 551/168/62 550/928/62
f 553/931/43 556/169/43 555/172/43 554/932/43
f 557/935/44 560/173/44 559/176/44 558/936/44
f 561/939/45 564/177/45 563/180/45 562/940/45
f 565/943/46 568/181/46 567/184/46 566/944/46
f 569/947/47 572/185/47 571/188/47 570/948/47
f 573/951/48 576/189/48 575/192/48 574/952/48
usemtl Material.006
f 1/577/25 4/578/25 3/579/25 2/580/25
f 191/581/24 190/582/24 189/583/24 192/584/24
f 187/585/23 186/586/23 185/587/23 188/588/23
f 183/589/22 182/590/22 181/591/22 184/592/22
f 179/593/21 178/594/21 177/595/21 180/596/21
f 175/597/51 174/598/51 173/599/51 176/600/51
f 171/601/19 170/602/19 169/603/19 172/604/19
f 167/605/18 166/606/18 165/607/18 168/608/18
f 163/609/17 162/610/17 161/611/17 164/612/17
f 159/613/16 158/614/16 157/615/16 160/616/16
f 155/617/15 154/618/15 153/619/15 156/620/15
f 151/621/14 150/622/14 149/623/14 152/624/14
f 147/625/13 146/626/13 145/627/13 148/628/13
f 143/629/12 142/630/12 141/631/12 144/632/12
f 139/633/11 138/634/11 137/635/11 140/636/11
f 135/637/10 134/638/10 133/639/10 136/640/10
f 131/641/9 130/642/9 129/643/9 132/644/9
f 127/645/8 126/646/8 125/647/8 128/648/8
f 123/649/7 122/650/7 121/651/7 124/652/7
f 119/653/52 118/654/52 117/655/52 120/656/52
f 115/657/5 114/658/5 113/659/5 116/660/5
f 111/661/4 110/662/4 109/663/4 112/664/4
f 107/665/3 106/666/3 105/667/3 108/668/3
f 103/669/2 102/670/2 101/671/2 104/672/2
f 99/626/1 98/673/1 97/674/1 100/627/1
f 95/630/48 94/675/48 93/676/48 96/677/48
f 91/634/47 90/678/47 89/679/47 92/635/47
f 87/680/46 86/681/46 85/682/46 88/683/46
f 83/684/45 82/685/45 81/686/45 84/687/45
f 79/688/53 78/689/53 77/690/53 80/691/53
f 75/692/43 74/693/43 73/694/43 76/695/43
f 71/696/42 70/697/42 69/698/42 72/699/42
f 67/700/41 66/701/41 65/702/41 68/703/41
f 63/704/40 62/705/40 61/706/40 64/707/40
f 59/708/39 58/709/39 57/710/39 60/711/39
f 55/670/38 54/712/38 53/713/38 56/671/38
f 51/714/37 50/715/37 49/716/37 52/717/37
f 47/718/36 46/719/36 45/720/36 48/721/36
f 43/722/35 42/723/35 41/724/35 44/725/35
f 39/726/34 38/727/34 37/728/34 40/729/34
f 35/730/33 34/731/33 33/732/33 36/733/33
f 31/734/32 30/735/32 29/736/32 32/737/32
f 27/738/31 26/739/31 25/740/31 28/741/31
f 23/742/54 22/743/54 21/744/54 24/745/54
f 19/746/29 18/747/29 17/748/29 20/749/29
f 15/750/28 14/751/28 13/752/28 16/753/28
f 11/754/27 10/755/27 9/756/27 12/757/27
f 7/758/26 6/759/26 5/760/26 8/761/26
f 7/758/63 4/954/63 1/627/63 6/759/63
f 3/579/64 192/584/64 189/583/64 2/580/64
f 11/754/65 8/761/65 5/760/65 10/755/65
f 15/750/66 12/757/66 9/756/66 14/751/66
f 19/746/67 16/753/67 13/752/67 18/747/67
f 23/742/68 20/749/68 17/748/68 22/743/68
f 27/738/69 24/745/69 21/744/69 26/739/69
f 31/734/70 28/741/70 25/740/70 30/735/70
f 35/730/71 32/737/71 29/736/71 34/731/71
f 39/726/72 36/733/72 33/732/72 38/727/72
f 43/722/73 40/729/73 37/728/73 42/723/73
f 47/718/74 44/725/74 41/724/74 46/719/74
f 51/714/75 48/721/75 45/720/75 50/715/75
f 55/670/76 52/955/76 49/956/76 54/712/76
f 59/708/77 56/671/77 53/713/77 58/709/77
f 63/704/78 60/711/78 57/710/78 62/705/78
f 67/700/79 64/707/79 61/706/79 66/701/79
f 71/696/80 68/703/80 65/702/80 70/697/80
f 75/692/81 72/699/81 69/698/81 74/693/81
f 79/688/82 76/695/82 73/694/82 78/689/82
f 83/684/83 80/691/83 77/690/83 82/685/83
f 87/680/84 84/687/84 81/686/84 86/681/84
f 91/634/85 88/683/85 85/682/85 90/678/85
f 95/630/86 92/635/86 89/679/86 94/675/86
f 99/626/87 96/677/87 93/676/87 98/673/87
f 103/669/88 100/957/88 97/958/88 102/670/88
f 107/665/89 104/672/89 101/671/89 106/666/89
f 111/661/90 108/668/90 105/667/90 110/662/90
f 115/657/91 112/664/91 109/663/91 114/658/91
f 119/653/92 116/660/92 113/659/92 118/654/92
f 123/649/93 120/656/93 117/655/93 122/650/93
f 127/645/94 124/652/94 121/651/94 126/646/94
f 131/641/95 128/648/95 125/647/95 130/642/95
f 135/637/96 132/644/96 129/643/96 134/638/96
f 139/633/97 136/640/97 133/639/97 138/634/97
f 143/629/98 140/636/98 137/635/98 142/630/98
f 147/625/99 144/632/99 141/631/99 146/626/99
f 151/621/100 148/959/100 145/960/100 150/622/100
f 155/617/101 152/624/101 149/623/101 154/618/101
f 159/613/102 156/620/102 153/619/102 158/614/102
f 163/609/103 160/616/103 157/615/103 162/610/103
f 167/605/104 164/612/104 161/611/104 166/606/104
f 171/601/105 168/608/105 165/607/105 170/602/105
f 175/597/106 172/604/106 169/603/106 174/598/106
f 179/593/107 176/600/107 173/599/107 178/594/107
f 183/589/108 180/596/108 177/595/108 182/590/108
f 187/585/109 184/592/109 181/591/109 186/586/109
f 191/581/110 188/588/110 185/587/110 190/582/110
f 386/962/88 387/963/88 390/768/88 391/8/88
f 576/189/87 573/951/87 388/1/87 385/763/87
f 392/5/89 389/767/89 394/772/89 395/12/89
f 396/9/90 393/771/90 398/776/90 399/16/90
f 400/13/91 397/775/91 402/780/91 403/20/91
f 404/17/92 401/779/92 406/784/92 407/24/92
f 408/21/93 405/783/93 410/788/93 411/28/93
f 412/25/94 409/787/94 414/792/94 415/32/94
f 416/29/95 413/791/95 418/796/95 419/36/95
f 420/33/96 417/795/96 422/800/96 423/40/96
f 424/37/97 421/799/97 426/804/97 427/44/97
f 428/41/98 425/803/98 430/808/98 431/48/98
f 432/45/99 429/807/99 434/812/99 435/52/99
f 436/966/100 433/967/100 438/816/100 439/56/100
f 440/53/101 437/815/101 442/820/101 443/60/101
f 444/57/102 441/819/102 446/824/102 447/64/102
f 448/61/103 445/823/103 450/828/103 451/68/103
f 452/65/104 449/827/104 454/832/104 455/72/104
f 456/69/105 453/831/105 458/836/105 459/76/105
f 460/73/106 457/835/106 462/840/106 463/80/106
f 464/77/107 461/839/107 466/844/107 467/84/107
f 468/81/108 465/843/108 470/848/108 471/88/108
f 472/85/109 469/847/109 474/852/109 475/92/109
f 476/89/110 473/851/110 478/856/110 479/96/110
f 480/93/64 477/855/64 482/860/64 483/100/64
f 484/970/63 481/971/63 486/864/63 487/104/63
f 488/101/65 485/863/65 490/868/65 491/108/65
f 492/105/66 489/867/66 494/872/66 495/112/66
f 496/109/67 493/871/67 498/876/67 499/116/67
f 500/113/68 497/875/68 502/880/68 503/120/68
f 504/117/69 501/879/69 506/884/69 507/124/69
f 508/121/70 505/883/70 510/888/70 511/128/70
f 512/125/71 509/887/71 514/892/71 515/132/71
f 516/129/72 513/891/72 518/896/72 519/136/72
f 520/133/73 517/895/73 522/900/73 523/140/73
f 524/137/74 521/899/74 526/904/74 527/144/74
f 528/141/75 525/903/75 530/908/75 531/148/75
f 532/974/76 529/975/76 534/912/76 535/152/76
f 536/149/77 533/911/77 538/916/77 539/156/77
f 540/153/78 537/915/78 542/920/78 543/160/78
f 544/157/79 541/919/79 546/924/79 547/164/79
f 548/161/80 545/923/80 550/928/80 551/168/80
f 552/165/81 549/927/81 554/932/81 555/172/81
f 556/169/82 553/931/82 558/936/82 559/176/82
f 560/173/83 557/935/83 562/940/83 563/180/83
f 564/177/84 561/939/84 566/944/84 567/184/84
f 568/181/85 565/943/85 570/948/85 571/188/85
f 572/185/86 569/947/86 574/952/86 575/192/86
